<mxfile host="app.diagrams.net" modified="2022-10-22T12:10:32.271Z" agent="5.0 (Windows NT 10.0; Win64; x64) AppleWebKit/537.36 (KHTML, like Gecko) Chrome/106.0.0.0 Safari/537.36" etag="VsJ5pglAzK8pEWeocj78" version="20.4.2" type="github">
  <diagram id="R2lEEEUBdFMjLlhIrx00" name="Page-1">
    <mxGraphModel dx="4462" dy="3074" grid="1" gridSize="10" guides="1" tooltips="1" connect="1" arrows="1" fold="1" page="1" pageScale="1" pageWidth="1200" pageHeight="1920" math="0" shadow="0" extFonts="Permanent Marker^https://fonts.googleapis.com/css?family=Permanent+Marker">
      <root>
        <mxCell id="0" />
        <mxCell id="1" parent="0" />
        <object label="MEMBER(회원)" idx="" id="C-vyLk0tnHw3VtMMgP7b-23">
          <mxCell style="shape=table;startSize=30;container=1;collapsible=1;childLayout=tableLayout;fixedRows=1;rowLines=0;fontStyle=1;align=center;resizeLast=1;fillColor=#cce5ff;strokeColor=#36393d;fontSize=18;" parent="1" vertex="1">
            <mxGeometry x="-1230" y="-730" width="510" height="200" as="geometry" />
          </mxCell>
        </object>
        <mxCell id="C-vyLk0tnHw3VtMMgP7b-24" value="" style="shape=partialRectangle;collapsible=0;dropTarget=0;pointerEvents=0;fillColor=#eeeeee;points=[[0,0.5],[1,0.5]];portConstraint=eastwest;top=0;left=0;right=0;bottom=1;strokeColor=#36393d;" parent="C-vyLk0tnHw3VtMMgP7b-23" vertex="1">
          <mxGeometry y="30" width="510" height="30" as="geometry" />
        </mxCell>
        <mxCell id="C-vyLk0tnHw3VtMMgP7b-25" value="KEY" style="shape=partialRectangle;overflow=hidden;connectable=0;fillColor=#eeeeee;top=0;left=0;bottom=0;right=0;fontStyle=1;strokeColor=#36393d;" parent="C-vyLk0tnHw3VtMMgP7b-24" vertex="1">
          <mxGeometry width="30" height="30" as="geometry">
            <mxRectangle width="30" height="30" as="alternateBounds" />
          </mxGeometry>
        </mxCell>
        <mxCell id="C-vyLk0tnHw3VtMMgP7b-26" value="ATT" style="shape=partialRectangle;overflow=hidden;connectable=0;fillColor=#eeeeee;top=0;left=0;bottom=0;right=0;align=left;spacingLeft=6;fontStyle=5;strokeColor=#36393d;" parent="C-vyLk0tnHw3VtMMgP7b-24" vertex="1">
          <mxGeometry x="30" width="50" height="30" as="geometry">
            <mxRectangle width="50" height="30" as="alternateBounds" />
          </mxGeometry>
        </mxCell>
        <mxCell id="lmOcfVDpMMb4SoSBJFk1-18" value="DATA" style="shape=partialRectangle;overflow=hidden;connectable=0;fillColor=#eeeeee;top=0;left=0;bottom=0;right=0;align=left;spacingLeft=6;fontStyle=5;strokeColor=#36393d;" parent="C-vyLk0tnHw3VtMMgP7b-24" vertex="1">
          <mxGeometry x="80" width="79" height="30" as="geometry">
            <mxRectangle width="79" height="30" as="alternateBounds" />
          </mxGeometry>
        </mxCell>
        <mxCell id="lmOcfVDpMMb4SoSBJFk1-21" value="NN" style="shape=partialRectangle;overflow=hidden;connectable=0;fillColor=#eeeeee;top=0;left=0;bottom=0;right=0;align=left;spacingLeft=6;fontStyle=5;strokeColor=#36393d;" parent="C-vyLk0tnHw3VtMMgP7b-24" vertex="1">
          <mxGeometry x="159" width="31" height="30" as="geometry">
            <mxRectangle width="31" height="30" as="alternateBounds" />
          </mxGeometry>
        </mxCell>
        <mxCell id="lmOcfVDpMMb4SoSBJFk1-23" value="DEFAULT" style="shape=partialRectangle;overflow=hidden;connectable=0;fillColor=#eeeeee;top=0;left=0;bottom=0;right=0;align=left;spacingLeft=6;fontStyle=5;strokeColor=#36393d;" parent="C-vyLk0tnHw3VtMMgP7b-24" vertex="1">
          <mxGeometry x="190" width="70" height="30" as="geometry">
            <mxRectangle width="70" height="30" as="alternateBounds" />
          </mxGeometry>
        </mxCell>
        <mxCell id="lmOcfVDpMMb4SoSBJFk1-63" value="EX" style="shape=partialRectangle;overflow=hidden;connectable=0;fillColor=#eeeeee;top=0;left=0;bottom=0;right=0;align=left;spacingLeft=6;fontStyle=5;strokeColor=#36393d;" parent="C-vyLk0tnHw3VtMMgP7b-24" vertex="1">
          <mxGeometry x="260" width="110" height="30" as="geometry">
            <mxRectangle width="110" height="30" as="alternateBounds" />
          </mxGeometry>
        </mxCell>
        <mxCell id="yEf2gbcgYrwrFwAvnMjx-94" value="설명" style="shape=partialRectangle;overflow=hidden;connectable=0;fillColor=#eeeeee;top=0;left=0;bottom=0;right=0;align=left;spacingLeft=6;fontStyle=5;strokeColor=#36393d;" parent="C-vyLk0tnHw3VtMMgP7b-24" vertex="1">
          <mxGeometry x="370" width="140" height="30" as="geometry">
            <mxRectangle width="140" height="30" as="alternateBounds" />
          </mxGeometry>
        </mxCell>
        <mxCell id="lmOcfVDpMMb4SoSBJFk1-57" style="shape=partialRectangle;collapsible=0;dropTarget=0;pointerEvents=0;fillColor=#eeeeee;points=[[0,0.5],[1,0.5]];portConstraint=eastwest;top=0;left=0;right=0;bottom=0;strokeColor=#36393d;" parent="C-vyLk0tnHw3VtMMgP7b-23" vertex="1">
          <mxGeometry y="60" width="510" height="20" as="geometry" />
        </mxCell>
        <mxCell id="lmOcfVDpMMb4SoSBJFk1-58" value="pk" style="shape=partialRectangle;overflow=hidden;connectable=0;fillColor=#eeeeee;top=0;left=0;bottom=0;right=0;strokeColor=#36393d;" parent="lmOcfVDpMMb4SoSBJFk1-57" vertex="1">
          <mxGeometry width="30" height="20" as="geometry">
            <mxRectangle width="30" height="20" as="alternateBounds" />
          </mxGeometry>
        </mxCell>
        <mxCell id="lmOcfVDpMMb4SoSBJFk1-59" value="idx" style="shape=partialRectangle;overflow=hidden;connectable=0;fillColor=#eeeeee;top=0;left=0;bottom=0;right=0;align=left;spacingLeft=6;strokeColor=#36393d;" parent="lmOcfVDpMMb4SoSBJFk1-57" vertex="1">
          <mxGeometry x="30" width="50" height="20" as="geometry">
            <mxRectangle width="50" height="20" as="alternateBounds" />
          </mxGeometry>
        </mxCell>
        <mxCell id="lmOcfVDpMMb4SoSBJFk1-60" value="int" style="shape=partialRectangle;overflow=hidden;connectable=0;fillColor=#eeeeee;top=0;left=0;bottom=0;right=0;align=left;spacingLeft=6;strokeColor=#36393d;" parent="lmOcfVDpMMb4SoSBJFk1-57" vertex="1">
          <mxGeometry x="80" width="79" height="20" as="geometry">
            <mxRectangle width="79" height="20" as="alternateBounds" />
          </mxGeometry>
        </mxCell>
        <mxCell id="lmOcfVDpMMb4SoSBJFk1-61" value="nn" style="shape=partialRectangle;overflow=hidden;connectable=0;fillColor=#eeeeee;top=0;left=0;bottom=0;right=0;align=left;spacingLeft=6;strokeColor=#36393d;" parent="lmOcfVDpMMb4SoSBJFk1-57" vertex="1">
          <mxGeometry x="159" width="31" height="20" as="geometry">
            <mxRectangle width="31" height="20" as="alternateBounds" />
          </mxGeometry>
        </mxCell>
        <mxCell id="lmOcfVDpMMb4SoSBJFk1-62" value="auto indx" style="shape=partialRectangle;overflow=hidden;connectable=0;fillColor=#eeeeee;top=0;left=0;bottom=0;right=0;align=left;spacingLeft=6;strokeColor=#36393d;" parent="lmOcfVDpMMb4SoSBJFk1-57" vertex="1">
          <mxGeometry x="190" width="70" height="20" as="geometry">
            <mxRectangle width="70" height="20" as="alternateBounds" />
          </mxGeometry>
        </mxCell>
        <mxCell id="lmOcfVDpMMb4SoSBJFk1-64" value="1" style="shape=partialRectangle;overflow=hidden;connectable=0;fillColor=#eeeeee;top=0;left=0;bottom=0;right=0;align=left;spacingLeft=6;strokeColor=#36393d;" parent="lmOcfVDpMMb4SoSBJFk1-57" vertex="1">
          <mxGeometry x="260" width="110" height="20" as="geometry">
            <mxRectangle width="110" height="20" as="alternateBounds" />
          </mxGeometry>
        </mxCell>
        <mxCell id="yEf2gbcgYrwrFwAvnMjx-95" value="회원번호" style="shape=partialRectangle;overflow=hidden;connectable=0;fillColor=#eeeeee;top=0;left=0;bottom=0;right=0;align=left;spacingLeft=6;strokeColor=#36393d;" parent="lmOcfVDpMMb4SoSBJFk1-57" vertex="1">
          <mxGeometry x="370" width="140" height="20" as="geometry">
            <mxRectangle width="140" height="20" as="alternateBounds" />
          </mxGeometry>
        </mxCell>
        <mxCell id="C-vyLk0tnHw3VtMMgP7b-27" value="" style="shape=partialRectangle;collapsible=0;dropTarget=0;pointerEvents=0;fillColor=#eeeeee;points=[[0,0.5],[1,0.5]];portConstraint=eastwest;top=0;left=0;right=0;bottom=0;strokeColor=#36393d;" parent="C-vyLk0tnHw3VtMMgP7b-23" vertex="1">
          <mxGeometry y="80" width="510" height="20" as="geometry" />
        </mxCell>
        <mxCell id="C-vyLk0tnHw3VtMMgP7b-28" value="" style="shape=partialRectangle;overflow=hidden;connectable=0;fillColor=#eeeeee;top=0;left=0;bottom=0;right=0;strokeColor=#36393d;" parent="C-vyLk0tnHw3VtMMgP7b-27" vertex="1">
          <mxGeometry width="30" height="20" as="geometry">
            <mxRectangle width="30" height="20" as="alternateBounds" />
          </mxGeometry>
        </mxCell>
        <mxCell id="C-vyLk0tnHw3VtMMgP7b-29" value="nick" style="shape=partialRectangle;overflow=hidden;connectable=0;fillColor=#eeeeee;top=0;left=0;bottom=0;right=0;align=left;spacingLeft=6;strokeColor=#36393d;" parent="C-vyLk0tnHw3VtMMgP7b-27" vertex="1">
          <mxGeometry x="30" width="50" height="20" as="geometry">
            <mxRectangle width="50" height="20" as="alternateBounds" />
          </mxGeometry>
        </mxCell>
        <mxCell id="lmOcfVDpMMb4SoSBJFk1-19" value="varchar(45)" style="shape=partialRectangle;overflow=hidden;connectable=0;fillColor=#eeeeee;top=0;left=0;bottom=0;right=0;align=left;spacingLeft=6;strokeColor=#36393d;" parent="C-vyLk0tnHw3VtMMgP7b-27" vertex="1">
          <mxGeometry x="80" width="79" height="20" as="geometry">
            <mxRectangle width="79" height="20" as="alternateBounds" />
          </mxGeometry>
        </mxCell>
        <mxCell id="lmOcfVDpMMb4SoSBJFk1-22" value="nn" style="shape=partialRectangle;overflow=hidden;connectable=0;fillColor=#eeeeee;top=0;left=0;bottom=0;right=0;align=left;spacingLeft=6;strokeColor=#36393d;" parent="C-vyLk0tnHw3VtMMgP7b-27" vertex="1">
          <mxGeometry x="159" width="31" height="20" as="geometry">
            <mxRectangle width="31" height="20" as="alternateBounds" />
          </mxGeometry>
        </mxCell>
        <mxCell id="lmOcfVDpMMb4SoSBJFk1-24" value="-" style="shape=partialRectangle;overflow=hidden;connectable=0;fillColor=#eeeeee;top=0;left=0;bottom=0;right=0;align=left;spacingLeft=6;strokeColor=#36393d;" parent="C-vyLk0tnHw3VtMMgP7b-27" vertex="1">
          <mxGeometry x="190" width="70" height="20" as="geometry">
            <mxRectangle width="70" height="20" as="alternateBounds" />
          </mxGeometry>
        </mxCell>
        <mxCell id="lmOcfVDpMMb4SoSBJFk1-65" value="harry" style="shape=partialRectangle;overflow=hidden;connectable=0;fillColor=#eeeeee;top=0;left=0;bottom=0;right=0;align=left;spacingLeft=6;strokeColor=#36393d;" parent="C-vyLk0tnHw3VtMMgP7b-27" vertex="1">
          <mxGeometry x="260" width="110" height="20" as="geometry">
            <mxRectangle width="110" height="20" as="alternateBounds" />
          </mxGeometry>
        </mxCell>
        <mxCell id="yEf2gbcgYrwrFwAvnMjx-96" value="닉네임" style="shape=partialRectangle;overflow=hidden;connectable=0;fillColor=#eeeeee;top=0;left=0;bottom=0;right=0;align=left;spacingLeft=6;strokeColor=#36393d;" parent="C-vyLk0tnHw3VtMMgP7b-27" vertex="1">
          <mxGeometry x="370" width="140" height="20" as="geometry">
            <mxRectangle width="140" height="20" as="alternateBounds" />
          </mxGeometry>
        </mxCell>
        <mxCell id="lmOcfVDpMMb4SoSBJFk1-25" style="shape=partialRectangle;collapsible=0;dropTarget=0;pointerEvents=0;fillColor=#eeeeee;points=[[0,0.5],[1,0.5]];portConstraint=eastwest;top=0;left=0;right=0;bottom=0;strokeColor=#36393d;" parent="C-vyLk0tnHw3VtMMgP7b-23" vertex="1">
          <mxGeometry y="100" width="510" height="20" as="geometry" />
        </mxCell>
        <mxCell id="lmOcfVDpMMb4SoSBJFk1-26" style="shape=partialRectangle;overflow=hidden;connectable=0;fillColor=#eeeeee;top=0;left=0;bottom=0;right=0;strokeColor=#36393d;" parent="lmOcfVDpMMb4SoSBJFk1-25" vertex="1">
          <mxGeometry width="30" height="20" as="geometry">
            <mxRectangle width="30" height="20" as="alternateBounds" />
          </mxGeometry>
        </mxCell>
        <mxCell id="lmOcfVDpMMb4SoSBJFk1-27" value="email" style="shape=partialRectangle;overflow=hidden;connectable=0;fillColor=#eeeeee;top=0;left=0;bottom=0;right=0;align=left;spacingLeft=6;strokeColor=#36393d;" parent="lmOcfVDpMMb4SoSBJFk1-25" vertex="1">
          <mxGeometry x="30" width="50" height="20" as="geometry">
            <mxRectangle width="50" height="20" as="alternateBounds" />
          </mxGeometry>
        </mxCell>
        <mxCell id="lmOcfVDpMMb4SoSBJFk1-28" value="varchar(45)" style="shape=partialRectangle;overflow=hidden;connectable=0;fillColor=#eeeeee;top=0;left=0;bottom=0;right=0;align=left;spacingLeft=6;strokeColor=#36393d;" parent="lmOcfVDpMMb4SoSBJFk1-25" vertex="1">
          <mxGeometry x="80" width="79" height="20" as="geometry">
            <mxRectangle width="79" height="20" as="alternateBounds" />
          </mxGeometry>
        </mxCell>
        <mxCell id="lmOcfVDpMMb4SoSBJFk1-29" value="nn" style="shape=partialRectangle;overflow=hidden;connectable=0;fillColor=#eeeeee;top=0;left=0;bottom=0;right=0;align=left;spacingLeft=6;strokeColor=#36393d;" parent="lmOcfVDpMMb4SoSBJFk1-25" vertex="1">
          <mxGeometry x="159" width="31" height="20" as="geometry">
            <mxRectangle width="31" height="20" as="alternateBounds" />
          </mxGeometry>
        </mxCell>
        <mxCell id="lmOcfVDpMMb4SoSBJFk1-30" value="-" style="shape=partialRectangle;overflow=hidden;connectable=0;fillColor=#eeeeee;top=0;left=0;bottom=0;right=0;align=left;spacingLeft=6;strokeColor=#36393d;" parent="lmOcfVDpMMb4SoSBJFk1-25" vertex="1">
          <mxGeometry x="190" width="70" height="20" as="geometry">
            <mxRectangle width="70" height="20" as="alternateBounds" />
          </mxGeometry>
        </mxCell>
        <mxCell id="lmOcfVDpMMb4SoSBJFk1-66" value="harry@naver.com" style="shape=partialRectangle;overflow=hidden;connectable=0;fillColor=#eeeeee;top=0;left=0;bottom=0;right=0;align=left;spacingLeft=6;strokeColor=#36393d;" parent="lmOcfVDpMMb4SoSBJFk1-25" vertex="1">
          <mxGeometry x="260" width="110" height="20" as="geometry">
            <mxRectangle width="110" height="20" as="alternateBounds" />
          </mxGeometry>
        </mxCell>
        <mxCell id="yEf2gbcgYrwrFwAvnMjx-97" value="이메일" style="shape=partialRectangle;overflow=hidden;connectable=0;fillColor=#eeeeee;top=0;left=0;bottom=0;right=0;align=left;spacingLeft=6;strokeColor=#36393d;" parent="lmOcfVDpMMb4SoSBJFk1-25" vertex="1">
          <mxGeometry x="370" width="140" height="20" as="geometry">
            <mxRectangle width="140" height="20" as="alternateBounds" />
          </mxGeometry>
        </mxCell>
        <mxCell id="lmOcfVDpMMb4SoSBJFk1-45" style="shape=partialRectangle;collapsible=0;dropTarget=0;pointerEvents=0;fillColor=#eeeeee;points=[[0,0.5],[1,0.5]];portConstraint=eastwest;top=0;left=0;right=0;bottom=0;strokeColor=#36393d;" parent="C-vyLk0tnHw3VtMMgP7b-23" vertex="1">
          <mxGeometry y="120" width="510" height="20" as="geometry" />
        </mxCell>
        <mxCell id="lmOcfVDpMMb4SoSBJFk1-46" style="shape=partialRectangle;overflow=hidden;connectable=0;fillColor=#eeeeee;top=0;left=0;bottom=0;right=0;strokeColor=#36393d;" parent="lmOcfVDpMMb4SoSBJFk1-45" vertex="1">
          <mxGeometry width="30" height="20" as="geometry">
            <mxRectangle width="30" height="20" as="alternateBounds" />
          </mxGeometry>
        </mxCell>
        <mxCell id="lmOcfVDpMMb4SoSBJFk1-47" value="pw " style="shape=partialRectangle;overflow=hidden;connectable=0;fillColor=#eeeeee;top=0;left=0;bottom=0;right=0;align=left;spacingLeft=6;strokeColor=#36393d;" parent="lmOcfVDpMMb4SoSBJFk1-45" vertex="1">
          <mxGeometry x="30" width="50" height="20" as="geometry">
            <mxRectangle width="50" height="20" as="alternateBounds" />
          </mxGeometry>
        </mxCell>
        <mxCell id="lmOcfVDpMMb4SoSBJFk1-48" value="varchar(45)" style="shape=partialRectangle;overflow=hidden;connectable=0;fillColor=#eeeeee;top=0;left=0;bottom=0;right=0;align=left;spacingLeft=6;strokeColor=#36393d;" parent="lmOcfVDpMMb4SoSBJFk1-45" vertex="1">
          <mxGeometry x="80" width="79" height="20" as="geometry">
            <mxRectangle width="79" height="20" as="alternateBounds" />
          </mxGeometry>
        </mxCell>
        <mxCell id="lmOcfVDpMMb4SoSBJFk1-49" value="nn" style="shape=partialRectangle;overflow=hidden;connectable=0;fillColor=#eeeeee;top=0;left=0;bottom=0;right=0;align=left;spacingLeft=6;strokeColor=#36393d;" parent="lmOcfVDpMMb4SoSBJFk1-45" vertex="1">
          <mxGeometry x="159" width="31" height="20" as="geometry">
            <mxRectangle width="31" height="20" as="alternateBounds" />
          </mxGeometry>
        </mxCell>
        <mxCell id="lmOcfVDpMMb4SoSBJFk1-50" value="-" style="shape=partialRectangle;overflow=hidden;connectable=0;fillColor=#eeeeee;top=0;left=0;bottom=0;right=0;align=left;spacingLeft=6;strokeColor=#36393d;" parent="lmOcfVDpMMb4SoSBJFk1-45" vertex="1">
          <mxGeometry x="190" width="70" height="20" as="geometry">
            <mxRectangle width="70" height="20" as="alternateBounds" />
          </mxGeometry>
        </mxCell>
        <mxCell id="lmOcfVDpMMb4SoSBJFk1-67" value="1234" style="shape=partialRectangle;overflow=hidden;connectable=0;fillColor=#eeeeee;top=0;left=0;bottom=0;right=0;align=left;spacingLeft=6;strokeColor=#36393d;" parent="lmOcfVDpMMb4SoSBJFk1-45" vertex="1">
          <mxGeometry x="260" width="110" height="20" as="geometry">
            <mxRectangle width="110" height="20" as="alternateBounds" />
          </mxGeometry>
        </mxCell>
        <mxCell id="yEf2gbcgYrwrFwAvnMjx-98" value="패스워드" style="shape=partialRectangle;overflow=hidden;connectable=0;fillColor=#eeeeee;top=0;left=0;bottom=0;right=0;align=left;spacingLeft=6;strokeColor=#36393d;" parent="lmOcfVDpMMb4SoSBJFk1-45" vertex="1">
          <mxGeometry x="370" width="140" height="20" as="geometry">
            <mxRectangle width="140" height="20" as="alternateBounds" />
          </mxGeometry>
        </mxCell>
        <mxCell id="lmOcfVDpMMb4SoSBJFk1-39" style="shape=partialRectangle;collapsible=0;dropTarget=0;pointerEvents=0;fillColor=#eeeeee;points=[[0,0.5],[1,0.5]];portConstraint=eastwest;top=0;left=0;right=0;bottom=0;strokeColor=#36393d;" parent="C-vyLk0tnHw3VtMMgP7b-23" vertex="1">
          <mxGeometry y="140" width="510" height="20" as="geometry" />
        </mxCell>
        <mxCell id="lmOcfVDpMMb4SoSBJFk1-40" style="shape=partialRectangle;overflow=hidden;connectable=0;fillColor=#eeeeee;top=0;left=0;bottom=0;right=0;strokeColor=#36393d;" parent="lmOcfVDpMMb4SoSBJFk1-39" vertex="1">
          <mxGeometry width="30" height="20" as="geometry">
            <mxRectangle width="30" height="20" as="alternateBounds" />
          </mxGeometry>
        </mxCell>
        <mxCell id="lmOcfVDpMMb4SoSBJFk1-41" value="auth" style="shape=partialRectangle;overflow=hidden;connectable=0;fillColor=#eeeeee;top=0;left=0;bottom=0;right=0;align=left;spacingLeft=6;strokeColor=#36393d;" parent="lmOcfVDpMMb4SoSBJFk1-39" vertex="1">
          <mxGeometry x="30" width="50" height="20" as="geometry">
            <mxRectangle width="50" height="20" as="alternateBounds" />
          </mxGeometry>
        </mxCell>
        <mxCell id="lmOcfVDpMMb4SoSBJFk1-42" value="tinyint(1)" style="shape=partialRectangle;overflow=hidden;connectable=0;fillColor=#eeeeee;top=0;left=0;bottom=0;right=0;align=left;spacingLeft=6;strokeColor=#36393d;" parent="lmOcfVDpMMb4SoSBJFk1-39" vertex="1">
          <mxGeometry x="80" width="79" height="20" as="geometry">
            <mxRectangle width="79" height="20" as="alternateBounds" />
          </mxGeometry>
        </mxCell>
        <mxCell id="lmOcfVDpMMb4SoSBJFk1-43" value="nn" style="shape=partialRectangle;overflow=hidden;connectable=0;fillColor=#eeeeee;top=0;left=0;bottom=0;right=0;align=left;spacingLeft=6;strokeColor=#36393d;" parent="lmOcfVDpMMb4SoSBJFk1-39" vertex="1">
          <mxGeometry x="159" width="31" height="20" as="geometry">
            <mxRectangle width="31" height="20" as="alternateBounds" />
          </mxGeometry>
        </mxCell>
        <mxCell id="lmOcfVDpMMb4SoSBJFk1-44" value="0" style="shape=partialRectangle;overflow=hidden;connectable=0;fillColor=#eeeeee;top=0;left=0;bottom=0;right=0;align=left;spacingLeft=6;strokeColor=#36393d;" parent="lmOcfVDpMMb4SoSBJFk1-39" vertex="1">
          <mxGeometry x="190" width="70" height="20" as="geometry">
            <mxRectangle width="70" height="20" as="alternateBounds" />
          </mxGeometry>
        </mxCell>
        <mxCell id="lmOcfVDpMMb4SoSBJFk1-68" value="1" style="shape=partialRectangle;overflow=hidden;connectable=0;fillColor=#eeeeee;top=0;left=0;bottom=0;right=0;align=left;spacingLeft=6;strokeColor=#36393d;" parent="lmOcfVDpMMb4SoSBJFk1-39" vertex="1">
          <mxGeometry x="260" width="110" height="20" as="geometry">
            <mxRectangle width="110" height="20" as="alternateBounds" />
          </mxGeometry>
        </mxCell>
        <mxCell id="yEf2gbcgYrwrFwAvnMjx-99" value="이메일 인증 여부" style="shape=partialRectangle;overflow=hidden;connectable=0;fillColor=#eeeeee;top=0;left=0;bottom=0;right=0;align=left;spacingLeft=6;strokeColor=#36393d;" parent="lmOcfVDpMMb4SoSBJFk1-39" vertex="1">
          <mxGeometry x="370" width="140" height="20" as="geometry">
            <mxRectangle width="140" height="20" as="alternateBounds" />
          </mxGeometry>
        </mxCell>
        <mxCell id="lmOcfVDpMMb4SoSBJFk1-33" style="shape=partialRectangle;collapsible=0;dropTarget=0;pointerEvents=0;fillColor=#eeeeee;points=[[0,0.5],[1,0.5]];portConstraint=eastwest;top=0;left=0;right=0;bottom=0;strokeColor=#36393d;" parent="C-vyLk0tnHw3VtMMgP7b-23" vertex="1">
          <mxGeometry y="160" width="510" height="20" as="geometry" />
        </mxCell>
        <mxCell id="lmOcfVDpMMb4SoSBJFk1-34" style="shape=partialRectangle;overflow=hidden;connectable=0;fillColor=#eeeeee;top=0;left=0;bottom=0;right=0;strokeColor=#36393d;" parent="lmOcfVDpMMb4SoSBJFk1-33" vertex="1">
          <mxGeometry width="30" height="20" as="geometry">
            <mxRectangle width="30" height="20" as="alternateBounds" />
          </mxGeometry>
        </mxCell>
        <mxCell id="lmOcfVDpMMb4SoSBJFk1-35" value="date" style="shape=partialRectangle;overflow=hidden;connectable=0;fillColor=#eeeeee;top=0;left=0;bottom=0;right=0;align=left;spacingLeft=6;strokeColor=#36393d;" parent="lmOcfVDpMMb4SoSBJFk1-33" vertex="1">
          <mxGeometry x="30" width="50" height="20" as="geometry">
            <mxRectangle width="50" height="20" as="alternateBounds" />
          </mxGeometry>
        </mxCell>
        <mxCell id="lmOcfVDpMMb4SoSBJFk1-36" value="timestamp" style="shape=partialRectangle;overflow=hidden;connectable=0;fillColor=#eeeeee;top=0;left=0;bottom=0;right=0;align=left;spacingLeft=6;strokeColor=#36393d;" parent="lmOcfVDpMMb4SoSBJFk1-33" vertex="1">
          <mxGeometry x="80" width="79" height="20" as="geometry">
            <mxRectangle width="79" height="20" as="alternateBounds" />
          </mxGeometry>
        </mxCell>
        <mxCell id="lmOcfVDpMMb4SoSBJFk1-37" value="nn" style="shape=partialRectangle;overflow=hidden;connectable=0;fillColor=#eeeeee;top=0;left=0;bottom=0;right=0;align=left;spacingLeft=6;strokeColor=#36393d;" parent="lmOcfVDpMMb4SoSBJFk1-33" vertex="1">
          <mxGeometry x="159" width="31" height="20" as="geometry">
            <mxRectangle width="31" height="20" as="alternateBounds" />
          </mxGeometry>
        </mxCell>
        <mxCell id="lmOcfVDpMMb4SoSBJFk1-38" value="now()" style="shape=partialRectangle;overflow=hidden;connectable=0;fillColor=#eeeeee;top=0;left=0;bottom=0;right=0;align=left;spacingLeft=6;strokeColor=#36393d;" parent="lmOcfVDpMMb4SoSBJFk1-33" vertex="1">
          <mxGeometry x="190" width="70" height="20" as="geometry">
            <mxRectangle width="70" height="20" as="alternateBounds" />
          </mxGeometry>
        </mxCell>
        <mxCell id="lmOcfVDpMMb4SoSBJFk1-69" value="2022-10-17 11:13:46" style="shape=partialRectangle;overflow=hidden;connectable=0;fillColor=#eeeeee;top=0;left=0;bottom=0;right=0;align=left;spacingLeft=6;strokeColor=#36393d;" parent="lmOcfVDpMMb4SoSBJFk1-33" vertex="1">
          <mxGeometry x="260" width="110" height="20" as="geometry">
            <mxRectangle width="110" height="20" as="alternateBounds" />
          </mxGeometry>
        </mxCell>
        <mxCell id="yEf2gbcgYrwrFwAvnMjx-100" value="가입일" style="shape=partialRectangle;overflow=hidden;connectable=0;fillColor=#eeeeee;top=0;left=0;bottom=0;right=0;align=left;spacingLeft=6;strokeColor=#36393d;" parent="lmOcfVDpMMb4SoSBJFk1-33" vertex="1">
          <mxGeometry x="370" width="140" height="20" as="geometry">
            <mxRectangle width="140" height="20" as="alternateBounds" />
          </mxGeometry>
        </mxCell>
        <mxCell id="yEf2gbcgYrwrFwAvnMjx-418" style="shape=partialRectangle;collapsible=0;dropTarget=0;pointerEvents=0;fillColor=#eeeeee;points=[[0,0.5],[1,0.5]];portConstraint=eastwest;top=0;left=0;right=0;bottom=0;strokeColor=#36393d;" parent="C-vyLk0tnHw3VtMMgP7b-23" vertex="1">
          <mxGeometry y="180" width="510" height="20" as="geometry" />
        </mxCell>
        <mxCell id="yEf2gbcgYrwrFwAvnMjx-419" style="shape=partialRectangle;overflow=hidden;connectable=0;fillColor=#eeeeee;top=0;left=0;bottom=0;right=0;strokeColor=#36393d;" parent="yEf2gbcgYrwrFwAvnMjx-418" vertex="1">
          <mxGeometry width="30" height="20" as="geometry">
            <mxRectangle width="30" height="20" as="alternateBounds" />
          </mxGeometry>
        </mxCell>
        <mxCell id="yEf2gbcgYrwrFwAvnMjx-420" value="img" style="shape=partialRectangle;overflow=hidden;connectable=0;fillColor=#eeeeee;top=0;left=0;bottom=0;right=0;align=left;spacingLeft=6;strokeColor=#36393d;" parent="yEf2gbcgYrwrFwAvnMjx-418" vertex="1">
          <mxGeometry x="30" width="50" height="20" as="geometry">
            <mxRectangle width="50" height="20" as="alternateBounds" />
          </mxGeometry>
        </mxCell>
        <mxCell id="yEf2gbcgYrwrFwAvnMjx-421" value="varchar(45)" style="shape=partialRectangle;overflow=hidden;connectable=0;fillColor=#eeeeee;top=0;left=0;bottom=0;right=0;align=left;spacingLeft=6;strokeColor=#36393d;" parent="yEf2gbcgYrwrFwAvnMjx-418" vertex="1">
          <mxGeometry x="80" width="79" height="20" as="geometry">
            <mxRectangle width="79" height="20" as="alternateBounds" />
          </mxGeometry>
        </mxCell>
        <mxCell id="yEf2gbcgYrwrFwAvnMjx-422" value="-" style="shape=partialRectangle;overflow=hidden;connectable=0;fillColor=#eeeeee;top=0;left=0;bottom=0;right=0;align=left;spacingLeft=6;strokeColor=#36393d;" parent="yEf2gbcgYrwrFwAvnMjx-418" vertex="1">
          <mxGeometry x="159" width="31" height="20" as="geometry">
            <mxRectangle width="31" height="20" as="alternateBounds" />
          </mxGeometry>
        </mxCell>
        <mxCell id="yEf2gbcgYrwrFwAvnMjx-423" value="-" style="shape=partialRectangle;overflow=hidden;connectable=0;fillColor=#eeeeee;top=0;left=0;bottom=0;right=0;align=left;spacingLeft=6;strokeColor=#36393d;" parent="yEf2gbcgYrwrFwAvnMjx-418" vertex="1">
          <mxGeometry x="190" width="70" height="20" as="geometry">
            <mxRectangle width="70" height="20" as="alternateBounds" />
          </mxGeometry>
        </mxCell>
        <mxCell id="yEf2gbcgYrwrFwAvnMjx-424" value="src/img/pro/img.jpg" style="shape=partialRectangle;overflow=hidden;connectable=0;fillColor=#eeeeee;top=0;left=0;bottom=0;right=0;align=left;spacingLeft=6;strokeColor=#36393d;" parent="yEf2gbcgYrwrFwAvnMjx-418" vertex="1">
          <mxGeometry x="260" width="110" height="20" as="geometry">
            <mxRectangle width="110" height="20" as="alternateBounds" />
          </mxGeometry>
        </mxCell>
        <mxCell id="yEf2gbcgYrwrFwAvnMjx-425" value="프로필 이미지 주소" style="shape=partialRectangle;overflow=hidden;connectable=0;fillColor=#eeeeee;top=0;left=0;bottom=0;right=0;align=left;spacingLeft=6;strokeColor=#36393d;" parent="yEf2gbcgYrwrFwAvnMjx-418" vertex="1">
          <mxGeometry x="370" width="140" height="20" as="geometry">
            <mxRectangle width="140" height="20" as="alternateBounds" />
          </mxGeometry>
        </mxCell>
        <object label="REPO(저장소)" idx="" id="yEf2gbcgYrwrFwAvnMjx-303">
          <mxCell style="shape=table;startSize=30;container=1;collapsible=1;childLayout=tableLayout;fixedRows=1;rowLines=0;fontStyle=1;align=center;resizeLast=1;fillColor=#cce5ff;strokeColor=#36393d;fontSize=18;" parent="1" vertex="1">
            <mxGeometry x="-1230" y="-970" width="520" height="190" as="geometry" />
          </mxCell>
        </object>
        <mxCell id="yEf2gbcgYrwrFwAvnMjx-304" value="" style="shape=partialRectangle;collapsible=0;dropTarget=0;pointerEvents=0;fillColor=#eeeeee;points=[[0,0.5],[1,0.5]];portConstraint=eastwest;top=0;left=0;right=0;bottom=1;strokeColor=#36393d;" parent="yEf2gbcgYrwrFwAvnMjx-303" vertex="1">
          <mxGeometry y="30" width="520" height="30" as="geometry" />
        </mxCell>
        <mxCell id="yEf2gbcgYrwrFwAvnMjx-305" value="KEY" style="shape=partialRectangle;overflow=hidden;connectable=0;fillColor=#eeeeee;top=0;left=0;bottom=0;right=0;fontStyle=1;strokeColor=#36393d;" parent="yEf2gbcgYrwrFwAvnMjx-304" vertex="1">
          <mxGeometry width="30" height="30" as="geometry">
            <mxRectangle width="30" height="30" as="alternateBounds" />
          </mxGeometry>
        </mxCell>
        <mxCell id="yEf2gbcgYrwrFwAvnMjx-306" value="ATT" style="shape=partialRectangle;overflow=hidden;connectable=0;fillColor=#eeeeee;top=0;left=0;bottom=0;right=0;align=left;spacingLeft=6;fontStyle=5;strokeColor=#36393d;" parent="yEf2gbcgYrwrFwAvnMjx-304" vertex="1">
          <mxGeometry x="30" width="70" height="30" as="geometry">
            <mxRectangle width="70" height="30" as="alternateBounds" />
          </mxGeometry>
        </mxCell>
        <mxCell id="yEf2gbcgYrwrFwAvnMjx-307" value="DATA" style="shape=partialRectangle;overflow=hidden;connectable=0;fillColor=#eeeeee;top=0;left=0;bottom=0;right=0;align=left;spacingLeft=6;fontStyle=5;strokeColor=#36393d;" parent="yEf2gbcgYrwrFwAvnMjx-304" vertex="1">
          <mxGeometry x="100" width="70" height="30" as="geometry">
            <mxRectangle width="70" height="30" as="alternateBounds" />
          </mxGeometry>
        </mxCell>
        <mxCell id="yEf2gbcgYrwrFwAvnMjx-308" value="NN" style="shape=partialRectangle;overflow=hidden;connectable=0;fillColor=#eeeeee;top=0;left=0;bottom=0;right=0;align=left;spacingLeft=6;fontStyle=5;strokeColor=#36393d;" parent="yEf2gbcgYrwrFwAvnMjx-304" vertex="1">
          <mxGeometry x="170" width="30" height="30" as="geometry">
            <mxRectangle width="30" height="30" as="alternateBounds" />
          </mxGeometry>
        </mxCell>
        <mxCell id="yEf2gbcgYrwrFwAvnMjx-309" value="DEFAULT" style="shape=partialRectangle;overflow=hidden;connectable=0;fillColor=#eeeeee;top=0;left=0;bottom=0;right=0;align=left;spacingLeft=6;fontStyle=5;strokeColor=#36393d;" parent="yEf2gbcgYrwrFwAvnMjx-304" vertex="1">
          <mxGeometry x="200" width="60" height="30" as="geometry">
            <mxRectangle width="60" height="30" as="alternateBounds" />
          </mxGeometry>
        </mxCell>
        <mxCell id="yEf2gbcgYrwrFwAvnMjx-310" value="EX" style="shape=partialRectangle;overflow=hidden;connectable=0;fillColor=#eeeeee;top=0;left=0;bottom=0;right=0;align=left;spacingLeft=6;fontStyle=5;strokeColor=#36393d;" parent="yEf2gbcgYrwrFwAvnMjx-304" vertex="1">
          <mxGeometry x="260" width="60" height="30" as="geometry">
            <mxRectangle width="60" height="30" as="alternateBounds" />
          </mxGeometry>
        </mxCell>
        <mxCell id="yEf2gbcgYrwrFwAvnMjx-311" value="설명" style="shape=partialRectangle;overflow=hidden;connectable=0;fillColor=#eeeeee;top=0;left=0;bottom=0;right=0;align=left;spacingLeft=6;fontStyle=5;strokeColor=#36393d;" parent="yEf2gbcgYrwrFwAvnMjx-304" vertex="1">
          <mxGeometry x="320" width="200" height="30" as="geometry">
            <mxRectangle width="200" height="30" as="alternateBounds" />
          </mxGeometry>
        </mxCell>
        <mxCell id="yEf2gbcgYrwrFwAvnMjx-312" style="shape=partialRectangle;collapsible=0;dropTarget=0;pointerEvents=0;fillColor=#eeeeee;points=[[0,0.5],[1,0.5]];portConstraint=eastwest;top=0;left=0;right=0;bottom=0;strokeColor=#36393d;" parent="yEf2gbcgYrwrFwAvnMjx-303" vertex="1">
          <mxGeometry y="60" width="520" height="20" as="geometry" />
        </mxCell>
        <mxCell id="yEf2gbcgYrwrFwAvnMjx-313" value="pk" style="shape=partialRectangle;overflow=hidden;connectable=0;fillColor=#eeeeee;top=0;left=0;bottom=0;right=0;strokeColor=#36393d;" parent="yEf2gbcgYrwrFwAvnMjx-312" vertex="1">
          <mxGeometry width="30" height="20" as="geometry">
            <mxRectangle width="30" height="20" as="alternateBounds" />
          </mxGeometry>
        </mxCell>
        <mxCell id="yEf2gbcgYrwrFwAvnMjx-314" value="idx" style="shape=partialRectangle;overflow=hidden;connectable=0;fillColor=#eeeeee;top=0;left=0;bottom=0;right=0;align=left;spacingLeft=6;strokeColor=#36393d;" parent="yEf2gbcgYrwrFwAvnMjx-312" vertex="1">
          <mxGeometry x="30" width="70" height="20" as="geometry">
            <mxRectangle width="70" height="20" as="alternateBounds" />
          </mxGeometry>
        </mxCell>
        <mxCell id="yEf2gbcgYrwrFwAvnMjx-315" value="int" style="shape=partialRectangle;overflow=hidden;connectable=0;fillColor=#eeeeee;top=0;left=0;bottom=0;right=0;align=left;spacingLeft=6;strokeColor=#36393d;" parent="yEf2gbcgYrwrFwAvnMjx-312" vertex="1">
          <mxGeometry x="100" width="70" height="20" as="geometry">
            <mxRectangle width="70" height="20" as="alternateBounds" />
          </mxGeometry>
        </mxCell>
        <mxCell id="yEf2gbcgYrwrFwAvnMjx-316" value="nn" style="shape=partialRectangle;overflow=hidden;connectable=0;fillColor=#eeeeee;top=0;left=0;bottom=0;right=0;align=left;spacingLeft=6;strokeColor=#36393d;" parent="yEf2gbcgYrwrFwAvnMjx-312" vertex="1">
          <mxGeometry x="170" width="30" height="20" as="geometry">
            <mxRectangle width="30" height="20" as="alternateBounds" />
          </mxGeometry>
        </mxCell>
        <mxCell id="yEf2gbcgYrwrFwAvnMjx-317" value="auto indx" style="shape=partialRectangle;overflow=hidden;connectable=0;fillColor=#eeeeee;top=0;left=0;bottom=0;right=0;align=left;spacingLeft=6;strokeColor=#36393d;" parent="yEf2gbcgYrwrFwAvnMjx-312" vertex="1">
          <mxGeometry x="200" width="60" height="20" as="geometry">
            <mxRectangle width="60" height="20" as="alternateBounds" />
          </mxGeometry>
        </mxCell>
        <mxCell id="yEf2gbcgYrwrFwAvnMjx-318" value="1" style="shape=partialRectangle;overflow=hidden;connectable=0;fillColor=#eeeeee;top=0;left=0;bottom=0;right=0;align=left;spacingLeft=6;strokeColor=#36393d;" parent="yEf2gbcgYrwrFwAvnMjx-312" vertex="1">
          <mxGeometry x="260" width="60" height="20" as="geometry">
            <mxRectangle width="60" height="20" as="alternateBounds" />
          </mxGeometry>
        </mxCell>
        <mxCell id="yEf2gbcgYrwrFwAvnMjx-319" value="저장소번호" style="shape=partialRectangle;overflow=hidden;connectable=0;fillColor=#eeeeee;top=0;left=0;bottom=0;right=0;align=left;spacingLeft=6;strokeColor=#36393d;" parent="yEf2gbcgYrwrFwAvnMjx-312" vertex="1">
          <mxGeometry x="320" width="200" height="20" as="geometry">
            <mxRectangle width="200" height="20" as="alternateBounds" />
          </mxGeometry>
        </mxCell>
        <mxCell id="yEf2gbcgYrwrFwAvnMjx-328" style="shape=partialRectangle;collapsible=0;dropTarget=0;pointerEvents=0;fillColor=#eeeeee;points=[[0,0.5],[1,0.5]];portConstraint=eastwest;top=0;left=0;right=0;bottom=0;strokeColor=#36393d;" parent="yEf2gbcgYrwrFwAvnMjx-303" vertex="1">
          <mxGeometry y="80" width="520" height="20" as="geometry" />
        </mxCell>
        <mxCell id="yEf2gbcgYrwrFwAvnMjx-329" style="shape=partialRectangle;overflow=hidden;connectable=0;fillColor=#eeeeee;top=0;left=0;bottom=0;right=0;strokeColor=#36393d;" parent="yEf2gbcgYrwrFwAvnMjx-328" vertex="1">
          <mxGeometry width="30" height="20" as="geometry">
            <mxRectangle width="30" height="20" as="alternateBounds" />
          </mxGeometry>
        </mxCell>
        <mxCell id="yEf2gbcgYrwrFwAvnMjx-330" value="name" style="shape=partialRectangle;overflow=hidden;connectable=0;fillColor=#eeeeee;top=0;left=0;bottom=0;right=0;align=left;spacingLeft=6;strokeColor=#36393d;" parent="yEf2gbcgYrwrFwAvnMjx-328" vertex="1">
          <mxGeometry x="30" width="70" height="20" as="geometry">
            <mxRectangle width="70" height="20" as="alternateBounds" />
          </mxGeometry>
        </mxCell>
        <mxCell id="yEf2gbcgYrwrFwAvnMjx-331" value="varchar(45)" style="shape=partialRectangle;overflow=hidden;connectable=0;fillColor=#eeeeee;top=0;left=0;bottom=0;right=0;align=left;spacingLeft=6;strokeColor=#36393d;" parent="yEf2gbcgYrwrFwAvnMjx-328" vertex="1">
          <mxGeometry x="100" width="70" height="20" as="geometry">
            <mxRectangle width="70" height="20" as="alternateBounds" />
          </mxGeometry>
        </mxCell>
        <mxCell id="yEf2gbcgYrwrFwAvnMjx-332" value="nn" style="shape=partialRectangle;overflow=hidden;connectable=0;fillColor=#eeeeee;top=0;left=0;bottom=0;right=0;align=left;spacingLeft=6;strokeColor=#36393d;" parent="yEf2gbcgYrwrFwAvnMjx-328" vertex="1">
          <mxGeometry x="170" width="30" height="20" as="geometry">
            <mxRectangle width="30" height="20" as="alternateBounds" />
          </mxGeometry>
        </mxCell>
        <mxCell id="yEf2gbcgYrwrFwAvnMjx-333" value="-" style="shape=partialRectangle;overflow=hidden;connectable=0;fillColor=#eeeeee;top=0;left=0;bottom=0;right=0;align=left;spacingLeft=6;strokeColor=#36393d;" parent="yEf2gbcgYrwrFwAvnMjx-328" vertex="1">
          <mxGeometry x="200" width="60" height="20" as="geometry">
            <mxRectangle width="60" height="20" as="alternateBounds" />
          </mxGeometry>
        </mxCell>
        <mxCell id="yEf2gbcgYrwrFwAvnMjx-334" value="JavaStudy" style="shape=partialRectangle;overflow=hidden;connectable=0;fillColor=#eeeeee;top=0;left=0;bottom=0;right=0;align=left;spacingLeft=6;strokeColor=#36393d;" parent="yEf2gbcgYrwrFwAvnMjx-328" vertex="1">
          <mxGeometry x="260" width="60" height="20" as="geometry">
            <mxRectangle width="60" height="20" as="alternateBounds" />
          </mxGeometry>
        </mxCell>
        <mxCell id="yEf2gbcgYrwrFwAvnMjx-335" value="repository 이름" style="shape=partialRectangle;overflow=hidden;connectable=0;fillColor=#eeeeee;top=0;left=0;bottom=0;right=0;align=left;spacingLeft=6;strokeColor=#36393d;" parent="yEf2gbcgYrwrFwAvnMjx-328" vertex="1">
          <mxGeometry x="320" width="200" height="20" as="geometry">
            <mxRectangle width="200" height="20" as="alternateBounds" />
          </mxGeometry>
        </mxCell>
        <mxCell id="yEf2gbcgYrwrFwAvnMjx-352" style="shape=partialRectangle;collapsible=0;dropTarget=0;pointerEvents=0;fillColor=#eeeeee;points=[[0,0.5],[1,0.5]];portConstraint=eastwest;top=0;left=0;right=0;bottom=0;strokeColor=#36393d;" parent="yEf2gbcgYrwrFwAvnMjx-303" vertex="1">
          <mxGeometry y="100" width="520" height="20" as="geometry" />
        </mxCell>
        <mxCell id="yEf2gbcgYrwrFwAvnMjx-353" style="shape=partialRectangle;overflow=hidden;connectable=0;fillColor=#eeeeee;top=0;left=0;bottom=0;right=0;strokeColor=#36393d;" parent="yEf2gbcgYrwrFwAvnMjx-352" vertex="1">
          <mxGeometry width="30" height="20" as="geometry">
            <mxRectangle width="30" height="20" as="alternateBounds" />
          </mxGeometry>
        </mxCell>
        <mxCell id="yEf2gbcgYrwrFwAvnMjx-354" value="createDate" style="shape=partialRectangle;overflow=hidden;connectable=0;fillColor=#eeeeee;top=0;left=0;bottom=0;right=0;align=left;spacingLeft=6;strokeColor=#36393d;" parent="yEf2gbcgYrwrFwAvnMjx-352" vertex="1">
          <mxGeometry x="30" width="70" height="20" as="geometry">
            <mxRectangle width="70" height="20" as="alternateBounds" />
          </mxGeometry>
        </mxCell>
        <mxCell id="yEf2gbcgYrwrFwAvnMjx-355" value="timestamp" style="shape=partialRectangle;overflow=hidden;connectable=0;fillColor=#eeeeee;top=0;left=0;bottom=0;right=0;align=left;spacingLeft=6;strokeColor=#36393d;" parent="yEf2gbcgYrwrFwAvnMjx-352" vertex="1">
          <mxGeometry x="100" width="70" height="20" as="geometry">
            <mxRectangle width="70" height="20" as="alternateBounds" />
          </mxGeometry>
        </mxCell>
        <mxCell id="yEf2gbcgYrwrFwAvnMjx-356" value="nn" style="shape=partialRectangle;overflow=hidden;connectable=0;fillColor=#eeeeee;top=0;left=0;bottom=0;right=0;align=left;spacingLeft=6;strokeColor=#36393d;" parent="yEf2gbcgYrwrFwAvnMjx-352" vertex="1">
          <mxGeometry x="170" width="30" height="20" as="geometry">
            <mxRectangle width="30" height="20" as="alternateBounds" />
          </mxGeometry>
        </mxCell>
        <mxCell id="yEf2gbcgYrwrFwAvnMjx-357" value="now()" style="shape=partialRectangle;overflow=hidden;connectable=0;fillColor=#eeeeee;top=0;left=0;bottom=0;right=0;align=left;spacingLeft=6;strokeColor=#36393d;" parent="yEf2gbcgYrwrFwAvnMjx-352" vertex="1">
          <mxGeometry x="200" width="60" height="20" as="geometry">
            <mxRectangle width="60" height="20" as="alternateBounds" />
          </mxGeometry>
        </mxCell>
        <mxCell id="yEf2gbcgYrwrFwAvnMjx-358" value="2022-10-17 11:13:46" style="shape=partialRectangle;overflow=hidden;connectable=0;fillColor=#eeeeee;top=0;left=0;bottom=0;right=0;align=left;spacingLeft=6;strokeColor=#36393d;" parent="yEf2gbcgYrwrFwAvnMjx-352" vertex="1">
          <mxGeometry x="260" width="60" height="20" as="geometry">
            <mxRectangle width="60" height="20" as="alternateBounds" />
          </mxGeometry>
        </mxCell>
        <mxCell id="yEf2gbcgYrwrFwAvnMjx-359" value="생성일" style="shape=partialRectangle;overflow=hidden;connectable=0;fillColor=#eeeeee;top=0;left=0;bottom=0;right=0;align=left;spacingLeft=6;strokeColor=#36393d;" parent="yEf2gbcgYrwrFwAvnMjx-352" vertex="1">
          <mxGeometry x="320" width="200" height="20" as="geometry">
            <mxRectangle width="200" height="20" as="alternateBounds" />
          </mxGeometry>
        </mxCell>
        <mxCell id="yEf2gbcgYrwrFwAvnMjx-360" style="shape=partialRectangle;collapsible=0;dropTarget=0;pointerEvents=0;fillColor=#eeeeee;points=[[0,0.5],[1,0.5]];portConstraint=eastwest;top=0;left=0;right=0;bottom=0;strokeColor=#36393d;" parent="yEf2gbcgYrwrFwAvnMjx-303" vertex="1">
          <mxGeometry y="120" width="520" height="20" as="geometry" />
        </mxCell>
        <mxCell id="yEf2gbcgYrwrFwAvnMjx-361" style="shape=partialRectangle;overflow=hidden;connectable=0;fillColor=#eeeeee;top=0;left=0;bottom=0;right=0;strokeColor=#36393d;" parent="yEf2gbcgYrwrFwAvnMjx-360" vertex="1">
          <mxGeometry width="30" height="20" as="geometry">
            <mxRectangle width="30" height="20" as="alternateBounds" />
          </mxGeometry>
        </mxCell>
        <mxCell id="yEf2gbcgYrwrFwAvnMjx-362" value="public" style="shape=partialRectangle;overflow=hidden;connectable=0;fillColor=#eeeeee;top=0;left=0;bottom=0;right=0;align=left;spacingLeft=6;strokeColor=#36393d;" parent="yEf2gbcgYrwrFwAvnMjx-360" vertex="1">
          <mxGeometry x="30" width="70" height="20" as="geometry">
            <mxRectangle width="70" height="20" as="alternateBounds" />
          </mxGeometry>
        </mxCell>
        <mxCell id="yEf2gbcgYrwrFwAvnMjx-363" value="tinyint(1)" style="shape=partialRectangle;overflow=hidden;connectable=0;fillColor=#eeeeee;top=0;left=0;bottom=0;right=0;align=left;spacingLeft=6;strokeColor=#36393d;" parent="yEf2gbcgYrwrFwAvnMjx-360" vertex="1">
          <mxGeometry x="100" width="70" height="20" as="geometry">
            <mxRectangle width="70" height="20" as="alternateBounds" />
          </mxGeometry>
        </mxCell>
        <mxCell id="yEf2gbcgYrwrFwAvnMjx-364" value="nn" style="shape=partialRectangle;overflow=hidden;connectable=0;fillColor=#eeeeee;top=0;left=0;bottom=0;right=0;align=left;spacingLeft=6;strokeColor=#36393d;" parent="yEf2gbcgYrwrFwAvnMjx-360" vertex="1">
          <mxGeometry x="170" width="30" height="20" as="geometry">
            <mxRectangle width="30" height="20" as="alternateBounds" />
          </mxGeometry>
        </mxCell>
        <mxCell id="yEf2gbcgYrwrFwAvnMjx-365" value="-" style="shape=partialRectangle;overflow=hidden;connectable=0;fillColor=#eeeeee;top=0;left=0;bottom=0;right=0;align=left;spacingLeft=6;strokeColor=#36393d;" parent="yEf2gbcgYrwrFwAvnMjx-360" vertex="1">
          <mxGeometry x="200" width="60" height="20" as="geometry">
            <mxRectangle width="60" height="20" as="alternateBounds" />
          </mxGeometry>
        </mxCell>
        <mxCell id="yEf2gbcgYrwrFwAvnMjx-366" value="1" style="shape=partialRectangle;overflow=hidden;connectable=0;fillColor=#eeeeee;top=0;left=0;bottom=0;right=0;align=left;spacingLeft=6;strokeColor=#36393d;" parent="yEf2gbcgYrwrFwAvnMjx-360" vertex="1">
          <mxGeometry x="260" width="60" height="20" as="geometry">
            <mxRectangle width="60" height="20" as="alternateBounds" />
          </mxGeometry>
        </mxCell>
        <mxCell id="yEf2gbcgYrwrFwAvnMjx-367" value="공개여부" style="shape=partialRectangle;overflow=hidden;connectable=0;fillColor=#eeeeee;top=0;left=0;bottom=0;right=0;align=left;spacingLeft=6;strokeColor=#36393d;" parent="yEf2gbcgYrwrFwAvnMjx-360" vertex="1">
          <mxGeometry x="320" width="200" height="20" as="geometry">
            <mxRectangle width="200" height="20" as="alternateBounds" />
          </mxGeometry>
        </mxCell>
        <mxCell id="jV_eMt8lWbeipAzmGlRH-1" style="shape=partialRectangle;collapsible=0;dropTarget=0;pointerEvents=0;fillColor=#eeeeee;points=[[0,0.5],[1,0.5]];portConstraint=eastwest;top=0;left=0;right=0;bottom=0;strokeColor=#36393d;" parent="yEf2gbcgYrwrFwAvnMjx-303" vertex="1">
          <mxGeometry y="140" width="520" height="20" as="geometry" />
        </mxCell>
        <mxCell id="jV_eMt8lWbeipAzmGlRH-2" style="shape=partialRectangle;overflow=hidden;connectable=0;fillColor=#eeeeee;top=0;left=0;bottom=0;right=0;strokeColor=#36393d;" parent="jV_eMt8lWbeipAzmGlRH-1" vertex="1">
          <mxGeometry width="30" height="20" as="geometry">
            <mxRectangle width="30" height="20" as="alternateBounds" />
          </mxGeometry>
        </mxCell>
        <mxCell id="jV_eMt8lWbeipAzmGlRH-3" value="owner" style="shape=partialRectangle;overflow=hidden;connectable=0;fillColor=#eeeeee;top=0;left=0;bottom=0;right=0;align=left;spacingLeft=6;strokeColor=#36393d;" parent="jV_eMt8lWbeipAzmGlRH-1" vertex="1">
          <mxGeometry x="30" width="70" height="20" as="geometry">
            <mxRectangle width="70" height="20" as="alternateBounds" />
          </mxGeometry>
        </mxCell>
        <mxCell id="jV_eMt8lWbeipAzmGlRH-4" value="int" style="shape=partialRectangle;overflow=hidden;connectable=0;fillColor=#eeeeee;top=0;left=0;bottom=0;right=0;align=left;spacingLeft=6;strokeColor=#36393d;" parent="jV_eMt8lWbeipAzmGlRH-1" vertex="1">
          <mxGeometry x="100" width="70" height="20" as="geometry">
            <mxRectangle width="70" height="20" as="alternateBounds" />
          </mxGeometry>
        </mxCell>
        <mxCell id="jV_eMt8lWbeipAzmGlRH-5" value="nn" style="shape=partialRectangle;overflow=hidden;connectable=0;fillColor=#eeeeee;top=0;left=0;bottom=0;right=0;align=left;spacingLeft=6;strokeColor=#36393d;" parent="jV_eMt8lWbeipAzmGlRH-1" vertex="1">
          <mxGeometry x="170" width="30" height="20" as="geometry">
            <mxRectangle width="30" height="20" as="alternateBounds" />
          </mxGeometry>
        </mxCell>
        <mxCell id="jV_eMt8lWbeipAzmGlRH-6" value="-" style="shape=partialRectangle;overflow=hidden;connectable=0;fillColor=#eeeeee;top=0;left=0;bottom=0;right=0;align=left;spacingLeft=6;strokeColor=#36393d;" parent="jV_eMt8lWbeipAzmGlRH-1" vertex="1">
          <mxGeometry x="200" width="60" height="20" as="geometry">
            <mxRectangle width="60" height="20" as="alternateBounds" />
          </mxGeometry>
        </mxCell>
        <mxCell id="jV_eMt8lWbeipAzmGlRH-7" value="3" style="shape=partialRectangle;overflow=hidden;connectable=0;fillColor=#eeeeee;top=0;left=0;bottom=0;right=0;align=left;spacingLeft=6;strokeColor=#36393d;" parent="jV_eMt8lWbeipAzmGlRH-1" vertex="1">
          <mxGeometry x="260" width="60" height="20" as="geometry">
            <mxRectangle width="60" height="20" as="alternateBounds" />
          </mxGeometry>
        </mxCell>
        <mxCell id="jV_eMt8lWbeipAzmGlRH-8" value="소유자" style="shape=partialRectangle;overflow=hidden;connectable=0;fillColor=#eeeeee;top=0;left=0;bottom=0;right=0;align=left;spacingLeft=6;strokeColor=#36393d;" parent="jV_eMt8lWbeipAzmGlRH-1" vertex="1">
          <mxGeometry x="320" width="200" height="20" as="geometry">
            <mxRectangle width="200" height="20" as="alternateBounds" />
          </mxGeometry>
        </mxCell>
        <mxCell id="jV_eMt8lWbeipAzmGlRH-54" style="shape=partialRectangle;collapsible=0;dropTarget=0;pointerEvents=0;fillColor=#eeeeee;points=[[0,0.5],[1,0.5]];portConstraint=eastwest;top=0;left=0;right=0;bottom=0;strokeColor=#36393d;" parent="yEf2gbcgYrwrFwAvnMjx-303" vertex="1">
          <mxGeometry y="160" width="520" height="30" as="geometry" />
        </mxCell>
        <mxCell id="jV_eMt8lWbeipAzmGlRH-55" style="shape=partialRectangle;overflow=hidden;connectable=0;fillColor=#eeeeee;top=0;left=0;bottom=0;right=0;strokeColor=#36393d;" parent="jV_eMt8lWbeipAzmGlRH-54" vertex="1">
          <mxGeometry width="30" height="30" as="geometry">
            <mxRectangle width="30" height="30" as="alternateBounds" />
          </mxGeometry>
        </mxCell>
        <mxCell id="jV_eMt8lWbeipAzmGlRH-56" value="fork" style="shape=partialRectangle;overflow=hidden;connectable=0;fillColor=#eeeeee;top=0;left=0;bottom=0;right=0;align=left;spacingLeft=6;strokeColor=#36393d;" parent="jV_eMt8lWbeipAzmGlRH-54" vertex="1">
          <mxGeometry x="30" width="70" height="30" as="geometry">
            <mxRectangle width="70" height="30" as="alternateBounds" />
          </mxGeometry>
        </mxCell>
        <mxCell id="jV_eMt8lWbeipAzmGlRH-57" value="tinyint(1)" style="shape=partialRectangle;overflow=hidden;connectable=0;fillColor=#eeeeee;top=0;left=0;bottom=0;right=0;align=left;spacingLeft=6;strokeColor=#36393d;" parent="jV_eMt8lWbeipAzmGlRH-54" vertex="1">
          <mxGeometry x="100" width="70" height="30" as="geometry">
            <mxRectangle width="70" height="30" as="alternateBounds" />
          </mxGeometry>
        </mxCell>
        <mxCell id="jV_eMt8lWbeipAzmGlRH-58" value="nn" style="shape=partialRectangle;overflow=hidden;connectable=0;fillColor=#eeeeee;top=0;left=0;bottom=0;right=0;align=left;spacingLeft=6;strokeColor=#36393d;" parent="jV_eMt8lWbeipAzmGlRH-54" vertex="1">
          <mxGeometry x="170" width="30" height="30" as="geometry">
            <mxRectangle width="30" height="30" as="alternateBounds" />
          </mxGeometry>
        </mxCell>
        <mxCell id="jV_eMt8lWbeipAzmGlRH-59" value="0" style="shape=partialRectangle;overflow=hidden;connectable=0;fillColor=#eeeeee;top=0;left=0;bottom=0;right=0;align=left;spacingLeft=6;strokeColor=#36393d;" parent="jV_eMt8lWbeipAzmGlRH-54" vertex="1">
          <mxGeometry x="200" width="60" height="30" as="geometry">
            <mxRectangle width="60" height="30" as="alternateBounds" />
          </mxGeometry>
        </mxCell>
        <mxCell id="jV_eMt8lWbeipAzmGlRH-60" value="4" style="shape=partialRectangle;overflow=hidden;connectable=0;fillColor=#eeeeee;top=0;left=0;bottom=0;right=0;align=left;spacingLeft=6;strokeColor=#36393d;" parent="jV_eMt8lWbeipAzmGlRH-54" vertex="1">
          <mxGeometry x="260" width="60" height="30" as="geometry">
            <mxRectangle width="60" height="30" as="alternateBounds" />
          </mxGeometry>
        </mxCell>
        <mxCell id="jV_eMt8lWbeipAzmGlRH-61" value="포크한 저장소(REPO-idx)&#xa;0일경우 포크저장소가 아니다" style="shape=partialRectangle;overflow=hidden;connectable=0;fillColor=#eeeeee;top=0;left=0;bottom=0;right=0;align=left;spacingLeft=6;strokeColor=#36393d;" parent="jV_eMt8lWbeipAzmGlRH-54" vertex="1">
          <mxGeometry x="320" width="200" height="30" as="geometry">
            <mxRectangle width="200" height="30" as="alternateBounds" />
          </mxGeometry>
        </mxCell>
        <object label="PUSH(전송)" idx="" id="yEf2gbcgYrwrFwAvnMjx-369">
          <mxCell style="shape=table;startSize=30;container=1;collapsible=1;childLayout=tableLayout;fixedRows=1;rowLines=0;fontStyle=1;align=center;resizeLast=1;fillColor=#cce5ff;strokeColor=#36393d;fontSize=18;" parent="1" vertex="1">
            <mxGeometry x="-590" y="-1000" width="510" height="200" as="geometry" />
          </mxCell>
        </object>
        <mxCell id="yEf2gbcgYrwrFwAvnMjx-370" value="" style="shape=partialRectangle;collapsible=0;dropTarget=0;pointerEvents=0;fillColor=#eeeeee;points=[[0,0.5],[1,0.5]];portConstraint=eastwest;top=0;left=0;right=0;bottom=1;strokeColor=#36393d;" parent="yEf2gbcgYrwrFwAvnMjx-369" vertex="1">
          <mxGeometry y="30" width="510" height="30" as="geometry" />
        </mxCell>
        <mxCell id="yEf2gbcgYrwrFwAvnMjx-371" value="KEY" style="shape=partialRectangle;overflow=hidden;connectable=0;fillColor=#eeeeee;top=0;left=0;bottom=0;right=0;fontStyle=1;strokeColor=#36393d;" parent="yEf2gbcgYrwrFwAvnMjx-370" vertex="1">
          <mxGeometry width="30" height="30" as="geometry">
            <mxRectangle width="30" height="30" as="alternateBounds" />
          </mxGeometry>
        </mxCell>
        <mxCell id="yEf2gbcgYrwrFwAvnMjx-372" value="ATT" style="shape=partialRectangle;overflow=hidden;connectable=0;fillColor=#eeeeee;top=0;left=0;bottom=0;right=0;align=left;spacingLeft=6;fontStyle=5;strokeColor=#36393d;" parent="yEf2gbcgYrwrFwAvnMjx-370" vertex="1">
          <mxGeometry x="30" width="70" height="30" as="geometry">
            <mxRectangle width="70" height="30" as="alternateBounds" />
          </mxGeometry>
        </mxCell>
        <mxCell id="yEf2gbcgYrwrFwAvnMjx-373" value="DATA" style="shape=partialRectangle;overflow=hidden;connectable=0;fillColor=#eeeeee;top=0;left=0;bottom=0;right=0;align=left;spacingLeft=6;fontStyle=5;strokeColor=#36393d;" parent="yEf2gbcgYrwrFwAvnMjx-370" vertex="1">
          <mxGeometry x="100" width="70" height="30" as="geometry">
            <mxRectangle width="70" height="30" as="alternateBounds" />
          </mxGeometry>
        </mxCell>
        <mxCell id="yEf2gbcgYrwrFwAvnMjx-374" value="NN" style="shape=partialRectangle;overflow=hidden;connectable=0;fillColor=#eeeeee;top=0;left=0;bottom=0;right=0;align=left;spacingLeft=6;fontStyle=5;strokeColor=#36393d;" parent="yEf2gbcgYrwrFwAvnMjx-370" vertex="1">
          <mxGeometry x="170" width="30" height="30" as="geometry">
            <mxRectangle width="30" height="30" as="alternateBounds" />
          </mxGeometry>
        </mxCell>
        <mxCell id="yEf2gbcgYrwrFwAvnMjx-375" value="DEFAULT" style="shape=partialRectangle;overflow=hidden;connectable=0;fillColor=#eeeeee;top=0;left=0;bottom=0;right=0;align=left;spacingLeft=6;fontStyle=5;strokeColor=#36393d;" parent="yEf2gbcgYrwrFwAvnMjx-370" vertex="1">
          <mxGeometry x="200" width="60" height="30" as="geometry">
            <mxRectangle width="60" height="30" as="alternateBounds" />
          </mxGeometry>
        </mxCell>
        <mxCell id="yEf2gbcgYrwrFwAvnMjx-376" value="EX" style="shape=partialRectangle;overflow=hidden;connectable=0;fillColor=#eeeeee;top=0;left=0;bottom=0;right=0;align=left;spacingLeft=6;fontStyle=5;strokeColor=#36393d;" parent="yEf2gbcgYrwrFwAvnMjx-370" vertex="1">
          <mxGeometry x="260" width="110" height="30" as="geometry">
            <mxRectangle width="110" height="30" as="alternateBounds" />
          </mxGeometry>
        </mxCell>
        <mxCell id="yEf2gbcgYrwrFwAvnMjx-377" value="설명" style="shape=partialRectangle;overflow=hidden;connectable=0;fillColor=#eeeeee;top=0;left=0;bottom=0;right=0;align=left;spacingLeft=6;fontStyle=5;strokeColor=#36393d;" parent="yEf2gbcgYrwrFwAvnMjx-370" vertex="1">
          <mxGeometry x="370" width="140" height="30" as="geometry">
            <mxRectangle width="140" height="30" as="alternateBounds" />
          </mxGeometry>
        </mxCell>
        <mxCell id="yEf2gbcgYrwrFwAvnMjx-378" style="shape=partialRectangle;collapsible=0;dropTarget=0;pointerEvents=0;fillColor=#eeeeee;points=[[0,0.5],[1,0.5]];portConstraint=eastwest;top=0;left=0;right=0;bottom=0;strokeColor=#36393d;" parent="yEf2gbcgYrwrFwAvnMjx-369" vertex="1">
          <mxGeometry y="60" width="510" height="20" as="geometry" />
        </mxCell>
        <mxCell id="yEf2gbcgYrwrFwAvnMjx-379" value="pk" style="shape=partialRectangle;overflow=hidden;connectable=0;fillColor=#eeeeee;top=0;left=0;bottom=0;right=0;strokeColor=#36393d;" parent="yEf2gbcgYrwrFwAvnMjx-378" vertex="1">
          <mxGeometry width="30" height="20" as="geometry">
            <mxRectangle width="30" height="20" as="alternateBounds" />
          </mxGeometry>
        </mxCell>
        <mxCell id="yEf2gbcgYrwrFwAvnMjx-380" value="token" style="shape=partialRectangle;overflow=hidden;connectable=0;fillColor=#eeeeee;top=0;left=0;bottom=0;right=0;align=left;spacingLeft=6;strokeColor=#36393d;" parent="yEf2gbcgYrwrFwAvnMjx-378" vertex="1">
          <mxGeometry x="30" width="70" height="20" as="geometry">
            <mxRectangle width="70" height="20" as="alternateBounds" />
          </mxGeometry>
        </mxCell>
        <mxCell id="yEf2gbcgYrwrFwAvnMjx-381" value="varchar(45)" style="shape=partialRectangle;overflow=hidden;connectable=0;fillColor=#eeeeee;top=0;left=0;bottom=0;right=0;align=left;spacingLeft=6;strokeColor=#36393d;" parent="yEf2gbcgYrwrFwAvnMjx-378" vertex="1">
          <mxGeometry x="100" width="70" height="20" as="geometry">
            <mxRectangle width="70" height="20" as="alternateBounds" />
          </mxGeometry>
        </mxCell>
        <mxCell id="yEf2gbcgYrwrFwAvnMjx-382" value="nn" style="shape=partialRectangle;overflow=hidden;connectable=0;fillColor=#eeeeee;top=0;left=0;bottom=0;right=0;align=left;spacingLeft=6;strokeColor=#36393d;" parent="yEf2gbcgYrwrFwAvnMjx-378" vertex="1">
          <mxGeometry x="170" width="30" height="20" as="geometry">
            <mxRectangle width="30" height="20" as="alternateBounds" />
          </mxGeometry>
        </mxCell>
        <mxCell id="yEf2gbcgYrwrFwAvnMjx-383" value="-" style="shape=partialRectangle;overflow=hidden;connectable=0;fillColor=#eeeeee;top=0;left=0;bottom=0;right=0;align=left;spacingLeft=6;strokeColor=#36393d;" parent="yEf2gbcgYrwrFwAvnMjx-378" vertex="1">
          <mxGeometry x="200" width="60" height="20" as="geometry">
            <mxRectangle width="60" height="20" as="alternateBounds" />
          </mxGeometry>
        </mxCell>
        <mxCell id="yEf2gbcgYrwrFwAvnMjx-384" value="bx32sg3ko" style="shape=partialRectangle;overflow=hidden;connectable=0;fillColor=#eeeeee;top=0;left=0;bottom=0;right=0;align=left;spacingLeft=6;strokeColor=#36393d;" parent="yEf2gbcgYrwrFwAvnMjx-378" vertex="1">
          <mxGeometry x="260" width="110" height="20" as="geometry">
            <mxRectangle width="110" height="20" as="alternateBounds" />
          </mxGeometry>
        </mxCell>
        <mxCell id="yEf2gbcgYrwrFwAvnMjx-385" value="push의 고유 토큰" style="shape=partialRectangle;overflow=hidden;connectable=0;fillColor=#eeeeee;top=0;left=0;bottom=0;right=0;align=left;spacingLeft=6;strokeColor=#36393d;" parent="yEf2gbcgYrwrFwAvnMjx-378" vertex="1">
          <mxGeometry x="370" width="140" height="20" as="geometry">
            <mxRectangle width="140" height="20" as="alternateBounds" />
          </mxGeometry>
        </mxCell>
        <mxCell id="yEf2gbcgYrwrFwAvnMjx-386" value="" style="shape=partialRectangle;collapsible=0;dropTarget=0;pointerEvents=0;fillColor=#eeeeee;points=[[0,0.5],[1,0.5]];portConstraint=eastwest;top=0;left=0;right=0;bottom=0;strokeColor=#36393d;" parent="yEf2gbcgYrwrFwAvnMjx-369" vertex="1">
          <mxGeometry y="80" width="510" height="20" as="geometry" />
        </mxCell>
        <mxCell id="yEf2gbcgYrwrFwAvnMjx-387" value="fk" style="shape=partialRectangle;overflow=hidden;connectable=0;fillColor=#eeeeee;top=0;left=0;bottom=0;right=0;strokeColor=#36393d;" parent="yEf2gbcgYrwrFwAvnMjx-386" vertex="1">
          <mxGeometry width="30" height="20" as="geometry">
            <mxRectangle width="30" height="20" as="alternateBounds" />
          </mxGeometry>
        </mxCell>
        <mxCell id="yEf2gbcgYrwrFwAvnMjx-388" value="member" style="shape=partialRectangle;overflow=hidden;connectable=0;fillColor=#eeeeee;top=0;left=0;bottom=0;right=0;align=left;spacingLeft=6;strokeColor=#36393d;" parent="yEf2gbcgYrwrFwAvnMjx-386" vertex="1">
          <mxGeometry x="30" width="70" height="20" as="geometry">
            <mxRectangle width="70" height="20" as="alternateBounds" />
          </mxGeometry>
        </mxCell>
        <mxCell id="yEf2gbcgYrwrFwAvnMjx-389" value="int" style="shape=partialRectangle;overflow=hidden;connectable=0;fillColor=#eeeeee;top=0;left=0;bottom=0;right=0;align=left;spacingLeft=6;strokeColor=#36393d;" parent="yEf2gbcgYrwrFwAvnMjx-386" vertex="1">
          <mxGeometry x="100" width="70" height="20" as="geometry">
            <mxRectangle width="70" height="20" as="alternateBounds" />
          </mxGeometry>
        </mxCell>
        <mxCell id="yEf2gbcgYrwrFwAvnMjx-390" value="nn" style="shape=partialRectangle;overflow=hidden;connectable=0;fillColor=#eeeeee;top=0;left=0;bottom=0;right=0;align=left;spacingLeft=6;strokeColor=#36393d;" parent="yEf2gbcgYrwrFwAvnMjx-386" vertex="1">
          <mxGeometry x="170" width="30" height="20" as="geometry">
            <mxRectangle width="30" height="20" as="alternateBounds" />
          </mxGeometry>
        </mxCell>
        <mxCell id="yEf2gbcgYrwrFwAvnMjx-391" value="-" style="shape=partialRectangle;overflow=hidden;connectable=0;fillColor=#eeeeee;top=0;left=0;bottom=0;right=0;align=left;spacingLeft=6;strokeColor=#36393d;" parent="yEf2gbcgYrwrFwAvnMjx-386" vertex="1">
          <mxGeometry x="200" width="60" height="20" as="geometry">
            <mxRectangle width="60" height="20" as="alternateBounds" />
          </mxGeometry>
        </mxCell>
        <mxCell id="yEf2gbcgYrwrFwAvnMjx-392" value="10" style="shape=partialRectangle;overflow=hidden;connectable=0;fillColor=#eeeeee;top=0;left=0;bottom=0;right=0;align=left;spacingLeft=6;strokeColor=#36393d;" parent="yEf2gbcgYrwrFwAvnMjx-386" vertex="1">
          <mxGeometry x="260" width="110" height="20" as="geometry">
            <mxRectangle width="110" height="20" as="alternateBounds" />
          </mxGeometry>
        </mxCell>
        <mxCell id="yEf2gbcgYrwrFwAvnMjx-393" value="작성자(member-idx)" style="shape=partialRectangle;overflow=hidden;connectable=0;fillColor=#eeeeee;top=0;left=0;bottom=0;right=0;align=left;spacingLeft=6;strokeColor=#36393d;" parent="yEf2gbcgYrwrFwAvnMjx-386" vertex="1">
          <mxGeometry x="370" width="140" height="20" as="geometry">
            <mxRectangle width="140" height="20" as="alternateBounds" />
          </mxGeometry>
        </mxCell>
        <mxCell id="yEf2gbcgYrwrFwAvnMjx-394" style="shape=partialRectangle;collapsible=0;dropTarget=0;pointerEvents=0;fillColor=#eeeeee;points=[[0,0.5],[1,0.5]];portConstraint=eastwest;top=0;left=0;right=0;bottom=0;strokeColor=#36393d;" parent="yEf2gbcgYrwrFwAvnMjx-369" vertex="1">
          <mxGeometry y="100" width="510" height="20" as="geometry" />
        </mxCell>
        <mxCell id="yEf2gbcgYrwrFwAvnMjx-395" value="fk" style="shape=partialRectangle;overflow=hidden;connectable=0;fillColor=#eeeeee;top=0;left=0;bottom=0;right=0;strokeColor=#36393d;" parent="yEf2gbcgYrwrFwAvnMjx-394" vertex="1">
          <mxGeometry width="30" height="20" as="geometry">
            <mxRectangle width="30" height="20" as="alternateBounds" />
          </mxGeometry>
        </mxCell>
        <mxCell id="yEf2gbcgYrwrFwAvnMjx-396" value="repo" style="shape=partialRectangle;overflow=hidden;connectable=0;fillColor=#eeeeee;top=0;left=0;bottom=0;right=0;align=left;spacingLeft=6;strokeColor=#36393d;" parent="yEf2gbcgYrwrFwAvnMjx-394" vertex="1">
          <mxGeometry x="30" width="70" height="20" as="geometry">
            <mxRectangle width="70" height="20" as="alternateBounds" />
          </mxGeometry>
        </mxCell>
        <mxCell id="yEf2gbcgYrwrFwAvnMjx-397" value="int" style="shape=partialRectangle;overflow=hidden;connectable=0;fillColor=#eeeeee;top=0;left=0;bottom=0;right=0;align=left;spacingLeft=6;strokeColor=#36393d;" parent="yEf2gbcgYrwrFwAvnMjx-394" vertex="1">
          <mxGeometry x="100" width="70" height="20" as="geometry">
            <mxRectangle width="70" height="20" as="alternateBounds" />
          </mxGeometry>
        </mxCell>
        <mxCell id="yEf2gbcgYrwrFwAvnMjx-398" value="nn" style="shape=partialRectangle;overflow=hidden;connectable=0;fillColor=#eeeeee;top=0;left=0;bottom=0;right=0;align=left;spacingLeft=6;strokeColor=#36393d;" parent="yEf2gbcgYrwrFwAvnMjx-394" vertex="1">
          <mxGeometry x="170" width="30" height="20" as="geometry">
            <mxRectangle width="30" height="20" as="alternateBounds" />
          </mxGeometry>
        </mxCell>
        <mxCell id="yEf2gbcgYrwrFwAvnMjx-399" value="-" style="shape=partialRectangle;overflow=hidden;connectable=0;fillColor=#eeeeee;top=0;left=0;bottom=0;right=0;align=left;spacingLeft=6;strokeColor=#36393d;" parent="yEf2gbcgYrwrFwAvnMjx-394" vertex="1">
          <mxGeometry x="200" width="60" height="20" as="geometry">
            <mxRectangle width="60" height="20" as="alternateBounds" />
          </mxGeometry>
        </mxCell>
        <mxCell id="yEf2gbcgYrwrFwAvnMjx-400" value="1" style="shape=partialRectangle;overflow=hidden;connectable=0;fillColor=#eeeeee;top=0;left=0;bottom=0;right=0;align=left;spacingLeft=6;strokeColor=#36393d;" parent="yEf2gbcgYrwrFwAvnMjx-394" vertex="1">
          <mxGeometry x="260" width="110" height="20" as="geometry">
            <mxRectangle width="110" height="20" as="alternateBounds" />
          </mxGeometry>
        </mxCell>
        <mxCell id="yEf2gbcgYrwrFwAvnMjx-401" value="저장소 번호(repo-idx)" style="shape=partialRectangle;overflow=hidden;connectable=0;fillColor=#eeeeee;top=0;left=0;bottom=0;right=0;align=left;spacingLeft=6;strokeColor=#36393d;" parent="yEf2gbcgYrwrFwAvnMjx-394" vertex="1">
          <mxGeometry x="370" width="140" height="20" as="geometry">
            <mxRectangle width="140" height="20" as="alternateBounds" />
          </mxGeometry>
        </mxCell>
        <mxCell id="yEf2gbcgYrwrFwAvnMjx-402" style="shape=partialRectangle;collapsible=0;dropTarget=0;pointerEvents=0;fillColor=#eeeeee;points=[[0,0.5],[1,0.5]];portConstraint=eastwest;top=0;left=0;right=0;bottom=0;strokeColor=#36393d;" parent="yEf2gbcgYrwrFwAvnMjx-369" vertex="1">
          <mxGeometry y="120" width="510" height="20" as="geometry" />
        </mxCell>
        <mxCell id="yEf2gbcgYrwrFwAvnMjx-403" style="shape=partialRectangle;overflow=hidden;connectable=0;fillColor=#eeeeee;top=0;left=0;bottom=0;right=0;strokeColor=#36393d;" parent="yEf2gbcgYrwrFwAvnMjx-402" vertex="1">
          <mxGeometry width="30" height="20" as="geometry">
            <mxRectangle width="30" height="20" as="alternateBounds" />
          </mxGeometry>
        </mxCell>
        <mxCell id="yEf2gbcgYrwrFwAvnMjx-404" value="message" style="shape=partialRectangle;overflow=hidden;connectable=0;fillColor=#eeeeee;top=0;left=0;bottom=0;right=0;align=left;spacingLeft=6;strokeColor=#36393d;" parent="yEf2gbcgYrwrFwAvnMjx-402" vertex="1">
          <mxGeometry x="30" width="70" height="20" as="geometry">
            <mxRectangle width="70" height="20" as="alternateBounds" />
          </mxGeometry>
        </mxCell>
        <mxCell id="yEf2gbcgYrwrFwAvnMjx-405" value="longtext" style="shape=partialRectangle;overflow=hidden;connectable=0;fillColor=#eeeeee;top=0;left=0;bottom=0;right=0;align=left;spacingLeft=6;strokeColor=#36393d;" parent="yEf2gbcgYrwrFwAvnMjx-402" vertex="1">
          <mxGeometry x="100" width="70" height="20" as="geometry">
            <mxRectangle width="70" height="20" as="alternateBounds" />
          </mxGeometry>
        </mxCell>
        <mxCell id="yEf2gbcgYrwrFwAvnMjx-406" value="-" style="shape=partialRectangle;overflow=hidden;connectable=0;fillColor=#eeeeee;top=0;left=0;bottom=0;right=0;align=left;spacingLeft=6;strokeColor=#36393d;" parent="yEf2gbcgYrwrFwAvnMjx-402" vertex="1">
          <mxGeometry x="170" width="30" height="20" as="geometry">
            <mxRectangle width="30" height="20" as="alternateBounds" />
          </mxGeometry>
        </mxCell>
        <mxCell id="yEf2gbcgYrwrFwAvnMjx-407" value="-" style="shape=partialRectangle;overflow=hidden;connectable=0;fillColor=#eeeeee;top=0;left=0;bottom=0;right=0;align=left;spacingLeft=6;strokeColor=#36393d;" parent="yEf2gbcgYrwrFwAvnMjx-402" vertex="1">
          <mxGeometry x="200" width="60" height="20" as="geometry">
            <mxRectangle width="60" height="20" as="alternateBounds" />
          </mxGeometry>
        </mxCell>
        <mxCell id="yEf2gbcgYrwrFwAvnMjx-408" value="함수수정하였음" style="shape=partialRectangle;overflow=hidden;connectable=0;fillColor=#eeeeee;top=0;left=0;bottom=0;right=0;align=left;spacingLeft=6;strokeColor=#36393d;" parent="yEf2gbcgYrwrFwAvnMjx-402" vertex="1">
          <mxGeometry x="260" width="110" height="20" as="geometry">
            <mxRectangle width="110" height="20" as="alternateBounds" />
          </mxGeometry>
        </mxCell>
        <mxCell id="yEf2gbcgYrwrFwAvnMjx-409" value="push 메시지" style="shape=partialRectangle;overflow=hidden;connectable=0;fillColor=#eeeeee;top=0;left=0;bottom=0;right=0;align=left;spacingLeft=6;strokeColor=#36393d;" parent="yEf2gbcgYrwrFwAvnMjx-402" vertex="1">
          <mxGeometry x="370" width="140" height="20" as="geometry">
            <mxRectangle width="140" height="20" as="alternateBounds" />
          </mxGeometry>
        </mxCell>
        <mxCell id="yEf2gbcgYrwrFwAvnMjx-410" style="shape=partialRectangle;collapsible=0;dropTarget=0;pointerEvents=0;fillColor=#eeeeee;points=[[0,0.5],[1,0.5]];portConstraint=eastwest;top=0;left=0;right=0;bottom=0;strokeColor=#36393d;" parent="yEf2gbcgYrwrFwAvnMjx-369" vertex="1">
          <mxGeometry y="140" width="510" height="20" as="geometry" />
        </mxCell>
        <mxCell id="yEf2gbcgYrwrFwAvnMjx-411" style="shape=partialRectangle;overflow=hidden;connectable=0;fillColor=#eeeeee;top=0;left=0;bottom=0;right=0;strokeColor=#36393d;" parent="yEf2gbcgYrwrFwAvnMjx-410" vertex="1">
          <mxGeometry width="30" height="20" as="geometry">
            <mxRectangle width="30" height="20" as="alternateBounds" />
          </mxGeometry>
        </mxCell>
        <mxCell id="yEf2gbcgYrwrFwAvnMjx-412" value="date" style="shape=partialRectangle;overflow=hidden;connectable=0;fillColor=#eeeeee;top=0;left=0;bottom=0;right=0;align=left;spacingLeft=6;strokeColor=#36393d;" parent="yEf2gbcgYrwrFwAvnMjx-410" vertex="1">
          <mxGeometry x="30" width="70" height="20" as="geometry">
            <mxRectangle width="70" height="20" as="alternateBounds" />
          </mxGeometry>
        </mxCell>
        <mxCell id="yEf2gbcgYrwrFwAvnMjx-413" value="timestamp" style="shape=partialRectangle;overflow=hidden;connectable=0;fillColor=#eeeeee;top=0;left=0;bottom=0;right=0;align=left;spacingLeft=6;strokeColor=#36393d;" parent="yEf2gbcgYrwrFwAvnMjx-410" vertex="1">
          <mxGeometry x="100" width="70" height="20" as="geometry">
            <mxRectangle width="70" height="20" as="alternateBounds" />
          </mxGeometry>
        </mxCell>
        <mxCell id="yEf2gbcgYrwrFwAvnMjx-414" value="nn" style="shape=partialRectangle;overflow=hidden;connectable=0;fillColor=#eeeeee;top=0;left=0;bottom=0;right=0;align=left;spacingLeft=6;strokeColor=#36393d;" parent="yEf2gbcgYrwrFwAvnMjx-410" vertex="1">
          <mxGeometry x="170" width="30" height="20" as="geometry">
            <mxRectangle width="30" height="20" as="alternateBounds" />
          </mxGeometry>
        </mxCell>
        <mxCell id="yEf2gbcgYrwrFwAvnMjx-415" value="now()" style="shape=partialRectangle;overflow=hidden;connectable=0;fillColor=#eeeeee;top=0;left=0;bottom=0;right=0;align=left;spacingLeft=6;strokeColor=#36393d;" parent="yEf2gbcgYrwrFwAvnMjx-410" vertex="1">
          <mxGeometry x="200" width="60" height="20" as="geometry">
            <mxRectangle width="60" height="20" as="alternateBounds" />
          </mxGeometry>
        </mxCell>
        <mxCell id="yEf2gbcgYrwrFwAvnMjx-416" value="2022-10-17 11:13:46" style="shape=partialRectangle;overflow=hidden;connectable=0;fillColor=#eeeeee;top=0;left=0;bottom=0;right=0;align=left;spacingLeft=6;strokeColor=#36393d;" parent="yEf2gbcgYrwrFwAvnMjx-410" vertex="1">
          <mxGeometry x="260" width="110" height="20" as="geometry">
            <mxRectangle width="110" height="20" as="alternateBounds" />
          </mxGeometry>
        </mxCell>
        <mxCell id="yEf2gbcgYrwrFwAvnMjx-417" value="push일" style="shape=partialRectangle;overflow=hidden;connectable=0;fillColor=#eeeeee;top=0;left=0;bottom=0;right=0;align=left;spacingLeft=6;strokeColor=#36393d;" parent="yEf2gbcgYrwrFwAvnMjx-410" vertex="1">
          <mxGeometry x="370" width="140" height="20" as="geometry">
            <mxRectangle width="140" height="20" as="alternateBounds" />
          </mxGeometry>
        </mxCell>
        <mxCell id="yEf2gbcgYrwrFwAvnMjx-427" style="shape=partialRectangle;collapsible=0;dropTarget=0;pointerEvents=0;fillColor=#eeeeee;points=[[0,0.5],[1,0.5]];portConstraint=eastwest;top=0;left=0;right=0;bottom=0;strokeColor=#36393d;" parent="yEf2gbcgYrwrFwAvnMjx-369" vertex="1">
          <mxGeometry y="160" width="510" height="20" as="geometry" />
        </mxCell>
        <mxCell id="yEf2gbcgYrwrFwAvnMjx-428" value="fk" style="shape=partialRectangle;overflow=hidden;connectable=0;fillColor=#eeeeee;top=0;left=0;bottom=0;right=0;strokeColor=#36393d;" parent="yEf2gbcgYrwrFwAvnMjx-427" vertex="1">
          <mxGeometry width="30" height="20" as="geometry">
            <mxRectangle width="30" height="20" as="alternateBounds" />
          </mxGeometry>
        </mxCell>
        <mxCell id="yEf2gbcgYrwrFwAvnMjx-429" value="branch" style="shape=partialRectangle;overflow=hidden;connectable=0;fillColor=#eeeeee;top=0;left=0;bottom=0;right=0;align=left;spacingLeft=6;strokeColor=#36393d;" parent="yEf2gbcgYrwrFwAvnMjx-427" vertex="1">
          <mxGeometry x="30" width="70" height="20" as="geometry">
            <mxRectangle width="70" height="20" as="alternateBounds" />
          </mxGeometry>
        </mxCell>
        <mxCell id="yEf2gbcgYrwrFwAvnMjx-430" value="int" style="shape=partialRectangle;overflow=hidden;connectable=0;fillColor=#eeeeee;top=0;left=0;bottom=0;right=0;align=left;spacingLeft=6;strokeColor=#36393d;" parent="yEf2gbcgYrwrFwAvnMjx-427" vertex="1">
          <mxGeometry x="100" width="70" height="20" as="geometry">
            <mxRectangle width="70" height="20" as="alternateBounds" />
          </mxGeometry>
        </mxCell>
        <mxCell id="yEf2gbcgYrwrFwAvnMjx-431" value="nn" style="shape=partialRectangle;overflow=hidden;connectable=0;fillColor=#eeeeee;top=0;left=0;bottom=0;right=0;align=left;spacingLeft=6;strokeColor=#36393d;" parent="yEf2gbcgYrwrFwAvnMjx-427" vertex="1">
          <mxGeometry x="170" width="30" height="20" as="geometry">
            <mxRectangle width="30" height="20" as="alternateBounds" />
          </mxGeometry>
        </mxCell>
        <mxCell id="yEf2gbcgYrwrFwAvnMjx-432" value="0" style="shape=partialRectangle;overflow=hidden;connectable=0;fillColor=#eeeeee;top=0;left=0;bottom=0;right=0;align=left;spacingLeft=6;strokeColor=#36393d;" parent="yEf2gbcgYrwrFwAvnMjx-427" vertex="1">
          <mxGeometry x="200" width="60" height="20" as="geometry">
            <mxRectangle width="60" height="20" as="alternateBounds" />
          </mxGeometry>
        </mxCell>
        <mxCell id="yEf2gbcgYrwrFwAvnMjx-433" value="1" style="shape=partialRectangle;overflow=hidden;connectable=0;fillColor=#eeeeee;top=0;left=0;bottom=0;right=0;align=left;spacingLeft=6;strokeColor=#36393d;" parent="yEf2gbcgYrwrFwAvnMjx-427" vertex="1">
          <mxGeometry x="260" width="110" height="20" as="geometry">
            <mxRectangle width="110" height="20" as="alternateBounds" />
          </mxGeometry>
        </mxCell>
        <mxCell id="yEf2gbcgYrwrFwAvnMjx-434" value="브랜치 번호(0은 메인)" style="shape=partialRectangle;overflow=hidden;connectable=0;fillColor=#eeeeee;top=0;left=0;bottom=0;right=0;align=left;spacingLeft=6;strokeColor=#36393d;" parent="yEf2gbcgYrwrFwAvnMjx-427" vertex="1">
          <mxGeometry x="370" width="140" height="20" as="geometry">
            <mxRectangle width="140" height="20" as="alternateBounds" />
          </mxGeometry>
        </mxCell>
        <mxCell id="yEf2gbcgYrwrFwAvnMjx-438" style="shape=partialRectangle;collapsible=0;dropTarget=0;pointerEvents=0;fillColor=#eeeeee;points=[[0,0.5],[1,0.5]];portConstraint=eastwest;top=0;left=0;right=0;bottom=0;strokeColor=#36393d;" parent="yEf2gbcgYrwrFwAvnMjx-369" vertex="1">
          <mxGeometry y="180" width="510" height="20" as="geometry" />
        </mxCell>
        <mxCell id="yEf2gbcgYrwrFwAvnMjx-439" style="shape=partialRectangle;overflow=hidden;connectable=0;fillColor=#eeeeee;top=0;left=0;bottom=0;right=0;strokeColor=#36393d;" parent="yEf2gbcgYrwrFwAvnMjx-438" vertex="1">
          <mxGeometry width="30" height="20" as="geometry">
            <mxRectangle width="30" height="20" as="alternateBounds" />
          </mxGeometry>
        </mxCell>
        <mxCell id="yEf2gbcgYrwrFwAvnMjx-440" value="from" style="shape=partialRectangle;overflow=hidden;connectable=0;fillColor=#eeeeee;top=0;left=0;bottom=0;right=0;align=left;spacingLeft=6;strokeColor=#36393d;" parent="yEf2gbcgYrwrFwAvnMjx-438" vertex="1">
          <mxGeometry x="30" width="70" height="20" as="geometry">
            <mxRectangle width="70" height="20" as="alternateBounds" />
          </mxGeometry>
        </mxCell>
        <mxCell id="yEf2gbcgYrwrFwAvnMjx-441" value="varchar(45)" style="shape=partialRectangle;overflow=hidden;connectable=0;fillColor=#eeeeee;top=0;left=0;bottom=0;right=0;align=left;spacingLeft=6;strokeColor=#36393d;" parent="yEf2gbcgYrwrFwAvnMjx-438" vertex="1">
          <mxGeometry x="100" width="70" height="20" as="geometry">
            <mxRectangle width="70" height="20" as="alternateBounds" />
          </mxGeometry>
        </mxCell>
        <mxCell id="yEf2gbcgYrwrFwAvnMjx-442" value="-" style="shape=partialRectangle;overflow=hidden;connectable=0;fillColor=#eeeeee;top=0;left=0;bottom=0;right=0;align=left;spacingLeft=6;strokeColor=#36393d;" parent="yEf2gbcgYrwrFwAvnMjx-438" vertex="1">
          <mxGeometry x="170" width="30" height="20" as="geometry">
            <mxRectangle width="30" height="20" as="alternateBounds" />
          </mxGeometry>
        </mxCell>
        <mxCell id="yEf2gbcgYrwrFwAvnMjx-443" value="-" style="shape=partialRectangle;overflow=hidden;connectable=0;fillColor=#eeeeee;top=0;left=0;bottom=0;right=0;align=left;spacingLeft=6;strokeColor=#36393d;" parent="yEf2gbcgYrwrFwAvnMjx-438" vertex="1">
          <mxGeometry x="200" width="60" height="20" as="geometry">
            <mxRectangle width="60" height="20" as="alternateBounds" />
          </mxGeometry>
        </mxCell>
        <mxCell id="yEf2gbcgYrwrFwAvnMjx-444" value="sjg3125qs" style="shape=partialRectangle;overflow=hidden;connectable=0;fillColor=#eeeeee;top=0;left=0;bottom=0;right=0;align=left;spacingLeft=6;strokeColor=#36393d;" parent="yEf2gbcgYrwrFwAvnMjx-438" vertex="1">
          <mxGeometry x="260" width="110" height="20" as="geometry">
            <mxRectangle width="110" height="20" as="alternateBounds" />
          </mxGeometry>
        </mxCell>
        <mxCell id="yEf2gbcgYrwrFwAvnMjx-445" value="pull했었던 토큰값" style="shape=partialRectangle;overflow=hidden;connectable=0;fillColor=#eeeeee;top=0;left=0;bottom=0;right=0;align=left;spacingLeft=6;strokeColor=#36393d;" parent="yEf2gbcgYrwrFwAvnMjx-438" vertex="1">
          <mxGeometry x="370" width="140" height="20" as="geometry">
            <mxRectangle width="140" height="20" as="alternateBounds" />
          </mxGeometry>
        </mxCell>
        <mxCell id="yEf2gbcgYrwrFwAvnMjx-436" value="파일을 읽어 올 때" style="swimlane;fillColor=#fff2cc;strokeColor=#d6b656;fontSize=16;fontStyle=1" parent="1" vertex="1">
          <mxGeometry x="-20" y="-1010" width="625" height="320" as="geometry" />
        </mxCell>
        <mxCell id="yEf2gbcgYrwrFwAvnMjx-437" value="서버 파일 관리 경로: /files/토큰/&lt;br style=&quot;font-size: 16px;&quot;&gt;&lt;br style=&quot;font-size: 16px;&quot;&gt;www.GGitHub.com/&lt;span style=&quot;background-color: rgb(151, 208, 119); font-size: 16px;&quot;&gt;닉네임&lt;/span&gt;/&lt;span style=&quot;background-color: rgb(79, 255, 220); font-size: 16px;&quot;&gt;저장소이름&lt;/span&gt;/&lt;span style=&quot;background-color: rgb(200, 186, 255); font-size: 16px;&quot;&gt;(브랜치)&lt;/span&gt;&lt;br style=&quot;font-size: 16px;&quot;&gt;로 접근했을 때&lt;br style=&quot;font-size: 16px;&quot;&gt;&lt;span style=&quot;background-color: rgb(151, 208, 119); font-size: 16px;&quot;&gt;닉네임&lt;/span&gt;으로 MEMBER에서 &lt;span style=&quot;background-color: rgb(255, 130, 130); font-size: 16px;&quot;&gt;idx&lt;/span&gt;를 찾고&lt;br style=&quot;font-size: 16px;&quot;&gt;REPO에서 owner=&lt;span style=&quot;background-color: rgb(255, 130, 130); font-size: 16px;&quot;&gt;idx &lt;/span&gt;and name=&lt;span style=&quot;background-color: rgb(79, 255, 220); font-size: 16px;&quot;&gt;저장소이름 &lt;/span&gt;으로&amp;nbsp;&lt;br style=&quot;font-size: 16px;&quot;&gt;&lt;span style=&quot;background-color: rgb(241, 255, 153); font-size: 16px;&quot;&gt;REPO idx&lt;/span&gt;를 찾는다&amp;nbsp;&lt;br style=&quot;font-size: 16px;&quot;&gt;화면에 보여줘야 하는 서버상의 파일 저장 경로는&lt;br style=&quot;font-size: 16px;&quot;&gt;/files/{PUSH에서 repo=&lt;span style=&quot;background-color: rgb(241, 255, 153); font-size: 16px;&quot;&gt;REPO idx&lt;/span&gt; and branch=&lt;span style=&quot;background-color: rgb(200, 186, 255); font-size: 16px;&quot;&gt;브랜치idx&lt;/span&gt; 인 최근 토큰}/ 이다.&lt;br style=&quot;font-size: 16px;&quot;&gt;--------------------------------------------------------------------------------------------------------------&lt;br style=&quot;font-size: 16px;&quot;&gt;www.GGitHub.com/닉네임/저장소이름/브랜치/디렉토리&lt;br style=&quot;font-size: 16px;&quot;&gt;로 접근하면&lt;br style=&quot;font-size: 16px;&quot;&gt;/files/{PUSH에서 repo=REPO idx and branch=브랜치idx 인 최근 토큰}/디렉토리/&lt;br style=&quot;font-size: 16px;&quot;&gt;경로의 파일을 보여준다" style="text;html=1;align=center;verticalAlign=middle;resizable=0;points=[];autosize=1;strokeColor=#d79b00;fillColor=#ffe6cc;fontSize=16;fontStyle=1;" parent="yEf2gbcgYrwrFwAvnMjx-436" vertex="1">
          <mxGeometry x="7.5" y="30" width="610" height="280" as="geometry" />
        </mxCell>
        <object label="BRANCH(브랜치)" idx="" id="-wRGZAtz3f00x_fr0-pT-1">
          <mxCell style="shape=table;startSize=30;container=1;collapsible=1;childLayout=tableLayout;fixedRows=1;rowLines=0;fontStyle=1;align=center;resizeLast=1;fillColor=#cce5ff;strokeColor=#36393d;fontSize=18;" parent="1" vertex="1">
            <mxGeometry x="-630" y="-1220" width="560" height="160" as="geometry" />
          </mxCell>
        </object>
        <mxCell id="-wRGZAtz3f00x_fr0-pT-2" value="" style="shape=partialRectangle;collapsible=0;dropTarget=0;pointerEvents=0;fillColor=#eeeeee;points=[[0,0.5],[1,0.5]];portConstraint=eastwest;top=0;left=0;right=0;bottom=1;strokeColor=#36393d;" parent="-wRGZAtz3f00x_fr0-pT-1" vertex="1">
          <mxGeometry y="30" width="560" height="30" as="geometry" />
        </mxCell>
        <mxCell id="-wRGZAtz3f00x_fr0-pT-3" value="KEY" style="shape=partialRectangle;overflow=hidden;connectable=0;fillColor=#eeeeee;top=0;left=0;bottom=0;right=0;fontStyle=1;strokeColor=#36393d;" parent="-wRGZAtz3f00x_fr0-pT-2" vertex="1">
          <mxGeometry width="30" height="30" as="geometry">
            <mxRectangle width="30" height="30" as="alternateBounds" />
          </mxGeometry>
        </mxCell>
        <mxCell id="-wRGZAtz3f00x_fr0-pT-4" value="ATT" style="shape=partialRectangle;overflow=hidden;connectable=0;fillColor=#eeeeee;top=0;left=0;bottom=0;right=0;align=left;spacingLeft=6;fontStyle=5;strokeColor=#36393d;" parent="-wRGZAtz3f00x_fr0-pT-2" vertex="1">
          <mxGeometry x="30" width="70" height="30" as="geometry">
            <mxRectangle width="70" height="30" as="alternateBounds" />
          </mxGeometry>
        </mxCell>
        <mxCell id="-wRGZAtz3f00x_fr0-pT-5" value="DATA" style="shape=partialRectangle;overflow=hidden;connectable=0;fillColor=#eeeeee;top=0;left=0;bottom=0;right=0;align=left;spacingLeft=6;fontStyle=5;strokeColor=#36393d;" parent="-wRGZAtz3f00x_fr0-pT-2" vertex="1">
          <mxGeometry x="100" width="70" height="30" as="geometry">
            <mxRectangle width="70" height="30" as="alternateBounds" />
          </mxGeometry>
        </mxCell>
        <mxCell id="-wRGZAtz3f00x_fr0-pT-6" value="NN" style="shape=partialRectangle;overflow=hidden;connectable=0;fillColor=#eeeeee;top=0;left=0;bottom=0;right=0;align=left;spacingLeft=6;fontStyle=5;strokeColor=#36393d;" parent="-wRGZAtz3f00x_fr0-pT-2" vertex="1">
          <mxGeometry x="170" width="30" height="30" as="geometry">
            <mxRectangle width="30" height="30" as="alternateBounds" />
          </mxGeometry>
        </mxCell>
        <mxCell id="-wRGZAtz3f00x_fr0-pT-7" value="DEFAULT" style="shape=partialRectangle;overflow=hidden;connectable=0;fillColor=#eeeeee;top=0;left=0;bottom=0;right=0;align=left;spacingLeft=6;fontStyle=5;strokeColor=#36393d;" parent="-wRGZAtz3f00x_fr0-pT-2" vertex="1">
          <mxGeometry x="200" width="60" height="30" as="geometry">
            <mxRectangle width="60" height="30" as="alternateBounds" />
          </mxGeometry>
        </mxCell>
        <mxCell id="-wRGZAtz3f00x_fr0-pT-8" value="EX" style="shape=partialRectangle;overflow=hidden;connectable=0;fillColor=#eeeeee;top=0;left=0;bottom=0;right=0;align=left;spacingLeft=6;fontStyle=5;strokeColor=#36393d;" parent="-wRGZAtz3f00x_fr0-pT-2" vertex="1">
          <mxGeometry x="260" width="30" height="30" as="geometry">
            <mxRectangle width="30" height="30" as="alternateBounds" />
          </mxGeometry>
        </mxCell>
        <mxCell id="-wRGZAtz3f00x_fr0-pT-9" value="설명" style="shape=partialRectangle;overflow=hidden;connectable=0;fillColor=#eeeeee;top=0;left=0;bottom=0;right=0;align=left;spacingLeft=6;fontStyle=5;strokeColor=#36393d;" parent="-wRGZAtz3f00x_fr0-pT-2" vertex="1">
          <mxGeometry x="290" width="270" height="30" as="geometry">
            <mxRectangle width="270" height="30" as="alternateBounds" />
          </mxGeometry>
        </mxCell>
        <mxCell id="-wRGZAtz3f00x_fr0-pT-10" style="shape=partialRectangle;collapsible=0;dropTarget=0;pointerEvents=0;fillColor=#eeeeee;points=[[0,0.5],[1,0.5]];portConstraint=eastwest;top=0;left=0;right=0;bottom=0;strokeColor=#36393d;" parent="-wRGZAtz3f00x_fr0-pT-1" vertex="1">
          <mxGeometry y="60" width="560" height="20" as="geometry" />
        </mxCell>
        <mxCell id="-wRGZAtz3f00x_fr0-pT-11" value="pk" style="shape=partialRectangle;overflow=hidden;connectable=0;fillColor=#eeeeee;top=0;left=0;bottom=0;right=0;strokeColor=#36393d;" parent="-wRGZAtz3f00x_fr0-pT-10" vertex="1">
          <mxGeometry width="30" height="20" as="geometry">
            <mxRectangle width="30" height="20" as="alternateBounds" />
          </mxGeometry>
        </mxCell>
        <mxCell id="-wRGZAtz3f00x_fr0-pT-12" value="idx" style="shape=partialRectangle;overflow=hidden;connectable=0;fillColor=#eeeeee;top=0;left=0;bottom=0;right=0;align=left;spacingLeft=6;strokeColor=#36393d;" parent="-wRGZAtz3f00x_fr0-pT-10" vertex="1">
          <mxGeometry x="30" width="70" height="20" as="geometry">
            <mxRectangle width="70" height="20" as="alternateBounds" />
          </mxGeometry>
        </mxCell>
        <mxCell id="-wRGZAtz3f00x_fr0-pT-13" value="int" style="shape=partialRectangle;overflow=hidden;connectable=0;fillColor=#eeeeee;top=0;left=0;bottom=0;right=0;align=left;spacingLeft=6;strokeColor=#36393d;" parent="-wRGZAtz3f00x_fr0-pT-10" vertex="1">
          <mxGeometry x="100" width="70" height="20" as="geometry">
            <mxRectangle width="70" height="20" as="alternateBounds" />
          </mxGeometry>
        </mxCell>
        <mxCell id="-wRGZAtz3f00x_fr0-pT-14" value="nn" style="shape=partialRectangle;overflow=hidden;connectable=0;fillColor=#eeeeee;top=0;left=0;bottom=0;right=0;align=left;spacingLeft=6;strokeColor=#36393d;" parent="-wRGZAtz3f00x_fr0-pT-10" vertex="1">
          <mxGeometry x="170" width="30" height="20" as="geometry">
            <mxRectangle width="30" height="20" as="alternateBounds" />
          </mxGeometry>
        </mxCell>
        <mxCell id="-wRGZAtz3f00x_fr0-pT-15" value="auto indx" style="shape=partialRectangle;overflow=hidden;connectable=0;fillColor=#eeeeee;top=0;left=0;bottom=0;right=0;align=left;spacingLeft=6;strokeColor=#36393d;" parent="-wRGZAtz3f00x_fr0-pT-10" vertex="1">
          <mxGeometry x="200" width="60" height="20" as="geometry">
            <mxRectangle width="60" height="20" as="alternateBounds" />
          </mxGeometry>
        </mxCell>
        <mxCell id="-wRGZAtz3f00x_fr0-pT-16" value="1" style="shape=partialRectangle;overflow=hidden;connectable=0;fillColor=#eeeeee;top=0;left=0;bottom=0;right=0;align=left;spacingLeft=6;strokeColor=#36393d;" parent="-wRGZAtz3f00x_fr0-pT-10" vertex="1">
          <mxGeometry x="260" width="30" height="20" as="geometry">
            <mxRectangle width="30" height="20" as="alternateBounds" />
          </mxGeometry>
        </mxCell>
        <mxCell id="-wRGZAtz3f00x_fr0-pT-17" value="브랜치번호" style="shape=partialRectangle;overflow=hidden;connectable=0;fillColor=#eeeeee;top=0;left=0;bottom=0;right=0;align=left;spacingLeft=6;strokeColor=#36393d;" parent="-wRGZAtz3f00x_fr0-pT-10" vertex="1">
          <mxGeometry x="290" width="270" height="20" as="geometry">
            <mxRectangle width="270" height="20" as="alternateBounds" />
          </mxGeometry>
        </mxCell>
        <mxCell id="-wRGZAtz3f00x_fr0-pT-18" value="" style="shape=partialRectangle;collapsible=0;dropTarget=0;pointerEvents=0;fillColor=#eeeeee;points=[[0,0.5],[1,0.5]];portConstraint=eastwest;top=0;left=0;right=0;bottom=0;strokeColor=#36393d;" parent="-wRGZAtz3f00x_fr0-pT-1" vertex="1">
          <mxGeometry y="80" width="560" height="20" as="geometry" />
        </mxCell>
        <mxCell id="-wRGZAtz3f00x_fr0-pT-19" value="fk" style="shape=partialRectangle;overflow=hidden;connectable=0;fillColor=#eeeeee;top=0;left=0;bottom=0;right=0;strokeColor=#36393d;" parent="-wRGZAtz3f00x_fr0-pT-18" vertex="1">
          <mxGeometry width="30" height="20" as="geometry">
            <mxRectangle width="30" height="20" as="alternateBounds" />
          </mxGeometry>
        </mxCell>
        <mxCell id="-wRGZAtz3f00x_fr0-pT-20" value="repo" style="shape=partialRectangle;overflow=hidden;connectable=0;fillColor=#eeeeee;top=0;left=0;bottom=0;right=0;align=left;spacingLeft=6;strokeColor=#36393d;" parent="-wRGZAtz3f00x_fr0-pT-18" vertex="1">
          <mxGeometry x="30" width="70" height="20" as="geometry">
            <mxRectangle width="70" height="20" as="alternateBounds" />
          </mxGeometry>
        </mxCell>
        <mxCell id="-wRGZAtz3f00x_fr0-pT-21" value="int" style="shape=partialRectangle;overflow=hidden;connectable=0;fillColor=#eeeeee;top=0;left=0;bottom=0;right=0;align=left;spacingLeft=6;strokeColor=#36393d;" parent="-wRGZAtz3f00x_fr0-pT-18" vertex="1">
          <mxGeometry x="100" width="70" height="20" as="geometry">
            <mxRectangle width="70" height="20" as="alternateBounds" />
          </mxGeometry>
        </mxCell>
        <mxCell id="-wRGZAtz3f00x_fr0-pT-22" value="nn" style="shape=partialRectangle;overflow=hidden;connectable=0;fillColor=#eeeeee;top=0;left=0;bottom=0;right=0;align=left;spacingLeft=6;strokeColor=#36393d;" parent="-wRGZAtz3f00x_fr0-pT-18" vertex="1">
          <mxGeometry x="170" width="30" height="20" as="geometry">
            <mxRectangle width="30" height="20" as="alternateBounds" />
          </mxGeometry>
        </mxCell>
        <mxCell id="-wRGZAtz3f00x_fr0-pT-23" value="-" style="shape=partialRectangle;overflow=hidden;connectable=0;fillColor=#eeeeee;top=0;left=0;bottom=0;right=0;align=left;spacingLeft=6;strokeColor=#36393d;" parent="-wRGZAtz3f00x_fr0-pT-18" vertex="1">
          <mxGeometry x="200" width="60" height="20" as="geometry">
            <mxRectangle width="60" height="20" as="alternateBounds" />
          </mxGeometry>
        </mxCell>
        <mxCell id="-wRGZAtz3f00x_fr0-pT-24" value="1" style="shape=partialRectangle;overflow=hidden;connectable=0;fillColor=#eeeeee;top=0;left=0;bottom=0;right=0;align=left;spacingLeft=6;strokeColor=#36393d;" parent="-wRGZAtz3f00x_fr0-pT-18" vertex="1">
          <mxGeometry x="260" width="30" height="20" as="geometry">
            <mxRectangle width="30" height="20" as="alternateBounds" />
          </mxGeometry>
        </mxCell>
        <mxCell id="-wRGZAtz3f00x_fr0-pT-25" value="저장소 번호(repo-idx)" style="shape=partialRectangle;overflow=hidden;connectable=0;fillColor=#eeeeee;top=0;left=0;bottom=0;right=0;align=left;spacingLeft=6;strokeColor=#36393d;" parent="-wRGZAtz3f00x_fr0-pT-18" vertex="1">
          <mxGeometry x="290" width="270" height="20" as="geometry">
            <mxRectangle width="270" height="20" as="alternateBounds" />
          </mxGeometry>
        </mxCell>
        <mxCell id="4fUQRXj81w_RESyqWa2g-1" style="shape=partialRectangle;collapsible=0;dropTarget=0;pointerEvents=0;fillColor=#eeeeee;points=[[0,0.5],[1,0.5]];portConstraint=eastwest;top=0;left=0;right=0;bottom=0;strokeColor=#36393d;" parent="-wRGZAtz3f00x_fr0-pT-1" vertex="1">
          <mxGeometry y="100" width="560" height="20" as="geometry" />
        </mxCell>
        <mxCell id="4fUQRXj81w_RESyqWa2g-2" style="shape=partialRectangle;overflow=hidden;connectable=0;fillColor=#eeeeee;top=0;left=0;bottom=0;right=0;strokeColor=#36393d;" parent="4fUQRXj81w_RESyqWa2g-1" vertex="1">
          <mxGeometry width="30" height="20" as="geometry">
            <mxRectangle width="30" height="20" as="alternateBounds" />
          </mxGeometry>
        </mxCell>
        <mxCell id="4fUQRXj81w_RESyqWa2g-3" value="name" style="shape=partialRectangle;overflow=hidden;connectable=0;fillColor=#eeeeee;top=0;left=0;bottom=0;right=0;align=left;spacingLeft=6;strokeColor=#36393d;" parent="4fUQRXj81w_RESyqWa2g-1" vertex="1">
          <mxGeometry x="30" width="70" height="20" as="geometry">
            <mxRectangle width="70" height="20" as="alternateBounds" />
          </mxGeometry>
        </mxCell>
        <mxCell id="4fUQRXj81w_RESyqWa2g-4" value="varchar(45)" style="shape=partialRectangle;overflow=hidden;connectable=0;fillColor=#eeeeee;top=0;left=0;bottom=0;right=0;align=left;spacingLeft=6;strokeColor=#36393d;" parent="4fUQRXj81w_RESyqWa2g-1" vertex="1">
          <mxGeometry x="100" width="70" height="20" as="geometry">
            <mxRectangle width="70" height="20" as="alternateBounds" />
          </mxGeometry>
        </mxCell>
        <mxCell id="4fUQRXj81w_RESyqWa2g-5" value="nn" style="shape=partialRectangle;overflow=hidden;connectable=0;fillColor=#eeeeee;top=0;left=0;bottom=0;right=0;align=left;spacingLeft=6;strokeColor=#36393d;" parent="4fUQRXj81w_RESyqWa2g-1" vertex="1">
          <mxGeometry x="170" width="30" height="20" as="geometry">
            <mxRectangle width="30" height="20" as="alternateBounds" />
          </mxGeometry>
        </mxCell>
        <mxCell id="4fUQRXj81w_RESyqWa2g-6" style="shape=partialRectangle;overflow=hidden;connectable=0;fillColor=#eeeeee;top=0;left=0;bottom=0;right=0;align=left;spacingLeft=6;strokeColor=#36393d;" parent="4fUQRXj81w_RESyqWa2g-1" vertex="1">
          <mxGeometry x="200" width="60" height="20" as="geometry">
            <mxRectangle width="60" height="20" as="alternateBounds" />
          </mxGeometry>
        </mxCell>
        <mxCell id="4fUQRXj81w_RESyqWa2g-7" value="sub" style="shape=partialRectangle;overflow=hidden;connectable=0;fillColor=#eeeeee;top=0;left=0;bottom=0;right=0;align=left;spacingLeft=6;strokeColor=#36393d;" parent="4fUQRXj81w_RESyqWa2g-1" vertex="1">
          <mxGeometry x="260" width="30" height="20" as="geometry">
            <mxRectangle width="30" height="20" as="alternateBounds" />
          </mxGeometry>
        </mxCell>
        <mxCell id="4fUQRXj81w_RESyqWa2g-8" value="branch 이름" style="shape=partialRectangle;overflow=hidden;connectable=0;fillColor=#eeeeee;top=0;left=0;bottom=0;right=0;align=left;spacingLeft=6;strokeColor=#36393d;" parent="4fUQRXj81w_RESyqWa2g-1" vertex="1">
          <mxGeometry x="290" width="270" height="20" as="geometry">
            <mxRectangle width="270" height="20" as="alternateBounds" />
          </mxGeometry>
        </mxCell>
        <mxCell id="-wRGZAtz3f00x_fr0-pT-42" style="shape=partialRectangle;collapsible=0;dropTarget=0;pointerEvents=0;fillColor=#eeeeee;points=[[0,0.5],[1,0.5]];portConstraint=eastwest;top=0;left=0;right=0;bottom=0;strokeColor=#36393d;" parent="-wRGZAtz3f00x_fr0-pT-1" vertex="1">
          <mxGeometry y="120" width="560" height="40" as="geometry" />
        </mxCell>
        <mxCell id="-wRGZAtz3f00x_fr0-pT-43" style="shape=partialRectangle;overflow=hidden;connectable=0;fillColor=#eeeeee;top=0;left=0;bottom=0;right=0;strokeColor=#36393d;" parent="-wRGZAtz3f00x_fr0-pT-42" vertex="1">
          <mxGeometry width="30" height="40" as="geometry">
            <mxRectangle width="30" height="40" as="alternateBounds" />
          </mxGeometry>
        </mxCell>
        <mxCell id="-wRGZAtz3f00x_fr0-pT-44" value="post" style="shape=partialRectangle;overflow=hidden;connectable=0;fillColor=#eeeeee;top=0;left=0;bottom=0;right=0;align=left;spacingLeft=6;strokeColor=#36393d;" parent="-wRGZAtz3f00x_fr0-pT-42" vertex="1">
          <mxGeometry x="30" width="70" height="40" as="geometry">
            <mxRectangle width="70" height="40" as="alternateBounds" />
          </mxGeometry>
        </mxCell>
        <mxCell id="-wRGZAtz3f00x_fr0-pT-45" value="tinyint(1)" style="shape=partialRectangle;overflow=hidden;connectable=0;fillColor=#eeeeee;top=0;left=0;bottom=0;right=0;align=left;spacingLeft=6;strokeColor=#36393d;" parent="-wRGZAtz3f00x_fr0-pT-42" vertex="1">
          <mxGeometry x="100" width="70" height="40" as="geometry">
            <mxRectangle width="70" height="40" as="alternateBounds" />
          </mxGeometry>
        </mxCell>
        <mxCell id="-wRGZAtz3f00x_fr0-pT-46" value="nn" style="shape=partialRectangle;overflow=hidden;connectable=0;fillColor=#eeeeee;top=0;left=0;bottom=0;right=0;align=left;spacingLeft=6;strokeColor=#36393d;" parent="-wRGZAtz3f00x_fr0-pT-42" vertex="1">
          <mxGeometry x="170" width="30" height="40" as="geometry">
            <mxRectangle width="30" height="40" as="alternateBounds" />
          </mxGeometry>
        </mxCell>
        <mxCell id="-wRGZAtz3f00x_fr0-pT-47" value="1" style="shape=partialRectangle;overflow=hidden;connectable=0;fillColor=#eeeeee;top=0;left=0;bottom=0;right=0;align=left;spacingLeft=6;strokeColor=#36393d;" parent="-wRGZAtz3f00x_fr0-pT-42" vertex="1">
          <mxGeometry x="200" width="60" height="40" as="geometry">
            <mxRectangle width="60" height="40" as="alternateBounds" />
          </mxGeometry>
        </mxCell>
        <mxCell id="-wRGZAtz3f00x_fr0-pT-48" value="0" style="shape=partialRectangle;overflow=hidden;connectable=0;fillColor=#eeeeee;top=0;left=0;bottom=0;right=0;align=left;spacingLeft=6;strokeColor=#36393d;" parent="-wRGZAtz3f00x_fr0-pT-42" vertex="1">
          <mxGeometry x="260" width="30" height="40" as="geometry">
            <mxRectangle width="30" height="40" as="alternateBounds" />
          </mxGeometry>
        </mxCell>
        <mxCell id="-wRGZAtz3f00x_fr0-pT-49" value="브랜치는 삭제가 되어도 파일은 삭제 되지 않는다.&#xa;post가 0이면 브랜치 목록에 보이지 않는다." style="shape=partialRectangle;overflow=hidden;connectable=0;fillColor=#eeeeee;top=0;left=0;bottom=0;right=0;align=left;spacingLeft=6;strokeColor=#36393d;" parent="-wRGZAtz3f00x_fr0-pT-42" vertex="1">
          <mxGeometry x="290" width="270" height="40" as="geometry">
            <mxRectangle width="270" height="40" as="alternateBounds" />
          </mxGeometry>
        </mxCell>
        <object label="REPOMEM(저장소 맴버)" idx="" id="-wRGZAtz3f00x_fr0-pT-50">
          <mxCell style="shape=table;startSize=30;container=1;collapsible=1;childLayout=tableLayout;fixedRows=1;rowLines=0;fontStyle=1;align=center;resizeLast=1;fillColor=#cce5ff;strokeColor=#36393d;fontSize=18;" parent="1" vertex="1">
            <mxGeometry x="-1780" y="-690" width="460" height="120" as="geometry" />
          </mxCell>
        </object>
        <mxCell id="-wRGZAtz3f00x_fr0-pT-51" value="" style="shape=partialRectangle;collapsible=0;dropTarget=0;pointerEvents=0;fillColor=#eeeeee;points=[[0,0.5],[1,0.5]];portConstraint=eastwest;top=0;left=0;right=0;bottom=1;strokeColor=#36393d;" parent="-wRGZAtz3f00x_fr0-pT-50" vertex="1">
          <mxGeometry y="30" width="460" height="30" as="geometry" />
        </mxCell>
        <mxCell id="-wRGZAtz3f00x_fr0-pT-52" value="KEY" style="shape=partialRectangle;overflow=hidden;connectable=0;fillColor=#eeeeee;top=0;left=0;bottom=0;right=0;fontStyle=1;strokeColor=#36393d;" parent="-wRGZAtz3f00x_fr0-pT-51" vertex="1">
          <mxGeometry width="30" height="30" as="geometry">
            <mxRectangle width="30" height="30" as="alternateBounds" />
          </mxGeometry>
        </mxCell>
        <mxCell id="-wRGZAtz3f00x_fr0-pT-53" value="ATT" style="shape=partialRectangle;overflow=hidden;connectable=0;fillColor=#eeeeee;top=0;left=0;bottom=0;right=0;align=left;spacingLeft=6;fontStyle=5;strokeColor=#36393d;" parent="-wRGZAtz3f00x_fr0-pT-51" vertex="1">
          <mxGeometry x="30" width="70" height="30" as="geometry">
            <mxRectangle width="70" height="30" as="alternateBounds" />
          </mxGeometry>
        </mxCell>
        <mxCell id="-wRGZAtz3f00x_fr0-pT-54" value="DATA" style="shape=partialRectangle;overflow=hidden;connectable=0;fillColor=#eeeeee;top=0;left=0;bottom=0;right=0;align=left;spacingLeft=6;fontStyle=5;strokeColor=#36393d;" parent="-wRGZAtz3f00x_fr0-pT-51" vertex="1">
          <mxGeometry x="100" width="70" height="30" as="geometry">
            <mxRectangle width="70" height="30" as="alternateBounds" />
          </mxGeometry>
        </mxCell>
        <mxCell id="-wRGZAtz3f00x_fr0-pT-55" value="NN" style="shape=partialRectangle;overflow=hidden;connectable=0;fillColor=#eeeeee;top=0;left=0;bottom=0;right=0;align=left;spacingLeft=6;fontStyle=5;strokeColor=#36393d;" parent="-wRGZAtz3f00x_fr0-pT-51" vertex="1">
          <mxGeometry x="170" width="30" height="30" as="geometry">
            <mxRectangle width="30" height="30" as="alternateBounds" />
          </mxGeometry>
        </mxCell>
        <mxCell id="-wRGZAtz3f00x_fr0-pT-56" value="DEFAULT" style="shape=partialRectangle;overflow=hidden;connectable=0;fillColor=#eeeeee;top=0;left=0;bottom=0;right=0;align=left;spacingLeft=6;fontStyle=5;strokeColor=#36393d;" parent="-wRGZAtz3f00x_fr0-pT-51" vertex="1">
          <mxGeometry x="200" width="60" height="30" as="geometry">
            <mxRectangle width="60" height="30" as="alternateBounds" />
          </mxGeometry>
        </mxCell>
        <mxCell id="-wRGZAtz3f00x_fr0-pT-57" value="EX" style="shape=partialRectangle;overflow=hidden;connectable=0;fillColor=#eeeeee;top=0;left=0;bottom=0;right=0;align=left;spacingLeft=6;fontStyle=5;strokeColor=#36393d;" parent="-wRGZAtz3f00x_fr0-pT-51" vertex="1">
          <mxGeometry x="260" width="60" height="30" as="geometry">
            <mxRectangle width="60" height="30" as="alternateBounds" />
          </mxGeometry>
        </mxCell>
        <mxCell id="-wRGZAtz3f00x_fr0-pT-58" value="설명" style="shape=partialRectangle;overflow=hidden;connectable=0;fillColor=#eeeeee;top=0;left=0;bottom=0;right=0;align=left;spacingLeft=6;fontStyle=5;strokeColor=#36393d;" parent="-wRGZAtz3f00x_fr0-pT-51" vertex="1">
          <mxGeometry x="320" width="140" height="30" as="geometry">
            <mxRectangle width="140" height="30" as="alternateBounds" />
          </mxGeometry>
        </mxCell>
        <mxCell id="-wRGZAtz3f00x_fr0-pT-59" style="shape=partialRectangle;collapsible=0;dropTarget=0;pointerEvents=0;fillColor=#eeeeee;points=[[0,0.5],[1,0.5]];portConstraint=eastwest;top=0;left=0;right=0;bottom=0;strokeColor=#36393d;" parent="-wRGZAtz3f00x_fr0-pT-50" vertex="1">
          <mxGeometry y="60" width="460" height="20" as="geometry" />
        </mxCell>
        <mxCell id="-wRGZAtz3f00x_fr0-pT-60" value="pk" style="shape=partialRectangle;overflow=hidden;connectable=0;fillColor=#eeeeee;top=0;left=0;bottom=0;right=0;strokeColor=#36393d;" parent="-wRGZAtz3f00x_fr0-pT-59" vertex="1">
          <mxGeometry width="30" height="20" as="geometry">
            <mxRectangle width="30" height="20" as="alternateBounds" />
          </mxGeometry>
        </mxCell>
        <mxCell id="-wRGZAtz3f00x_fr0-pT-61" value="idx" style="shape=partialRectangle;overflow=hidden;connectable=0;fillColor=#eeeeee;top=0;left=0;bottom=0;right=0;align=left;spacingLeft=6;strokeColor=#36393d;" parent="-wRGZAtz3f00x_fr0-pT-59" vertex="1">
          <mxGeometry x="30" width="70" height="20" as="geometry">
            <mxRectangle width="70" height="20" as="alternateBounds" />
          </mxGeometry>
        </mxCell>
        <mxCell id="-wRGZAtz3f00x_fr0-pT-62" value="int" style="shape=partialRectangle;overflow=hidden;connectable=0;fillColor=#eeeeee;top=0;left=0;bottom=0;right=0;align=left;spacingLeft=6;strokeColor=#36393d;" parent="-wRGZAtz3f00x_fr0-pT-59" vertex="1">
          <mxGeometry x="100" width="70" height="20" as="geometry">
            <mxRectangle width="70" height="20" as="alternateBounds" />
          </mxGeometry>
        </mxCell>
        <mxCell id="-wRGZAtz3f00x_fr0-pT-63" value="nn" style="shape=partialRectangle;overflow=hidden;connectable=0;fillColor=#eeeeee;top=0;left=0;bottom=0;right=0;align=left;spacingLeft=6;strokeColor=#36393d;" parent="-wRGZAtz3f00x_fr0-pT-59" vertex="1">
          <mxGeometry x="170" width="30" height="20" as="geometry">
            <mxRectangle width="30" height="20" as="alternateBounds" />
          </mxGeometry>
        </mxCell>
        <mxCell id="-wRGZAtz3f00x_fr0-pT-64" value="auto indx" style="shape=partialRectangle;overflow=hidden;connectable=0;fillColor=#eeeeee;top=0;left=0;bottom=0;right=0;align=left;spacingLeft=6;strokeColor=#36393d;" parent="-wRGZAtz3f00x_fr0-pT-59" vertex="1">
          <mxGeometry x="200" width="60" height="20" as="geometry">
            <mxRectangle width="60" height="20" as="alternateBounds" />
          </mxGeometry>
        </mxCell>
        <mxCell id="-wRGZAtz3f00x_fr0-pT-65" value="1" style="shape=partialRectangle;overflow=hidden;connectable=0;fillColor=#eeeeee;top=0;left=0;bottom=0;right=0;align=left;spacingLeft=6;strokeColor=#36393d;" parent="-wRGZAtz3f00x_fr0-pT-59" vertex="1">
          <mxGeometry x="260" width="60" height="20" as="geometry">
            <mxRectangle width="60" height="20" as="alternateBounds" />
          </mxGeometry>
        </mxCell>
        <mxCell id="-wRGZAtz3f00x_fr0-pT-66" value="idx" style="shape=partialRectangle;overflow=hidden;connectable=0;fillColor=#eeeeee;top=0;left=0;bottom=0;right=0;align=left;spacingLeft=6;strokeColor=#36393d;" parent="-wRGZAtz3f00x_fr0-pT-59" vertex="1">
          <mxGeometry x="320" width="140" height="20" as="geometry">
            <mxRectangle width="140" height="20" as="alternateBounds" />
          </mxGeometry>
        </mxCell>
        <mxCell id="-wRGZAtz3f00x_fr0-pT-67" value="" style="shape=partialRectangle;collapsible=0;dropTarget=0;pointerEvents=0;fillColor=#eeeeee;points=[[0,0.5],[1,0.5]];portConstraint=eastwest;top=0;left=0;right=0;bottom=0;strokeColor=#36393d;" parent="-wRGZAtz3f00x_fr0-pT-50" vertex="1">
          <mxGeometry y="80" width="460" height="20" as="geometry" />
        </mxCell>
        <mxCell id="-wRGZAtz3f00x_fr0-pT-68" value="fk" style="shape=partialRectangle;overflow=hidden;connectable=0;fillColor=#eeeeee;top=0;left=0;bottom=0;right=0;strokeColor=#36393d;" parent="-wRGZAtz3f00x_fr0-pT-67" vertex="1">
          <mxGeometry width="30" height="20" as="geometry">
            <mxRectangle width="30" height="20" as="alternateBounds" />
          </mxGeometry>
        </mxCell>
        <mxCell id="-wRGZAtz3f00x_fr0-pT-69" value="repo" style="shape=partialRectangle;overflow=hidden;connectable=0;fillColor=#eeeeee;top=0;left=0;bottom=0;right=0;align=left;spacingLeft=6;strokeColor=#36393d;" parent="-wRGZAtz3f00x_fr0-pT-67" vertex="1">
          <mxGeometry x="30" width="70" height="20" as="geometry">
            <mxRectangle width="70" height="20" as="alternateBounds" />
          </mxGeometry>
        </mxCell>
        <mxCell id="-wRGZAtz3f00x_fr0-pT-70" value="int" style="shape=partialRectangle;overflow=hidden;connectable=0;fillColor=#eeeeee;top=0;left=0;bottom=0;right=0;align=left;spacingLeft=6;strokeColor=#36393d;" parent="-wRGZAtz3f00x_fr0-pT-67" vertex="1">
          <mxGeometry x="100" width="70" height="20" as="geometry">
            <mxRectangle width="70" height="20" as="alternateBounds" />
          </mxGeometry>
        </mxCell>
        <mxCell id="-wRGZAtz3f00x_fr0-pT-71" value="nn" style="shape=partialRectangle;overflow=hidden;connectable=0;fillColor=#eeeeee;top=0;left=0;bottom=0;right=0;align=left;spacingLeft=6;strokeColor=#36393d;" parent="-wRGZAtz3f00x_fr0-pT-67" vertex="1">
          <mxGeometry x="170" width="30" height="20" as="geometry">
            <mxRectangle width="30" height="20" as="alternateBounds" />
          </mxGeometry>
        </mxCell>
        <mxCell id="-wRGZAtz3f00x_fr0-pT-72" value="-" style="shape=partialRectangle;overflow=hidden;connectable=0;fillColor=#eeeeee;top=0;left=0;bottom=0;right=0;align=left;spacingLeft=6;strokeColor=#36393d;" parent="-wRGZAtz3f00x_fr0-pT-67" vertex="1">
          <mxGeometry x="200" width="60" height="20" as="geometry">
            <mxRectangle width="60" height="20" as="alternateBounds" />
          </mxGeometry>
        </mxCell>
        <mxCell id="-wRGZAtz3f00x_fr0-pT-73" value="22" style="shape=partialRectangle;overflow=hidden;connectable=0;fillColor=#eeeeee;top=0;left=0;bottom=0;right=0;align=left;spacingLeft=6;strokeColor=#36393d;" parent="-wRGZAtz3f00x_fr0-pT-67" vertex="1">
          <mxGeometry x="260" width="60" height="20" as="geometry">
            <mxRectangle width="60" height="20" as="alternateBounds" />
          </mxGeometry>
        </mxCell>
        <mxCell id="-wRGZAtz3f00x_fr0-pT-74" value="저장소 번호(repo-idx)" style="shape=partialRectangle;overflow=hidden;connectable=0;fillColor=#eeeeee;top=0;left=0;bottom=0;right=0;align=left;spacingLeft=6;strokeColor=#36393d;" parent="-wRGZAtz3f00x_fr0-pT-67" vertex="1">
          <mxGeometry x="320" width="140" height="20" as="geometry">
            <mxRectangle width="140" height="20" as="alternateBounds" />
          </mxGeometry>
        </mxCell>
        <mxCell id="-wRGZAtz3f00x_fr0-pT-75" style="shape=partialRectangle;collapsible=0;dropTarget=0;pointerEvents=0;fillColor=#eeeeee;points=[[0,0.5],[1,0.5]];portConstraint=eastwest;top=0;left=0;right=0;bottom=0;strokeColor=#36393d;" parent="-wRGZAtz3f00x_fr0-pT-50" vertex="1">
          <mxGeometry y="100" width="460" height="20" as="geometry" />
        </mxCell>
        <mxCell id="-wRGZAtz3f00x_fr0-pT-76" value="fk" style="shape=partialRectangle;overflow=hidden;connectable=0;fillColor=#eeeeee;top=0;left=0;bottom=0;right=0;strokeColor=#36393d;" parent="-wRGZAtz3f00x_fr0-pT-75" vertex="1">
          <mxGeometry width="30" height="20" as="geometry">
            <mxRectangle width="30" height="20" as="alternateBounds" />
          </mxGeometry>
        </mxCell>
        <mxCell id="-wRGZAtz3f00x_fr0-pT-77" value="member" style="shape=partialRectangle;overflow=hidden;connectable=0;fillColor=#eeeeee;top=0;left=0;bottom=0;right=0;align=left;spacingLeft=6;strokeColor=#36393d;" parent="-wRGZAtz3f00x_fr0-pT-75" vertex="1">
          <mxGeometry x="30" width="70" height="20" as="geometry">
            <mxRectangle width="70" height="20" as="alternateBounds" />
          </mxGeometry>
        </mxCell>
        <mxCell id="-wRGZAtz3f00x_fr0-pT-78" value="int" style="shape=partialRectangle;overflow=hidden;connectable=0;fillColor=#eeeeee;top=0;left=0;bottom=0;right=0;align=left;spacingLeft=6;strokeColor=#36393d;" parent="-wRGZAtz3f00x_fr0-pT-75" vertex="1">
          <mxGeometry x="100" width="70" height="20" as="geometry">
            <mxRectangle width="70" height="20" as="alternateBounds" />
          </mxGeometry>
        </mxCell>
        <mxCell id="-wRGZAtz3f00x_fr0-pT-79" value="nn" style="shape=partialRectangle;overflow=hidden;connectable=0;fillColor=#eeeeee;top=0;left=0;bottom=0;right=0;align=left;spacingLeft=6;strokeColor=#36393d;" parent="-wRGZAtz3f00x_fr0-pT-75" vertex="1">
          <mxGeometry x="170" width="30" height="20" as="geometry">
            <mxRectangle width="30" height="20" as="alternateBounds" />
          </mxGeometry>
        </mxCell>
        <mxCell id="-wRGZAtz3f00x_fr0-pT-80" value="-" style="shape=partialRectangle;overflow=hidden;connectable=0;fillColor=#eeeeee;top=0;left=0;bottom=0;right=0;align=left;spacingLeft=6;strokeColor=#36393d;" parent="-wRGZAtz3f00x_fr0-pT-75" vertex="1">
          <mxGeometry x="200" width="60" height="20" as="geometry">
            <mxRectangle width="60" height="20" as="alternateBounds" />
          </mxGeometry>
        </mxCell>
        <mxCell id="-wRGZAtz3f00x_fr0-pT-81" value="10" style="shape=partialRectangle;overflow=hidden;connectable=0;fillColor=#eeeeee;top=0;left=0;bottom=0;right=0;align=left;spacingLeft=6;strokeColor=#36393d;" parent="-wRGZAtz3f00x_fr0-pT-75" vertex="1">
          <mxGeometry x="260" width="60" height="20" as="geometry">
            <mxRectangle width="60" height="20" as="alternateBounds" />
          </mxGeometry>
        </mxCell>
        <mxCell id="-wRGZAtz3f00x_fr0-pT-82" value="회원 번호(member-idx)" style="shape=partialRectangle;overflow=hidden;connectable=0;fillColor=#eeeeee;top=0;left=0;bottom=0;right=0;align=left;spacingLeft=6;strokeColor=#36393d;" parent="-wRGZAtz3f00x_fr0-pT-75" vertex="1">
          <mxGeometry x="320" width="140" height="20" as="geometry">
            <mxRectangle width="140" height="20" as="alternateBounds" />
          </mxGeometry>
        </mxCell>
        <mxCell id="-wRGZAtz3f00x_fr0-pT-100" value="" style="endArrow=ERzeroToMany;html=1;rounded=0;endFill=0;startArrow=ERone;startFill=0;entryX=1;entryY=0.5;entryDx=0;entryDy=0;" parent="1" target="-wRGZAtz3f00x_fr0-pT-59" edge="1">
          <mxGeometry width="50" height="50" relative="1" as="geometry">
            <mxPoint x="-1230" y="-620" as="sourcePoint" />
            <mxPoint x="-1540" y="-750" as="targetPoint" />
          </mxGeometry>
        </mxCell>
        <mxCell id="-wRGZAtz3f00x_fr0-pT-102" value="" style="endArrow=ERzeroToMany;html=1;rounded=0;endFill=0;startArrow=ERone;startFill=0;entryX=0.02;entryY=1;entryDx=0;entryDy=0;entryPerimeter=0;" parent="1" target="-wRGZAtz3f00x_fr0-pT-42" edge="1">
          <mxGeometry width="50" height="50" relative="1" as="geometry">
            <mxPoint x="-930" y="-970" as="sourcePoint" />
            <mxPoint x="-620" y="-1070" as="targetPoint" />
            <Array as="points">
              <mxPoint x="-930" y="-1020" />
              <mxPoint x="-620" y="-1020" />
            </Array>
          </mxGeometry>
        </mxCell>
        <mxCell id="-wRGZAtz3f00x_fr0-pT-103" value="" style="endArrow=ERzeroToMany;html=1;rounded=0;endFill=0;startArrow=ERone;startFill=0;" parent="1" edge="1">
          <mxGeometry width="50" height="50" relative="1" as="geometry">
            <mxPoint x="-800" y="-730" as="sourcePoint" />
            <mxPoint x="-430" y="-800" as="targetPoint" />
            <Array as="points">
              <mxPoint x="-800" y="-750" />
              <mxPoint x="-430" y="-750" />
            </Array>
          </mxGeometry>
        </mxCell>
        <mxCell id="-wRGZAtz3f00x_fr0-pT-104" value="" style="endArrow=ERoneToMany;html=1;rounded=0;endFill=0;startArrow=ERmandOne;startFill=0;entryX=0;entryY=0.5;entryDx=0;entryDy=0;" parent="1" target="yEf2gbcgYrwrFwAvnMjx-394" edge="1">
          <mxGeometry width="50" height="50" relative="1" as="geometry">
            <mxPoint x="-710" y="-890" as="sourcePoint" />
            <mxPoint x="-600" y="-908" as="targetPoint" />
            <Array as="points" />
          </mxGeometry>
        </mxCell>
        <mxCell id="-wRGZAtz3f00x_fr0-pT-105" value="" style="endArrow=ERzeroToMany;html=1;rounded=0;exitX=0.25;exitY=1;exitDx=0;exitDy=0;entryX=0.197;entryY=0.008;entryDx=0;entryDy=0;entryPerimeter=0;endFill=0;startArrow=ERone;startFill=0;" parent="1" source="-wRGZAtz3f00x_fr0-pT-1" target="yEf2gbcgYrwrFwAvnMjx-369" edge="1">
          <mxGeometry width="50" height="50" relative="1" as="geometry">
            <mxPoint x="-790" y="-1080" as="sourcePoint" />
            <mxPoint x="-740" y="-1130" as="targetPoint" />
          </mxGeometry>
        </mxCell>
        <mxCell id="jV_eMt8lWbeipAzmGlRH-9" value="" style="endArrow=ERzeroToMany;html=1;rounded=0;endFill=0;startArrow=ERone;startFill=0;entryX=0.492;entryY=1.044;entryDx=0;entryDy=0;entryPerimeter=0;" parent="1" source="C-vyLk0tnHw3VtMMgP7b-23" target="jV_eMt8lWbeipAzmGlRH-54" edge="1">
          <mxGeometry width="50" height="50" relative="1" as="geometry">
            <mxPoint x="-970" y="-750" as="sourcePoint" />
            <mxPoint x="-975" y="-790" as="targetPoint" />
          </mxGeometry>
        </mxCell>
        <mxCell id="jV_eMt8lWbeipAzmGlRH-10" value="" style="endArrow=ERzeroToMany;html=1;rounded=0;entryX=0.856;entryY=0.006;entryDx=0;entryDy=0;entryPerimeter=0;endFill=0;startArrow=ERone;startFill=0;" parent="1" target="-wRGZAtz3f00x_fr0-pT-50" edge="1">
          <mxGeometry width="50" height="50" relative="1" as="geometry">
            <mxPoint x="-1200" y="-780" as="sourcePoint" />
            <mxPoint x="-1190" y="-760" as="targetPoint" />
            <Array as="points">
              <mxPoint x="-1200" y="-740" />
              <mxPoint x="-1386" y="-740" />
            </Array>
          </mxGeometry>
        </mxCell>
        <object label="PULLREQ(병합요청)" idx="" id="jV_eMt8lWbeipAzmGlRH-63">
          <mxCell style="shape=table;startSize=30;container=1;collapsible=1;childLayout=tableLayout;fixedRows=1;rowLines=0;fontStyle=1;align=center;resizeLast=1;fillColor=#cce5ff;strokeColor=#36393d;fontSize=18;" parent="1" vertex="1">
            <mxGeometry x="-620" y="-700" width="600" height="200" as="geometry" />
          </mxCell>
        </object>
        <mxCell id="jV_eMt8lWbeipAzmGlRH-64" value="" style="shape=partialRectangle;collapsible=0;dropTarget=0;pointerEvents=0;fillColor=#eeeeee;points=[[0,0.5],[1,0.5]];portConstraint=eastwest;top=0;left=0;right=0;bottom=1;strokeColor=#36393d;" parent="jV_eMt8lWbeipAzmGlRH-63" vertex="1">
          <mxGeometry y="30" width="600" height="30" as="geometry" />
        </mxCell>
        <mxCell id="jV_eMt8lWbeipAzmGlRH-65" value="KEY" style="shape=partialRectangle;overflow=hidden;connectable=0;fillColor=#eeeeee;top=0;left=0;bottom=0;right=0;fontStyle=1;strokeColor=#36393d;" parent="jV_eMt8lWbeipAzmGlRH-64" vertex="1">
          <mxGeometry width="30" height="30" as="geometry">
            <mxRectangle width="30" height="30" as="alternateBounds" />
          </mxGeometry>
        </mxCell>
        <mxCell id="jV_eMt8lWbeipAzmGlRH-66" value="ATT" style="shape=partialRectangle;overflow=hidden;connectable=0;fillColor=#eeeeee;top=0;left=0;bottom=0;right=0;align=left;spacingLeft=6;fontStyle=5;strokeColor=#36393d;" parent="jV_eMt8lWbeipAzmGlRH-64" vertex="1">
          <mxGeometry x="30" width="70" height="30" as="geometry">
            <mxRectangle width="70" height="30" as="alternateBounds" />
          </mxGeometry>
        </mxCell>
        <mxCell id="jV_eMt8lWbeipAzmGlRH-67" value="DATA" style="shape=partialRectangle;overflow=hidden;connectable=0;fillColor=#eeeeee;top=0;left=0;bottom=0;right=0;align=left;spacingLeft=6;fontStyle=5;strokeColor=#36393d;" parent="jV_eMt8lWbeipAzmGlRH-64" vertex="1">
          <mxGeometry x="100" width="70" height="30" as="geometry">
            <mxRectangle width="70" height="30" as="alternateBounds" />
          </mxGeometry>
        </mxCell>
        <mxCell id="jV_eMt8lWbeipAzmGlRH-68" value="NN" style="shape=partialRectangle;overflow=hidden;connectable=0;fillColor=#eeeeee;top=0;left=0;bottom=0;right=0;align=left;spacingLeft=6;fontStyle=5;strokeColor=#36393d;" parent="jV_eMt8lWbeipAzmGlRH-64" vertex="1">
          <mxGeometry x="170" width="30" height="30" as="geometry">
            <mxRectangle width="30" height="30" as="alternateBounds" />
          </mxGeometry>
        </mxCell>
        <mxCell id="jV_eMt8lWbeipAzmGlRH-69" value="DEFAULT" style="shape=partialRectangle;overflow=hidden;connectable=0;fillColor=#eeeeee;top=0;left=0;bottom=0;right=0;align=left;spacingLeft=6;fontStyle=5;strokeColor=#36393d;" parent="jV_eMt8lWbeipAzmGlRH-64" vertex="1">
          <mxGeometry x="200" width="60" height="30" as="geometry">
            <mxRectangle width="60" height="30" as="alternateBounds" />
          </mxGeometry>
        </mxCell>
        <mxCell id="jV_eMt8lWbeipAzmGlRH-70" value="EX" style="shape=partialRectangle;overflow=hidden;connectable=0;fillColor=#eeeeee;top=0;left=0;bottom=0;right=0;align=left;spacingLeft=6;fontStyle=5;strokeColor=#36393d;" parent="jV_eMt8lWbeipAzmGlRH-64" vertex="1">
          <mxGeometry x="260" width="80" height="30" as="geometry">
            <mxRectangle width="80" height="30" as="alternateBounds" />
          </mxGeometry>
        </mxCell>
        <mxCell id="jV_eMt8lWbeipAzmGlRH-71" value="설명" style="shape=partialRectangle;overflow=hidden;connectable=0;fillColor=#eeeeee;top=0;left=0;bottom=0;right=0;align=left;spacingLeft=6;fontStyle=5;strokeColor=#36393d;" parent="jV_eMt8lWbeipAzmGlRH-64" vertex="1">
          <mxGeometry x="340" width="260" height="30" as="geometry">
            <mxRectangle width="260" height="30" as="alternateBounds" />
          </mxGeometry>
        </mxCell>
        <mxCell id="jV_eMt8lWbeipAzmGlRH-72" style="shape=partialRectangle;collapsible=0;dropTarget=0;pointerEvents=0;fillColor=#eeeeee;points=[[0,0.5],[1,0.5]];portConstraint=eastwest;top=0;left=0;right=0;bottom=0;strokeColor=#36393d;" parent="jV_eMt8lWbeipAzmGlRH-63" vertex="1">
          <mxGeometry y="60" width="600" height="20" as="geometry" />
        </mxCell>
        <mxCell id="jV_eMt8lWbeipAzmGlRH-73" value="pk" style="shape=partialRectangle;overflow=hidden;connectable=0;fillColor=#eeeeee;top=0;left=0;bottom=0;right=0;strokeColor=#36393d;" parent="jV_eMt8lWbeipAzmGlRH-72" vertex="1">
          <mxGeometry width="30" height="20" as="geometry">
            <mxRectangle width="30" height="20" as="alternateBounds" />
          </mxGeometry>
        </mxCell>
        <mxCell id="jV_eMt8lWbeipAzmGlRH-74" value="idx" style="shape=partialRectangle;overflow=hidden;connectable=0;fillColor=#eeeeee;top=0;left=0;bottom=0;right=0;align=left;spacingLeft=6;strokeColor=#36393d;" parent="jV_eMt8lWbeipAzmGlRH-72" vertex="1">
          <mxGeometry x="30" width="70" height="20" as="geometry">
            <mxRectangle width="70" height="20" as="alternateBounds" />
          </mxGeometry>
        </mxCell>
        <mxCell id="jV_eMt8lWbeipAzmGlRH-75" value="int" style="shape=partialRectangle;overflow=hidden;connectable=0;fillColor=#eeeeee;top=0;left=0;bottom=0;right=0;align=left;spacingLeft=6;strokeColor=#36393d;" parent="jV_eMt8lWbeipAzmGlRH-72" vertex="1">
          <mxGeometry x="100" width="70" height="20" as="geometry">
            <mxRectangle width="70" height="20" as="alternateBounds" />
          </mxGeometry>
        </mxCell>
        <mxCell id="jV_eMt8lWbeipAzmGlRH-76" value="nn" style="shape=partialRectangle;overflow=hidden;connectable=0;fillColor=#eeeeee;top=0;left=0;bottom=0;right=0;align=left;spacingLeft=6;strokeColor=#36393d;" parent="jV_eMt8lWbeipAzmGlRH-72" vertex="1">
          <mxGeometry x="170" width="30" height="20" as="geometry">
            <mxRectangle width="30" height="20" as="alternateBounds" />
          </mxGeometry>
        </mxCell>
        <mxCell id="jV_eMt8lWbeipAzmGlRH-77" value="auto indx" style="shape=partialRectangle;overflow=hidden;connectable=0;fillColor=#eeeeee;top=0;left=0;bottom=0;right=0;align=left;spacingLeft=6;strokeColor=#36393d;" parent="jV_eMt8lWbeipAzmGlRH-72" vertex="1">
          <mxGeometry x="200" width="60" height="20" as="geometry">
            <mxRectangle width="60" height="20" as="alternateBounds" />
          </mxGeometry>
        </mxCell>
        <mxCell id="jV_eMt8lWbeipAzmGlRH-78" value="1" style="shape=partialRectangle;overflow=hidden;connectable=0;fillColor=#eeeeee;top=0;left=0;bottom=0;right=0;align=left;spacingLeft=6;strokeColor=#36393d;" parent="jV_eMt8lWbeipAzmGlRH-72" vertex="1">
          <mxGeometry x="260" width="80" height="20" as="geometry">
            <mxRectangle width="80" height="20" as="alternateBounds" />
          </mxGeometry>
        </mxCell>
        <mxCell id="jV_eMt8lWbeipAzmGlRH-79" value="idx" style="shape=partialRectangle;overflow=hidden;connectable=0;fillColor=#eeeeee;top=0;left=0;bottom=0;right=0;align=left;spacingLeft=6;strokeColor=#36393d;" parent="jV_eMt8lWbeipAzmGlRH-72" vertex="1">
          <mxGeometry x="340" width="260" height="20" as="geometry">
            <mxRectangle width="260" height="20" as="alternateBounds" />
          </mxGeometry>
        </mxCell>
        <mxCell id="jV_eMt8lWbeipAzmGlRH-80" value="" style="shape=partialRectangle;collapsible=0;dropTarget=0;pointerEvents=0;fillColor=#eeeeee;points=[[0,0.5],[1,0.5]];portConstraint=eastwest;top=0;left=0;right=0;bottom=0;strokeColor=#36393d;" parent="jV_eMt8lWbeipAzmGlRH-63" vertex="1">
          <mxGeometry y="80" width="600" height="20" as="geometry" />
        </mxCell>
        <mxCell id="jV_eMt8lWbeipAzmGlRH-81" value="fk" style="shape=partialRectangle;overflow=hidden;connectable=0;fillColor=#eeeeee;top=0;left=0;bottom=0;right=0;strokeColor=#36393d;" parent="jV_eMt8lWbeipAzmGlRH-80" vertex="1">
          <mxGeometry width="30" height="20" as="geometry">
            <mxRectangle width="30" height="20" as="alternateBounds" />
          </mxGeometry>
        </mxCell>
        <mxCell id="jV_eMt8lWbeipAzmGlRH-82" value="repo" style="shape=partialRectangle;overflow=hidden;connectable=0;fillColor=#eeeeee;top=0;left=0;bottom=0;right=0;align=left;spacingLeft=6;strokeColor=#36393d;" parent="jV_eMt8lWbeipAzmGlRH-80" vertex="1">
          <mxGeometry x="30" width="70" height="20" as="geometry">
            <mxRectangle width="70" height="20" as="alternateBounds" />
          </mxGeometry>
        </mxCell>
        <mxCell id="jV_eMt8lWbeipAzmGlRH-83" value="int" style="shape=partialRectangle;overflow=hidden;connectable=0;fillColor=#eeeeee;top=0;left=0;bottom=0;right=0;align=left;spacingLeft=6;strokeColor=#36393d;" parent="jV_eMt8lWbeipAzmGlRH-80" vertex="1">
          <mxGeometry x="100" width="70" height="20" as="geometry">
            <mxRectangle width="70" height="20" as="alternateBounds" />
          </mxGeometry>
        </mxCell>
        <mxCell id="jV_eMt8lWbeipAzmGlRH-84" value="nn" style="shape=partialRectangle;overflow=hidden;connectable=0;fillColor=#eeeeee;top=0;left=0;bottom=0;right=0;align=left;spacingLeft=6;strokeColor=#36393d;" parent="jV_eMt8lWbeipAzmGlRH-80" vertex="1">
          <mxGeometry x="170" width="30" height="20" as="geometry">
            <mxRectangle width="30" height="20" as="alternateBounds" />
          </mxGeometry>
        </mxCell>
        <mxCell id="jV_eMt8lWbeipAzmGlRH-85" value="-" style="shape=partialRectangle;overflow=hidden;connectable=0;fillColor=#eeeeee;top=0;left=0;bottom=0;right=0;align=left;spacingLeft=6;strokeColor=#36393d;" parent="jV_eMt8lWbeipAzmGlRH-80" vertex="1">
          <mxGeometry x="200" width="60" height="20" as="geometry">
            <mxRectangle width="60" height="20" as="alternateBounds" />
          </mxGeometry>
        </mxCell>
        <mxCell id="jV_eMt8lWbeipAzmGlRH-86" value="22" style="shape=partialRectangle;overflow=hidden;connectable=0;fillColor=#eeeeee;top=0;left=0;bottom=0;right=0;align=left;spacingLeft=6;strokeColor=#36393d;" parent="jV_eMt8lWbeipAzmGlRH-80" vertex="1">
          <mxGeometry x="260" width="80" height="20" as="geometry">
            <mxRectangle width="80" height="20" as="alternateBounds" />
          </mxGeometry>
        </mxCell>
        <mxCell id="jV_eMt8lWbeipAzmGlRH-87" value="저장소 번호(repo-fork)" style="shape=partialRectangle;overflow=hidden;connectable=0;fillColor=#eeeeee;top=0;left=0;bottom=0;right=0;align=left;spacingLeft=6;strokeColor=#36393d;" parent="jV_eMt8lWbeipAzmGlRH-80" vertex="1">
          <mxGeometry x="340" width="260" height="20" as="geometry">
            <mxRectangle width="260" height="20" as="alternateBounds" />
          </mxGeometry>
        </mxCell>
        <mxCell id="jV_eMt8lWbeipAzmGlRH-88" style="shape=partialRectangle;collapsible=0;dropTarget=0;pointerEvents=0;fillColor=#eeeeee;points=[[0,0.5],[1,0.5]];portConstraint=eastwest;top=0;left=0;right=0;bottom=0;strokeColor=#36393d;" parent="jV_eMt8lWbeipAzmGlRH-63" vertex="1">
          <mxGeometry y="100" width="600" height="20" as="geometry" />
        </mxCell>
        <mxCell id="jV_eMt8lWbeipAzmGlRH-89" value="fk" style="shape=partialRectangle;overflow=hidden;connectable=0;fillColor=#eeeeee;top=0;left=0;bottom=0;right=0;strokeColor=#36393d;" parent="jV_eMt8lWbeipAzmGlRH-88" vertex="1">
          <mxGeometry width="30" height="20" as="geometry">
            <mxRectangle width="30" height="20" as="alternateBounds" />
          </mxGeometry>
        </mxCell>
        <mxCell id="jV_eMt8lWbeipAzmGlRH-90" value="member" style="shape=partialRectangle;overflow=hidden;connectable=0;fillColor=#eeeeee;top=0;left=0;bottom=0;right=0;align=left;spacingLeft=6;strokeColor=#36393d;" parent="jV_eMt8lWbeipAzmGlRH-88" vertex="1">
          <mxGeometry x="30" width="70" height="20" as="geometry">
            <mxRectangle width="70" height="20" as="alternateBounds" />
          </mxGeometry>
        </mxCell>
        <mxCell id="jV_eMt8lWbeipAzmGlRH-91" value="int" style="shape=partialRectangle;overflow=hidden;connectable=0;fillColor=#eeeeee;top=0;left=0;bottom=0;right=0;align=left;spacingLeft=6;strokeColor=#36393d;" parent="jV_eMt8lWbeipAzmGlRH-88" vertex="1">
          <mxGeometry x="100" width="70" height="20" as="geometry">
            <mxRectangle width="70" height="20" as="alternateBounds" />
          </mxGeometry>
        </mxCell>
        <mxCell id="jV_eMt8lWbeipAzmGlRH-92" value="nn" style="shape=partialRectangle;overflow=hidden;connectable=0;fillColor=#eeeeee;top=0;left=0;bottom=0;right=0;align=left;spacingLeft=6;strokeColor=#36393d;" parent="jV_eMt8lWbeipAzmGlRH-88" vertex="1">
          <mxGeometry x="170" width="30" height="20" as="geometry">
            <mxRectangle width="30" height="20" as="alternateBounds" />
          </mxGeometry>
        </mxCell>
        <mxCell id="jV_eMt8lWbeipAzmGlRH-93" value="-" style="shape=partialRectangle;overflow=hidden;connectable=0;fillColor=#eeeeee;top=0;left=0;bottom=0;right=0;align=left;spacingLeft=6;strokeColor=#36393d;" parent="jV_eMt8lWbeipAzmGlRH-88" vertex="1">
          <mxGeometry x="200" width="60" height="20" as="geometry">
            <mxRectangle width="60" height="20" as="alternateBounds" />
          </mxGeometry>
        </mxCell>
        <mxCell id="jV_eMt8lWbeipAzmGlRH-94" value="10" style="shape=partialRectangle;overflow=hidden;connectable=0;fillColor=#eeeeee;top=0;left=0;bottom=0;right=0;align=left;spacingLeft=6;strokeColor=#36393d;" parent="jV_eMt8lWbeipAzmGlRH-88" vertex="1">
          <mxGeometry x="260" width="80" height="20" as="geometry">
            <mxRectangle width="80" height="20" as="alternateBounds" />
          </mxGeometry>
        </mxCell>
        <mxCell id="jV_eMt8lWbeipAzmGlRH-95" value="회원 번호(member-idx)" style="shape=partialRectangle;overflow=hidden;connectable=0;fillColor=#eeeeee;top=0;left=0;bottom=0;right=0;align=left;spacingLeft=6;strokeColor=#36393d;" parent="jV_eMt8lWbeipAzmGlRH-88" vertex="1">
          <mxGeometry x="340" width="260" height="20" as="geometry">
            <mxRectangle width="260" height="20" as="alternateBounds" />
          </mxGeometry>
        </mxCell>
        <mxCell id="jV_eMt8lWbeipAzmGlRH-96" style="shape=partialRectangle;collapsible=0;dropTarget=0;pointerEvents=0;fillColor=#eeeeee;points=[[0,0.5],[1,0.5]];portConstraint=eastwest;top=0;left=0;right=0;bottom=0;strokeColor=#36393d;" parent="jV_eMt8lWbeipAzmGlRH-63" vertex="1">
          <mxGeometry y="120" width="600" height="20" as="geometry" />
        </mxCell>
        <mxCell id="jV_eMt8lWbeipAzmGlRH-97" style="shape=partialRectangle;overflow=hidden;connectable=0;fillColor=#eeeeee;top=0;left=0;bottom=0;right=0;strokeColor=#36393d;" parent="jV_eMt8lWbeipAzmGlRH-96" vertex="1">
          <mxGeometry width="30" height="20" as="geometry">
            <mxRectangle width="30" height="20" as="alternateBounds" />
          </mxGeometry>
        </mxCell>
        <mxCell id="jV_eMt8lWbeipAzmGlRH-98" value="message" style="shape=partialRectangle;overflow=hidden;connectable=0;fillColor=#eeeeee;top=0;left=0;bottom=0;right=0;align=left;spacingLeft=6;strokeColor=#36393d;" parent="jV_eMt8lWbeipAzmGlRH-96" vertex="1">
          <mxGeometry x="30" width="70" height="20" as="geometry">
            <mxRectangle width="70" height="20" as="alternateBounds" />
          </mxGeometry>
        </mxCell>
        <mxCell id="jV_eMt8lWbeipAzmGlRH-99" value="longtext" style="shape=partialRectangle;overflow=hidden;connectable=0;fillColor=#eeeeee;top=0;left=0;bottom=0;right=0;align=left;spacingLeft=6;strokeColor=#36393d;" parent="jV_eMt8lWbeipAzmGlRH-96" vertex="1">
          <mxGeometry x="100" width="70" height="20" as="geometry">
            <mxRectangle width="70" height="20" as="alternateBounds" />
          </mxGeometry>
        </mxCell>
        <mxCell id="jV_eMt8lWbeipAzmGlRH-100" value="-" style="shape=partialRectangle;overflow=hidden;connectable=0;fillColor=#eeeeee;top=0;left=0;bottom=0;right=0;align=left;spacingLeft=6;strokeColor=#36393d;" parent="jV_eMt8lWbeipAzmGlRH-96" vertex="1">
          <mxGeometry x="170" width="30" height="20" as="geometry">
            <mxRectangle width="30" height="20" as="alternateBounds" />
          </mxGeometry>
        </mxCell>
        <mxCell id="jV_eMt8lWbeipAzmGlRH-101" value="-" style="shape=partialRectangle;overflow=hidden;connectable=0;fillColor=#eeeeee;top=0;left=0;bottom=0;right=0;align=left;spacingLeft=6;strokeColor=#36393d;" parent="jV_eMt8lWbeipAzmGlRH-96" vertex="1">
          <mxGeometry x="200" width="60" height="20" as="geometry">
            <mxRectangle width="60" height="20" as="alternateBounds" />
          </mxGeometry>
        </mxCell>
        <mxCell id="jV_eMt8lWbeipAzmGlRH-102" value="병합요청합니다." style="shape=partialRectangle;overflow=hidden;connectable=0;fillColor=#eeeeee;top=0;left=0;bottom=0;right=0;align=left;spacingLeft=6;strokeColor=#36393d;" parent="jV_eMt8lWbeipAzmGlRH-96" vertex="1">
          <mxGeometry x="260" width="80" height="20" as="geometry">
            <mxRectangle width="80" height="20" as="alternateBounds" />
          </mxGeometry>
        </mxCell>
        <mxCell id="jV_eMt8lWbeipAzmGlRH-103" value="내용" style="shape=partialRectangle;overflow=hidden;connectable=0;fillColor=#eeeeee;top=0;left=0;bottom=0;right=0;align=left;spacingLeft=6;strokeColor=#36393d;" parent="jV_eMt8lWbeipAzmGlRH-96" vertex="1">
          <mxGeometry x="340" width="260" height="20" as="geometry">
            <mxRectangle width="260" height="20" as="alternateBounds" />
          </mxGeometry>
        </mxCell>
        <mxCell id="jV_eMt8lWbeipAzmGlRH-104" style="shape=partialRectangle;collapsible=0;dropTarget=0;pointerEvents=0;fillColor=#eeeeee;points=[[0,0.5],[1,0.5]];portConstraint=eastwest;top=0;left=0;right=0;bottom=0;strokeColor=#36393d;" parent="jV_eMt8lWbeipAzmGlRH-63" vertex="1">
          <mxGeometry y="140" width="600" height="20" as="geometry" />
        </mxCell>
        <mxCell id="jV_eMt8lWbeipAzmGlRH-105" value="fk" style="shape=partialRectangle;overflow=hidden;connectable=0;fillColor=#eeeeee;top=0;left=0;bottom=0;right=0;strokeColor=#36393d;" parent="jV_eMt8lWbeipAzmGlRH-104" vertex="1">
          <mxGeometry width="30" height="20" as="geometry">
            <mxRectangle width="30" height="20" as="alternateBounds" />
          </mxGeometry>
        </mxCell>
        <mxCell id="jV_eMt8lWbeipAzmGlRH-106" value="token" style="shape=partialRectangle;overflow=hidden;connectable=0;fillColor=#eeeeee;top=0;left=0;bottom=0;right=0;align=left;spacingLeft=6;strokeColor=#36393d;" parent="jV_eMt8lWbeipAzmGlRH-104" vertex="1">
          <mxGeometry x="30" width="70" height="20" as="geometry">
            <mxRectangle width="70" height="20" as="alternateBounds" />
          </mxGeometry>
        </mxCell>
        <mxCell id="jV_eMt8lWbeipAzmGlRH-107" value="int" style="shape=partialRectangle;overflow=hidden;connectable=0;fillColor=#eeeeee;top=0;left=0;bottom=0;right=0;align=left;spacingLeft=6;strokeColor=#36393d;" parent="jV_eMt8lWbeipAzmGlRH-104" vertex="1">
          <mxGeometry x="100" width="70" height="20" as="geometry">
            <mxRectangle width="70" height="20" as="alternateBounds" />
          </mxGeometry>
        </mxCell>
        <mxCell id="jV_eMt8lWbeipAzmGlRH-108" value="nn" style="shape=partialRectangle;overflow=hidden;connectable=0;fillColor=#eeeeee;top=0;left=0;bottom=0;right=0;align=left;spacingLeft=6;strokeColor=#36393d;" parent="jV_eMt8lWbeipAzmGlRH-104" vertex="1">
          <mxGeometry x="170" width="30" height="20" as="geometry">
            <mxRectangle width="30" height="20" as="alternateBounds" />
          </mxGeometry>
        </mxCell>
        <mxCell id="jV_eMt8lWbeipAzmGlRH-109" value="-" style="shape=partialRectangle;overflow=hidden;connectable=0;fillColor=#eeeeee;top=0;left=0;bottom=0;right=0;align=left;spacingLeft=6;strokeColor=#36393d;" parent="jV_eMt8lWbeipAzmGlRH-104" vertex="1">
          <mxGeometry x="200" width="60" height="20" as="geometry">
            <mxRectangle width="60" height="20" as="alternateBounds" />
          </mxGeometry>
        </mxCell>
        <mxCell id="jV_eMt8lWbeipAzmGlRH-110" value="bx32sg3ko" style="shape=partialRectangle;overflow=hidden;connectable=0;fillColor=#eeeeee;top=0;left=0;bottom=0;right=0;align=left;spacingLeft=6;strokeColor=#36393d;" parent="jV_eMt8lWbeipAzmGlRH-104" vertex="1">
          <mxGeometry x="260" width="80" height="20" as="geometry">
            <mxRectangle width="80" height="20" as="alternateBounds" />
          </mxGeometry>
        </mxCell>
        <mxCell id="jV_eMt8lWbeipAzmGlRH-111" value="a(원래저장소)에 b(fork한)를 병합할때 b으토큰" style="shape=partialRectangle;overflow=hidden;connectable=0;fillColor=#eeeeee;top=0;left=0;bottom=0;right=0;align=left;spacingLeft=6;strokeColor=#36393d;" parent="jV_eMt8lWbeipAzmGlRH-104" vertex="1">
          <mxGeometry x="340" width="260" height="20" as="geometry">
            <mxRectangle width="260" height="20" as="alternateBounds" />
          </mxGeometry>
        </mxCell>
        <mxCell id="jV_eMt8lWbeipAzmGlRH-116" style="shape=partialRectangle;collapsible=0;dropTarget=0;pointerEvents=0;fillColor=#eeeeee;points=[[0,0.5],[1,0.5]];portConstraint=eastwest;top=0;left=0;right=0;bottom=0;strokeColor=#36393d;" parent="jV_eMt8lWbeipAzmGlRH-63" vertex="1">
          <mxGeometry y="160" width="600" height="20" as="geometry" />
        </mxCell>
        <mxCell id="jV_eMt8lWbeipAzmGlRH-117" style="shape=partialRectangle;overflow=hidden;connectable=0;fillColor=#eeeeee;top=0;left=0;bottom=0;right=0;strokeColor=#36393d;" parent="jV_eMt8lWbeipAzmGlRH-116" vertex="1">
          <mxGeometry width="30" height="20" as="geometry">
            <mxRectangle width="30" height="20" as="alternateBounds" />
          </mxGeometry>
        </mxCell>
        <mxCell id="jV_eMt8lWbeipAzmGlRH-118" value="date" style="shape=partialRectangle;overflow=hidden;connectable=0;fillColor=#eeeeee;top=0;left=0;bottom=0;right=0;align=left;spacingLeft=6;strokeColor=#36393d;" parent="jV_eMt8lWbeipAzmGlRH-116" vertex="1">
          <mxGeometry x="30" width="70" height="20" as="geometry">
            <mxRectangle width="70" height="20" as="alternateBounds" />
          </mxGeometry>
        </mxCell>
        <mxCell id="jV_eMt8lWbeipAzmGlRH-119" value="timestamp" style="shape=partialRectangle;overflow=hidden;connectable=0;fillColor=#eeeeee;top=0;left=0;bottom=0;right=0;align=left;spacingLeft=6;strokeColor=#36393d;" parent="jV_eMt8lWbeipAzmGlRH-116" vertex="1">
          <mxGeometry x="100" width="70" height="20" as="geometry">
            <mxRectangle width="70" height="20" as="alternateBounds" />
          </mxGeometry>
        </mxCell>
        <mxCell id="jV_eMt8lWbeipAzmGlRH-120" value="nn" style="shape=partialRectangle;overflow=hidden;connectable=0;fillColor=#eeeeee;top=0;left=0;bottom=0;right=0;align=left;spacingLeft=6;strokeColor=#36393d;" parent="jV_eMt8lWbeipAzmGlRH-116" vertex="1">
          <mxGeometry x="170" width="30" height="20" as="geometry">
            <mxRectangle width="30" height="20" as="alternateBounds" />
          </mxGeometry>
        </mxCell>
        <mxCell id="jV_eMt8lWbeipAzmGlRH-121" value="now()" style="shape=partialRectangle;overflow=hidden;connectable=0;fillColor=#eeeeee;top=0;left=0;bottom=0;right=0;align=left;spacingLeft=6;strokeColor=#36393d;" parent="jV_eMt8lWbeipAzmGlRH-116" vertex="1">
          <mxGeometry x="200" width="60" height="20" as="geometry">
            <mxRectangle width="60" height="20" as="alternateBounds" />
          </mxGeometry>
        </mxCell>
        <mxCell id="jV_eMt8lWbeipAzmGlRH-122" value="2022-10-17 11:13:46" style="shape=partialRectangle;overflow=hidden;connectable=0;fillColor=#eeeeee;top=0;left=0;bottom=0;right=0;align=left;spacingLeft=6;strokeColor=#36393d;" parent="jV_eMt8lWbeipAzmGlRH-116" vertex="1">
          <mxGeometry x="260" width="80" height="20" as="geometry">
            <mxRectangle width="80" height="20" as="alternateBounds" />
          </mxGeometry>
        </mxCell>
        <mxCell id="jV_eMt8lWbeipAzmGlRH-123" value="시간" style="shape=partialRectangle;overflow=hidden;connectable=0;fillColor=#eeeeee;top=0;left=0;bottom=0;right=0;align=left;spacingLeft=6;strokeColor=#36393d;" parent="jV_eMt8lWbeipAzmGlRH-116" vertex="1">
          <mxGeometry x="340" width="260" height="20" as="geometry">
            <mxRectangle width="260" height="20" as="alternateBounds" />
          </mxGeometry>
        </mxCell>
        <mxCell id="jV_eMt8lWbeipAzmGlRH-134" style="shape=partialRectangle;collapsible=0;dropTarget=0;pointerEvents=0;fillColor=#eeeeee;points=[[0,0.5],[1,0.5]];portConstraint=eastwest;top=0;left=0;right=0;bottom=0;strokeColor=#36393d;" parent="jV_eMt8lWbeipAzmGlRH-63" vertex="1">
          <mxGeometry y="180" width="600" height="20" as="geometry" />
        </mxCell>
        <mxCell id="jV_eMt8lWbeipAzmGlRH-135" style="shape=partialRectangle;overflow=hidden;connectable=0;fillColor=#eeeeee;top=0;left=0;bottom=0;right=0;strokeColor=#36393d;" parent="jV_eMt8lWbeipAzmGlRH-134" vertex="1">
          <mxGeometry width="30" height="20" as="geometry">
            <mxRectangle width="30" height="20" as="alternateBounds" />
          </mxGeometry>
        </mxCell>
        <mxCell id="jV_eMt8lWbeipAzmGlRH-136" value="marged" style="shape=partialRectangle;overflow=hidden;connectable=0;fillColor=#eeeeee;top=0;left=0;bottom=0;right=0;align=left;spacingLeft=6;strokeColor=#36393d;" parent="jV_eMt8lWbeipAzmGlRH-134" vertex="1">
          <mxGeometry x="30" width="70" height="20" as="geometry">
            <mxRectangle width="70" height="20" as="alternateBounds" />
          </mxGeometry>
        </mxCell>
        <mxCell id="jV_eMt8lWbeipAzmGlRH-137" value="tinyint(1)" style="shape=partialRectangle;overflow=hidden;connectable=0;fillColor=#eeeeee;top=0;left=0;bottom=0;right=0;align=left;spacingLeft=6;strokeColor=#36393d;" parent="jV_eMt8lWbeipAzmGlRH-134" vertex="1">
          <mxGeometry x="100" width="70" height="20" as="geometry">
            <mxRectangle width="70" height="20" as="alternateBounds" />
          </mxGeometry>
        </mxCell>
        <mxCell id="jV_eMt8lWbeipAzmGlRH-138" value="nn" style="shape=partialRectangle;overflow=hidden;connectable=0;fillColor=#eeeeee;top=0;left=0;bottom=0;right=0;align=left;spacingLeft=6;strokeColor=#36393d;" parent="jV_eMt8lWbeipAzmGlRH-134" vertex="1">
          <mxGeometry x="170" width="30" height="20" as="geometry">
            <mxRectangle width="30" height="20" as="alternateBounds" />
          </mxGeometry>
        </mxCell>
        <mxCell id="jV_eMt8lWbeipAzmGlRH-139" value="0" style="shape=partialRectangle;overflow=hidden;connectable=0;fillColor=#eeeeee;top=0;left=0;bottom=0;right=0;align=left;spacingLeft=6;strokeColor=#36393d;" parent="jV_eMt8lWbeipAzmGlRH-134" vertex="1">
          <mxGeometry x="200" width="60" height="20" as="geometry">
            <mxRectangle width="60" height="20" as="alternateBounds" />
          </mxGeometry>
        </mxCell>
        <mxCell id="jV_eMt8lWbeipAzmGlRH-140" value="1" style="shape=partialRectangle;overflow=hidden;connectable=0;fillColor=#eeeeee;top=0;left=0;bottom=0;right=0;align=left;spacingLeft=6;strokeColor=#36393d;" parent="jV_eMt8lWbeipAzmGlRH-134" vertex="1">
          <mxGeometry x="260" width="80" height="20" as="geometry">
            <mxRectangle width="80" height="20" as="alternateBounds" />
          </mxGeometry>
        </mxCell>
        <mxCell id="jV_eMt8lWbeipAzmGlRH-141" value="요청을 수락했을때 1이 된다." style="shape=partialRectangle;overflow=hidden;connectable=0;fillColor=#eeeeee;top=0;left=0;bottom=0;right=0;align=left;spacingLeft=6;strokeColor=#36393d;" parent="jV_eMt8lWbeipAzmGlRH-134" vertex="1">
          <mxGeometry x="340" width="260" height="20" as="geometry">
            <mxRectangle width="260" height="20" as="alternateBounds" />
          </mxGeometry>
        </mxCell>
        <mxCell id="jV_eMt8lWbeipAzmGlRH-113" value="" style="endArrow=ERzeroToMany;html=1;rounded=0;endFill=0;startArrow=ERone;startFill=0;" parent="1" edge="1">
          <mxGeometry width="50" height="50" relative="1" as="geometry">
            <mxPoint x="-720" y="-620" as="sourcePoint" />
            <mxPoint x="-620" y="-620" as="targetPoint" />
          </mxGeometry>
        </mxCell>
        <mxCell id="jV_eMt8lWbeipAzmGlRH-114" value="" style="endArrow=ERzeroToMany;html=1;rounded=0;exitX=1;exitY=0.5;exitDx=0;exitDy=0;endFill=0;startArrow=ERone;startFill=0;" parent="1" source="jV_eMt8lWbeipAzmGlRH-1" edge="1">
          <mxGeometry width="50" height="50" relative="1" as="geometry">
            <mxPoint x="-630" y="-780" as="sourcePoint" />
            <mxPoint x="-620" y="-660" as="targetPoint" />
            <Array as="points">
              <mxPoint x="-660" y="-820" />
              <mxPoint x="-660" y="-660" />
            </Array>
          </mxGeometry>
        </mxCell>
        <mxCell id="jV_eMt8lWbeipAzmGlRH-115" value="" style="endArrow=ERzeroToMany;html=1;rounded=0;entryX=0.136;entryY=0.003;entryDx=0;entryDy=0;entryPerimeter=0;endFill=0;startArrow=ERone;startFill=0;exitX=0.1;exitY=1.025;exitDx=0;exitDy=0;exitPerimeter=0;" parent="1" source="yEf2gbcgYrwrFwAvnMjx-438" target="jV_eMt8lWbeipAzmGlRH-63" edge="1">
          <mxGeometry width="50" height="50" relative="1" as="geometry">
            <mxPoint x="-550" y="-800" as="sourcePoint" />
            <mxPoint x="-580" y="-830" as="targetPoint" />
          </mxGeometry>
        </mxCell>
        <mxCell id="jV_eMt8lWbeipAzmGlRH-124" value="하나의 REPO가 있다면 그 REPO 대한&lt;br&gt;PUSH가 하나는 존재한다. REPO를 만들면서 from이 null인 PUSH를 해줌&amp;nbsp;" style="rounded=0;whiteSpace=wrap;html=1;fillColor=#fff2cc;strokeColor=#d6b656;" parent="1" vertex="1">
          <mxGeometry x="-710" y="-1000" width="110" height="90" as="geometry" />
        </mxCell>
        <mxCell id="jV_eMt8lWbeipAzmGlRH-125" value="PULLREQ에서 repo에는 REPO의 fork값을 넣는다." style="rounded=0;whiteSpace=wrap;html=1;fillColor=#fff2cc;strokeColor=#d6b656;" parent="1" vertex="1">
          <mxGeometry x="-710" y="-610" width="90" height="100" as="geometry" />
        </mxCell>
        <mxCell id="jV_eMt8lWbeipAzmGlRH-142" value="idx = 1 저장소를 fork하면 &lt;br&gt;내 저장소에 idx=2 , fork=1 저장소가 새로 만들어진다.&lt;br&gt;fork가 0 인 저장소는 fork해서 가져온 저장소가 아닌&lt;br&gt;자신이 create해서 만든 저장소이다." style="rounded=0;whiteSpace=wrap;html=1;fillColor=#fff2cc;strokeColor=#d6b656;" parent="1" vertex="1">
          <mxGeometry x="-1250" y="-1060" width="300" height="80" as="geometry" />
        </mxCell>
        <object label="FOLLOW(팔로우)" idx="" id="jV_eMt8lWbeipAzmGlRH-143">
          <mxCell style="shape=table;startSize=30;container=1;collapsible=1;childLayout=tableLayout;fixedRows=1;rowLines=0;fontStyle=1;align=center;resizeLast=1;fillColor=#cce5ff;strokeColor=#36393d;fontSize=18;" parent="1" vertex="1">
            <mxGeometry x="-1230" y="-480" width="460" height="120" as="geometry" />
          </mxCell>
        </object>
        <mxCell id="jV_eMt8lWbeipAzmGlRH-144" value="" style="shape=partialRectangle;collapsible=0;dropTarget=0;pointerEvents=0;fillColor=#eeeeee;points=[[0,0.5],[1,0.5]];portConstraint=eastwest;top=0;left=0;right=0;bottom=1;strokeColor=#36393d;" parent="jV_eMt8lWbeipAzmGlRH-143" vertex="1">
          <mxGeometry y="30" width="460" height="30" as="geometry" />
        </mxCell>
        <mxCell id="jV_eMt8lWbeipAzmGlRH-145" value="KEY" style="shape=partialRectangle;overflow=hidden;connectable=0;fillColor=#eeeeee;top=0;left=0;bottom=0;right=0;fontStyle=1;strokeColor=#36393d;" parent="jV_eMt8lWbeipAzmGlRH-144" vertex="1">
          <mxGeometry width="30" height="30" as="geometry">
            <mxRectangle width="30" height="30" as="alternateBounds" />
          </mxGeometry>
        </mxCell>
        <mxCell id="jV_eMt8lWbeipAzmGlRH-146" value="ATT" style="shape=partialRectangle;overflow=hidden;connectable=0;fillColor=#eeeeee;top=0;left=0;bottom=0;right=0;align=left;spacingLeft=6;fontStyle=5;strokeColor=#36393d;" parent="jV_eMt8lWbeipAzmGlRH-144" vertex="1">
          <mxGeometry x="30" width="70" height="30" as="geometry">
            <mxRectangle width="70" height="30" as="alternateBounds" />
          </mxGeometry>
        </mxCell>
        <mxCell id="jV_eMt8lWbeipAzmGlRH-147" value="DATA" style="shape=partialRectangle;overflow=hidden;connectable=0;fillColor=#eeeeee;top=0;left=0;bottom=0;right=0;align=left;spacingLeft=6;fontStyle=5;strokeColor=#36393d;" parent="jV_eMt8lWbeipAzmGlRH-144" vertex="1">
          <mxGeometry x="100" width="70" height="30" as="geometry">
            <mxRectangle width="70" height="30" as="alternateBounds" />
          </mxGeometry>
        </mxCell>
        <mxCell id="jV_eMt8lWbeipAzmGlRH-148" value="NN" style="shape=partialRectangle;overflow=hidden;connectable=0;fillColor=#eeeeee;top=0;left=0;bottom=0;right=0;align=left;spacingLeft=6;fontStyle=5;strokeColor=#36393d;" parent="jV_eMt8lWbeipAzmGlRH-144" vertex="1">
          <mxGeometry x="170" width="30" height="30" as="geometry">
            <mxRectangle width="30" height="30" as="alternateBounds" />
          </mxGeometry>
        </mxCell>
        <mxCell id="jV_eMt8lWbeipAzmGlRH-149" value="DEFAULT" style="shape=partialRectangle;overflow=hidden;connectable=0;fillColor=#eeeeee;top=0;left=0;bottom=0;right=0;align=left;spacingLeft=6;fontStyle=5;strokeColor=#36393d;" parent="jV_eMt8lWbeipAzmGlRH-144" vertex="1">
          <mxGeometry x="200" width="60" height="30" as="geometry">
            <mxRectangle width="60" height="30" as="alternateBounds" />
          </mxGeometry>
        </mxCell>
        <mxCell id="jV_eMt8lWbeipAzmGlRH-150" value="EX" style="shape=partialRectangle;overflow=hidden;connectable=0;fillColor=#eeeeee;top=0;left=0;bottom=0;right=0;align=left;spacingLeft=6;fontStyle=5;strokeColor=#36393d;" parent="jV_eMt8lWbeipAzmGlRH-144" vertex="1">
          <mxGeometry x="260" width="60" height="30" as="geometry">
            <mxRectangle width="60" height="30" as="alternateBounds" />
          </mxGeometry>
        </mxCell>
        <mxCell id="jV_eMt8lWbeipAzmGlRH-151" value="설명" style="shape=partialRectangle;overflow=hidden;connectable=0;fillColor=#eeeeee;top=0;left=0;bottom=0;right=0;align=left;spacingLeft=6;fontStyle=5;strokeColor=#36393d;" parent="jV_eMt8lWbeipAzmGlRH-144" vertex="1">
          <mxGeometry x="320" width="140" height="30" as="geometry">
            <mxRectangle width="140" height="30" as="alternateBounds" />
          </mxGeometry>
        </mxCell>
        <mxCell id="jV_eMt8lWbeipAzmGlRH-152" style="shape=partialRectangle;collapsible=0;dropTarget=0;pointerEvents=0;fillColor=#eeeeee;points=[[0,0.5],[1,0.5]];portConstraint=eastwest;top=0;left=0;right=0;bottom=0;strokeColor=#36393d;" parent="jV_eMt8lWbeipAzmGlRH-143" vertex="1">
          <mxGeometry y="60" width="460" height="20" as="geometry" />
        </mxCell>
        <mxCell id="jV_eMt8lWbeipAzmGlRH-153" value="pk" style="shape=partialRectangle;overflow=hidden;connectable=0;fillColor=#eeeeee;top=0;left=0;bottom=0;right=0;strokeColor=#36393d;" parent="jV_eMt8lWbeipAzmGlRH-152" vertex="1">
          <mxGeometry width="30" height="20" as="geometry">
            <mxRectangle width="30" height="20" as="alternateBounds" />
          </mxGeometry>
        </mxCell>
        <mxCell id="jV_eMt8lWbeipAzmGlRH-154" value="idx" style="shape=partialRectangle;overflow=hidden;connectable=0;fillColor=#eeeeee;top=0;left=0;bottom=0;right=0;align=left;spacingLeft=6;strokeColor=#36393d;" parent="jV_eMt8lWbeipAzmGlRH-152" vertex="1">
          <mxGeometry x="30" width="70" height="20" as="geometry">
            <mxRectangle width="70" height="20" as="alternateBounds" />
          </mxGeometry>
        </mxCell>
        <mxCell id="jV_eMt8lWbeipAzmGlRH-155" value="int" style="shape=partialRectangle;overflow=hidden;connectable=0;fillColor=#eeeeee;top=0;left=0;bottom=0;right=0;align=left;spacingLeft=6;strokeColor=#36393d;" parent="jV_eMt8lWbeipAzmGlRH-152" vertex="1">
          <mxGeometry x="100" width="70" height="20" as="geometry">
            <mxRectangle width="70" height="20" as="alternateBounds" />
          </mxGeometry>
        </mxCell>
        <mxCell id="jV_eMt8lWbeipAzmGlRH-156" value="nn" style="shape=partialRectangle;overflow=hidden;connectable=0;fillColor=#eeeeee;top=0;left=0;bottom=0;right=0;align=left;spacingLeft=6;strokeColor=#36393d;" parent="jV_eMt8lWbeipAzmGlRH-152" vertex="1">
          <mxGeometry x="170" width="30" height="20" as="geometry">
            <mxRectangle width="30" height="20" as="alternateBounds" />
          </mxGeometry>
        </mxCell>
        <mxCell id="jV_eMt8lWbeipAzmGlRH-157" value="auto indx" style="shape=partialRectangle;overflow=hidden;connectable=0;fillColor=#eeeeee;top=0;left=0;bottom=0;right=0;align=left;spacingLeft=6;strokeColor=#36393d;" parent="jV_eMt8lWbeipAzmGlRH-152" vertex="1">
          <mxGeometry x="200" width="60" height="20" as="geometry">
            <mxRectangle width="60" height="20" as="alternateBounds" />
          </mxGeometry>
        </mxCell>
        <mxCell id="jV_eMt8lWbeipAzmGlRH-158" value="1" style="shape=partialRectangle;overflow=hidden;connectable=0;fillColor=#eeeeee;top=0;left=0;bottom=0;right=0;align=left;spacingLeft=6;strokeColor=#36393d;" parent="jV_eMt8lWbeipAzmGlRH-152" vertex="1">
          <mxGeometry x="260" width="60" height="20" as="geometry">
            <mxRectangle width="60" height="20" as="alternateBounds" />
          </mxGeometry>
        </mxCell>
        <mxCell id="jV_eMt8lWbeipAzmGlRH-159" value="idx" style="shape=partialRectangle;overflow=hidden;connectable=0;fillColor=#eeeeee;top=0;left=0;bottom=0;right=0;align=left;spacingLeft=6;strokeColor=#36393d;" parent="jV_eMt8lWbeipAzmGlRH-152" vertex="1">
          <mxGeometry x="320" width="140" height="20" as="geometry">
            <mxRectangle width="140" height="20" as="alternateBounds" />
          </mxGeometry>
        </mxCell>
        <mxCell id="jV_eMt8lWbeipAzmGlRH-160" value="" style="shape=partialRectangle;collapsible=0;dropTarget=0;pointerEvents=0;fillColor=#eeeeee;points=[[0,0.5],[1,0.5]];portConstraint=eastwest;top=0;left=0;right=0;bottom=0;strokeColor=#36393d;" parent="jV_eMt8lWbeipAzmGlRH-143" vertex="1">
          <mxGeometry y="80" width="460" height="20" as="geometry" />
        </mxCell>
        <mxCell id="jV_eMt8lWbeipAzmGlRH-161" value="fk" style="shape=partialRectangle;overflow=hidden;connectable=0;fillColor=#eeeeee;top=0;left=0;bottom=0;right=0;strokeColor=#36393d;" parent="jV_eMt8lWbeipAzmGlRH-160" vertex="1">
          <mxGeometry width="30" height="20" as="geometry">
            <mxRectangle width="30" height="20" as="alternateBounds" />
          </mxGeometry>
        </mxCell>
        <mxCell id="jV_eMt8lWbeipAzmGlRH-162" value="member" style="shape=partialRectangle;overflow=hidden;connectable=0;fillColor=#eeeeee;top=0;left=0;bottom=0;right=0;align=left;spacingLeft=6;strokeColor=#36393d;" parent="jV_eMt8lWbeipAzmGlRH-160" vertex="1">
          <mxGeometry x="30" width="70" height="20" as="geometry">
            <mxRectangle width="70" height="20" as="alternateBounds" />
          </mxGeometry>
        </mxCell>
        <mxCell id="jV_eMt8lWbeipAzmGlRH-163" value="int" style="shape=partialRectangle;overflow=hidden;connectable=0;fillColor=#eeeeee;top=0;left=0;bottom=0;right=0;align=left;spacingLeft=6;strokeColor=#36393d;" parent="jV_eMt8lWbeipAzmGlRH-160" vertex="1">
          <mxGeometry x="100" width="70" height="20" as="geometry">
            <mxRectangle width="70" height="20" as="alternateBounds" />
          </mxGeometry>
        </mxCell>
        <mxCell id="jV_eMt8lWbeipAzmGlRH-164" value="nn" style="shape=partialRectangle;overflow=hidden;connectable=0;fillColor=#eeeeee;top=0;left=0;bottom=0;right=0;align=left;spacingLeft=6;strokeColor=#36393d;" parent="jV_eMt8lWbeipAzmGlRH-160" vertex="1">
          <mxGeometry x="170" width="30" height="20" as="geometry">
            <mxRectangle width="30" height="20" as="alternateBounds" />
          </mxGeometry>
        </mxCell>
        <mxCell id="jV_eMt8lWbeipAzmGlRH-165" value="-" style="shape=partialRectangle;overflow=hidden;connectable=0;fillColor=#eeeeee;top=0;left=0;bottom=0;right=0;align=left;spacingLeft=6;strokeColor=#36393d;" parent="jV_eMt8lWbeipAzmGlRH-160" vertex="1">
          <mxGeometry x="200" width="60" height="20" as="geometry">
            <mxRectangle width="60" height="20" as="alternateBounds" />
          </mxGeometry>
        </mxCell>
        <mxCell id="jV_eMt8lWbeipAzmGlRH-166" value="5" style="shape=partialRectangle;overflow=hidden;connectable=0;fillColor=#eeeeee;top=0;left=0;bottom=0;right=0;align=left;spacingLeft=6;strokeColor=#36393d;" parent="jV_eMt8lWbeipAzmGlRH-160" vertex="1">
          <mxGeometry x="260" width="60" height="20" as="geometry">
            <mxRectangle width="60" height="20" as="alternateBounds" />
          </mxGeometry>
        </mxCell>
        <mxCell id="jV_eMt8lWbeipAzmGlRH-167" value="5가" style="shape=partialRectangle;overflow=hidden;connectable=0;fillColor=#eeeeee;top=0;left=0;bottom=0;right=0;align=left;spacingLeft=6;strokeColor=#36393d;" parent="jV_eMt8lWbeipAzmGlRH-160" vertex="1">
          <mxGeometry x="320" width="140" height="20" as="geometry">
            <mxRectangle width="140" height="20" as="alternateBounds" />
          </mxGeometry>
        </mxCell>
        <mxCell id="jV_eMt8lWbeipAzmGlRH-168" style="shape=partialRectangle;collapsible=0;dropTarget=0;pointerEvents=0;fillColor=#eeeeee;points=[[0,0.5],[1,0.5]];portConstraint=eastwest;top=0;left=0;right=0;bottom=0;strokeColor=#36393d;" parent="jV_eMt8lWbeipAzmGlRH-143" vertex="1">
          <mxGeometry y="100" width="460" height="20" as="geometry" />
        </mxCell>
        <mxCell id="jV_eMt8lWbeipAzmGlRH-169" value="fk" style="shape=partialRectangle;overflow=hidden;connectable=0;fillColor=#eeeeee;top=0;left=0;bottom=0;right=0;strokeColor=#36393d;" parent="jV_eMt8lWbeipAzmGlRH-168" vertex="1">
          <mxGeometry width="30" height="20" as="geometry">
            <mxRectangle width="30" height="20" as="alternateBounds" />
          </mxGeometry>
        </mxCell>
        <mxCell id="jV_eMt8lWbeipAzmGlRH-170" value="follow" style="shape=partialRectangle;overflow=hidden;connectable=0;fillColor=#eeeeee;top=0;left=0;bottom=0;right=0;align=left;spacingLeft=6;strokeColor=#36393d;" parent="jV_eMt8lWbeipAzmGlRH-168" vertex="1">
          <mxGeometry x="30" width="70" height="20" as="geometry">
            <mxRectangle width="70" height="20" as="alternateBounds" />
          </mxGeometry>
        </mxCell>
        <mxCell id="jV_eMt8lWbeipAzmGlRH-171" value="int" style="shape=partialRectangle;overflow=hidden;connectable=0;fillColor=#eeeeee;top=0;left=0;bottom=0;right=0;align=left;spacingLeft=6;strokeColor=#36393d;" parent="jV_eMt8lWbeipAzmGlRH-168" vertex="1">
          <mxGeometry x="100" width="70" height="20" as="geometry">
            <mxRectangle width="70" height="20" as="alternateBounds" />
          </mxGeometry>
        </mxCell>
        <mxCell id="jV_eMt8lWbeipAzmGlRH-172" value="nn" style="shape=partialRectangle;overflow=hidden;connectable=0;fillColor=#eeeeee;top=0;left=0;bottom=0;right=0;align=left;spacingLeft=6;strokeColor=#36393d;" parent="jV_eMt8lWbeipAzmGlRH-168" vertex="1">
          <mxGeometry x="170" width="30" height="20" as="geometry">
            <mxRectangle width="30" height="20" as="alternateBounds" />
          </mxGeometry>
        </mxCell>
        <mxCell id="jV_eMt8lWbeipAzmGlRH-173" value="-" style="shape=partialRectangle;overflow=hidden;connectable=0;fillColor=#eeeeee;top=0;left=0;bottom=0;right=0;align=left;spacingLeft=6;strokeColor=#36393d;" parent="jV_eMt8lWbeipAzmGlRH-168" vertex="1">
          <mxGeometry x="200" width="60" height="20" as="geometry">
            <mxRectangle width="60" height="20" as="alternateBounds" />
          </mxGeometry>
        </mxCell>
        <mxCell id="jV_eMt8lWbeipAzmGlRH-174" value="2" style="shape=partialRectangle;overflow=hidden;connectable=0;fillColor=#eeeeee;top=0;left=0;bottom=0;right=0;align=left;spacingLeft=6;strokeColor=#36393d;" parent="jV_eMt8lWbeipAzmGlRH-168" vertex="1">
          <mxGeometry x="260" width="60" height="20" as="geometry">
            <mxRectangle width="60" height="20" as="alternateBounds" />
          </mxGeometry>
        </mxCell>
        <mxCell id="jV_eMt8lWbeipAzmGlRH-175" value="2를 팔로우" style="shape=partialRectangle;overflow=hidden;connectable=0;fillColor=#eeeeee;top=0;left=0;bottom=0;right=0;align=left;spacingLeft=6;strokeColor=#36393d;" parent="jV_eMt8lWbeipAzmGlRH-168" vertex="1">
          <mxGeometry x="320" width="140" height="20" as="geometry">
            <mxRectangle width="140" height="20" as="alternateBounds" />
          </mxGeometry>
        </mxCell>
        <mxCell id="jV_eMt8lWbeipAzmGlRH-176" value="" style="endArrow=ERzeroToMany;html=1;rounded=0;exitX=0.451;exitY=1;exitDx=0;exitDy=0;exitPerimeter=0;entryX=0.5;entryY=0;entryDx=0;entryDy=0;endFill=0;startArrow=ERone;startFill=0;" parent="1" source="yEf2gbcgYrwrFwAvnMjx-418" target="jV_eMt8lWbeipAzmGlRH-143" edge="1">
          <mxGeometry width="50" height="50" relative="1" as="geometry">
            <mxPoint x="-1010" y="-260" as="sourcePoint" />
            <mxPoint x="-960" y="-310" as="targetPoint" />
          </mxGeometry>
        </mxCell>
        <object label="STAR(즐겨찾기)" idx="" id="jV_eMt8lWbeipAzmGlRH-177">
          <mxCell style="shape=table;startSize=30;container=1;collapsible=1;childLayout=tableLayout;fixedRows=1;rowLines=0;fontStyle=1;align=center;resizeLast=1;fillColor=#cce5ff;strokeColor=#36393d;fontSize=18;" parent="1" vertex="1">
            <mxGeometry x="-1770" y="-920" width="460" height="120" as="geometry" />
          </mxCell>
        </object>
        <mxCell id="jV_eMt8lWbeipAzmGlRH-178" value="" style="shape=partialRectangle;collapsible=0;dropTarget=0;pointerEvents=0;fillColor=#eeeeee;points=[[0,0.5],[1,0.5]];portConstraint=eastwest;top=0;left=0;right=0;bottom=1;strokeColor=#36393d;" parent="jV_eMt8lWbeipAzmGlRH-177" vertex="1">
          <mxGeometry y="30" width="460" height="30" as="geometry" />
        </mxCell>
        <mxCell id="jV_eMt8lWbeipAzmGlRH-179" value="KEY" style="shape=partialRectangle;overflow=hidden;connectable=0;fillColor=#eeeeee;top=0;left=0;bottom=0;right=0;fontStyle=1;strokeColor=#36393d;" parent="jV_eMt8lWbeipAzmGlRH-178" vertex="1">
          <mxGeometry width="30" height="30" as="geometry">
            <mxRectangle width="30" height="30" as="alternateBounds" />
          </mxGeometry>
        </mxCell>
        <mxCell id="jV_eMt8lWbeipAzmGlRH-180" value="ATT" style="shape=partialRectangle;overflow=hidden;connectable=0;fillColor=#eeeeee;top=0;left=0;bottom=0;right=0;align=left;spacingLeft=6;fontStyle=5;strokeColor=#36393d;" parent="jV_eMt8lWbeipAzmGlRH-178" vertex="1">
          <mxGeometry x="30" width="70" height="30" as="geometry">
            <mxRectangle width="70" height="30" as="alternateBounds" />
          </mxGeometry>
        </mxCell>
        <mxCell id="jV_eMt8lWbeipAzmGlRH-181" value="DATA" style="shape=partialRectangle;overflow=hidden;connectable=0;fillColor=#eeeeee;top=0;left=0;bottom=0;right=0;align=left;spacingLeft=6;fontStyle=5;strokeColor=#36393d;" parent="jV_eMt8lWbeipAzmGlRH-178" vertex="1">
          <mxGeometry x="100" width="70" height="30" as="geometry">
            <mxRectangle width="70" height="30" as="alternateBounds" />
          </mxGeometry>
        </mxCell>
        <mxCell id="jV_eMt8lWbeipAzmGlRH-182" value="NN" style="shape=partialRectangle;overflow=hidden;connectable=0;fillColor=#eeeeee;top=0;left=0;bottom=0;right=0;align=left;spacingLeft=6;fontStyle=5;strokeColor=#36393d;" parent="jV_eMt8lWbeipAzmGlRH-178" vertex="1">
          <mxGeometry x="170" width="30" height="30" as="geometry">
            <mxRectangle width="30" height="30" as="alternateBounds" />
          </mxGeometry>
        </mxCell>
        <mxCell id="jV_eMt8lWbeipAzmGlRH-183" value="DEFAULT" style="shape=partialRectangle;overflow=hidden;connectable=0;fillColor=#eeeeee;top=0;left=0;bottom=0;right=0;align=left;spacingLeft=6;fontStyle=5;strokeColor=#36393d;" parent="jV_eMt8lWbeipAzmGlRH-178" vertex="1">
          <mxGeometry x="200" width="60" height="30" as="geometry">
            <mxRectangle width="60" height="30" as="alternateBounds" />
          </mxGeometry>
        </mxCell>
        <mxCell id="jV_eMt8lWbeipAzmGlRH-184" value="EX" style="shape=partialRectangle;overflow=hidden;connectable=0;fillColor=#eeeeee;top=0;left=0;bottom=0;right=0;align=left;spacingLeft=6;fontStyle=5;strokeColor=#36393d;" parent="jV_eMt8lWbeipAzmGlRH-178" vertex="1">
          <mxGeometry x="260" width="60" height="30" as="geometry">
            <mxRectangle width="60" height="30" as="alternateBounds" />
          </mxGeometry>
        </mxCell>
        <mxCell id="jV_eMt8lWbeipAzmGlRH-185" value="설명" style="shape=partialRectangle;overflow=hidden;connectable=0;fillColor=#eeeeee;top=0;left=0;bottom=0;right=0;align=left;spacingLeft=6;fontStyle=5;strokeColor=#36393d;" parent="jV_eMt8lWbeipAzmGlRH-178" vertex="1">
          <mxGeometry x="320" width="140" height="30" as="geometry">
            <mxRectangle width="140" height="30" as="alternateBounds" />
          </mxGeometry>
        </mxCell>
        <mxCell id="jV_eMt8lWbeipAzmGlRH-186" style="shape=partialRectangle;collapsible=0;dropTarget=0;pointerEvents=0;fillColor=#eeeeee;points=[[0,0.5],[1,0.5]];portConstraint=eastwest;top=0;left=0;right=0;bottom=0;strokeColor=#36393d;" parent="jV_eMt8lWbeipAzmGlRH-177" vertex="1">
          <mxGeometry y="60" width="460" height="20" as="geometry" />
        </mxCell>
        <mxCell id="jV_eMt8lWbeipAzmGlRH-187" value="pk" style="shape=partialRectangle;overflow=hidden;connectable=0;fillColor=#eeeeee;top=0;left=0;bottom=0;right=0;strokeColor=#36393d;" parent="jV_eMt8lWbeipAzmGlRH-186" vertex="1">
          <mxGeometry width="30" height="20" as="geometry">
            <mxRectangle width="30" height="20" as="alternateBounds" />
          </mxGeometry>
        </mxCell>
        <mxCell id="jV_eMt8lWbeipAzmGlRH-188" value="idx" style="shape=partialRectangle;overflow=hidden;connectable=0;fillColor=#eeeeee;top=0;left=0;bottom=0;right=0;align=left;spacingLeft=6;strokeColor=#36393d;" parent="jV_eMt8lWbeipAzmGlRH-186" vertex="1">
          <mxGeometry x="30" width="70" height="20" as="geometry">
            <mxRectangle width="70" height="20" as="alternateBounds" />
          </mxGeometry>
        </mxCell>
        <mxCell id="jV_eMt8lWbeipAzmGlRH-189" value="int" style="shape=partialRectangle;overflow=hidden;connectable=0;fillColor=#eeeeee;top=0;left=0;bottom=0;right=0;align=left;spacingLeft=6;strokeColor=#36393d;" parent="jV_eMt8lWbeipAzmGlRH-186" vertex="1">
          <mxGeometry x="100" width="70" height="20" as="geometry">
            <mxRectangle width="70" height="20" as="alternateBounds" />
          </mxGeometry>
        </mxCell>
        <mxCell id="jV_eMt8lWbeipAzmGlRH-190" value="nn" style="shape=partialRectangle;overflow=hidden;connectable=0;fillColor=#eeeeee;top=0;left=0;bottom=0;right=0;align=left;spacingLeft=6;strokeColor=#36393d;" parent="jV_eMt8lWbeipAzmGlRH-186" vertex="1">
          <mxGeometry x="170" width="30" height="20" as="geometry">
            <mxRectangle width="30" height="20" as="alternateBounds" />
          </mxGeometry>
        </mxCell>
        <mxCell id="jV_eMt8lWbeipAzmGlRH-191" value="auto indx" style="shape=partialRectangle;overflow=hidden;connectable=0;fillColor=#eeeeee;top=0;left=0;bottom=0;right=0;align=left;spacingLeft=6;strokeColor=#36393d;" parent="jV_eMt8lWbeipAzmGlRH-186" vertex="1">
          <mxGeometry x="200" width="60" height="20" as="geometry">
            <mxRectangle width="60" height="20" as="alternateBounds" />
          </mxGeometry>
        </mxCell>
        <mxCell id="jV_eMt8lWbeipAzmGlRH-192" value="1" style="shape=partialRectangle;overflow=hidden;connectable=0;fillColor=#eeeeee;top=0;left=0;bottom=0;right=0;align=left;spacingLeft=6;strokeColor=#36393d;" parent="jV_eMt8lWbeipAzmGlRH-186" vertex="1">
          <mxGeometry x="260" width="60" height="20" as="geometry">
            <mxRectangle width="60" height="20" as="alternateBounds" />
          </mxGeometry>
        </mxCell>
        <mxCell id="jV_eMt8lWbeipAzmGlRH-193" value="idx" style="shape=partialRectangle;overflow=hidden;connectable=0;fillColor=#eeeeee;top=0;left=0;bottom=0;right=0;align=left;spacingLeft=6;strokeColor=#36393d;" parent="jV_eMt8lWbeipAzmGlRH-186" vertex="1">
          <mxGeometry x="320" width="140" height="20" as="geometry">
            <mxRectangle width="140" height="20" as="alternateBounds" />
          </mxGeometry>
        </mxCell>
        <mxCell id="jV_eMt8lWbeipAzmGlRH-194" value="" style="shape=partialRectangle;collapsible=0;dropTarget=0;pointerEvents=0;fillColor=#eeeeee;points=[[0,0.5],[1,0.5]];portConstraint=eastwest;top=0;left=0;right=0;bottom=0;strokeColor=#36393d;" parent="jV_eMt8lWbeipAzmGlRH-177" vertex="1">
          <mxGeometry y="80" width="460" height="20" as="geometry" />
        </mxCell>
        <mxCell id="jV_eMt8lWbeipAzmGlRH-195" value="fk" style="shape=partialRectangle;overflow=hidden;connectable=0;fillColor=#eeeeee;top=0;left=0;bottom=0;right=0;strokeColor=#36393d;" parent="jV_eMt8lWbeipAzmGlRH-194" vertex="1">
          <mxGeometry width="30" height="20" as="geometry">
            <mxRectangle width="30" height="20" as="alternateBounds" />
          </mxGeometry>
        </mxCell>
        <mxCell id="jV_eMt8lWbeipAzmGlRH-196" value="repo" style="shape=partialRectangle;overflow=hidden;connectable=0;fillColor=#eeeeee;top=0;left=0;bottom=0;right=0;align=left;spacingLeft=6;strokeColor=#36393d;" parent="jV_eMt8lWbeipAzmGlRH-194" vertex="1">
          <mxGeometry x="30" width="70" height="20" as="geometry">
            <mxRectangle width="70" height="20" as="alternateBounds" />
          </mxGeometry>
        </mxCell>
        <mxCell id="jV_eMt8lWbeipAzmGlRH-197" value="int" style="shape=partialRectangle;overflow=hidden;connectable=0;fillColor=#eeeeee;top=0;left=0;bottom=0;right=0;align=left;spacingLeft=6;strokeColor=#36393d;" parent="jV_eMt8lWbeipAzmGlRH-194" vertex="1">
          <mxGeometry x="100" width="70" height="20" as="geometry">
            <mxRectangle width="70" height="20" as="alternateBounds" />
          </mxGeometry>
        </mxCell>
        <mxCell id="jV_eMt8lWbeipAzmGlRH-198" value="nn" style="shape=partialRectangle;overflow=hidden;connectable=0;fillColor=#eeeeee;top=0;left=0;bottom=0;right=0;align=left;spacingLeft=6;strokeColor=#36393d;" parent="jV_eMt8lWbeipAzmGlRH-194" vertex="1">
          <mxGeometry x="170" width="30" height="20" as="geometry">
            <mxRectangle width="30" height="20" as="alternateBounds" />
          </mxGeometry>
        </mxCell>
        <mxCell id="jV_eMt8lWbeipAzmGlRH-199" value="-" style="shape=partialRectangle;overflow=hidden;connectable=0;fillColor=#eeeeee;top=0;left=0;bottom=0;right=0;align=left;spacingLeft=6;strokeColor=#36393d;" parent="jV_eMt8lWbeipAzmGlRH-194" vertex="1">
          <mxGeometry x="200" width="60" height="20" as="geometry">
            <mxRectangle width="60" height="20" as="alternateBounds" />
          </mxGeometry>
        </mxCell>
        <mxCell id="jV_eMt8lWbeipAzmGlRH-200" value="22" style="shape=partialRectangle;overflow=hidden;connectable=0;fillColor=#eeeeee;top=0;left=0;bottom=0;right=0;align=left;spacingLeft=6;strokeColor=#36393d;" parent="jV_eMt8lWbeipAzmGlRH-194" vertex="1">
          <mxGeometry x="260" width="60" height="20" as="geometry">
            <mxRectangle width="60" height="20" as="alternateBounds" />
          </mxGeometry>
        </mxCell>
        <mxCell id="jV_eMt8lWbeipAzmGlRH-201" value="저장소 번호(repo-idx)" style="shape=partialRectangle;overflow=hidden;connectable=0;fillColor=#eeeeee;top=0;left=0;bottom=0;right=0;align=left;spacingLeft=6;strokeColor=#36393d;" parent="jV_eMt8lWbeipAzmGlRH-194" vertex="1">
          <mxGeometry x="320" width="140" height="20" as="geometry">
            <mxRectangle width="140" height="20" as="alternateBounds" />
          </mxGeometry>
        </mxCell>
        <mxCell id="jV_eMt8lWbeipAzmGlRH-202" style="shape=partialRectangle;collapsible=0;dropTarget=0;pointerEvents=0;fillColor=#eeeeee;points=[[0,0.5],[1,0.5]];portConstraint=eastwest;top=0;left=0;right=0;bottom=0;strokeColor=#36393d;" parent="jV_eMt8lWbeipAzmGlRH-177" vertex="1">
          <mxGeometry y="100" width="460" height="20" as="geometry" />
        </mxCell>
        <mxCell id="jV_eMt8lWbeipAzmGlRH-203" value="fk" style="shape=partialRectangle;overflow=hidden;connectable=0;fillColor=#eeeeee;top=0;left=0;bottom=0;right=0;strokeColor=#36393d;" parent="jV_eMt8lWbeipAzmGlRH-202" vertex="1">
          <mxGeometry width="30" height="20" as="geometry">
            <mxRectangle width="30" height="20" as="alternateBounds" />
          </mxGeometry>
        </mxCell>
        <mxCell id="jV_eMt8lWbeipAzmGlRH-204" value="member" style="shape=partialRectangle;overflow=hidden;connectable=0;fillColor=#eeeeee;top=0;left=0;bottom=0;right=0;align=left;spacingLeft=6;strokeColor=#36393d;" parent="jV_eMt8lWbeipAzmGlRH-202" vertex="1">
          <mxGeometry x="30" width="70" height="20" as="geometry">
            <mxRectangle width="70" height="20" as="alternateBounds" />
          </mxGeometry>
        </mxCell>
        <mxCell id="jV_eMt8lWbeipAzmGlRH-205" value="int" style="shape=partialRectangle;overflow=hidden;connectable=0;fillColor=#eeeeee;top=0;left=0;bottom=0;right=0;align=left;spacingLeft=6;strokeColor=#36393d;" parent="jV_eMt8lWbeipAzmGlRH-202" vertex="1">
          <mxGeometry x="100" width="70" height="20" as="geometry">
            <mxRectangle width="70" height="20" as="alternateBounds" />
          </mxGeometry>
        </mxCell>
        <mxCell id="jV_eMt8lWbeipAzmGlRH-206" value="nn" style="shape=partialRectangle;overflow=hidden;connectable=0;fillColor=#eeeeee;top=0;left=0;bottom=0;right=0;align=left;spacingLeft=6;strokeColor=#36393d;" parent="jV_eMt8lWbeipAzmGlRH-202" vertex="1">
          <mxGeometry x="170" width="30" height="20" as="geometry">
            <mxRectangle width="30" height="20" as="alternateBounds" />
          </mxGeometry>
        </mxCell>
        <mxCell id="jV_eMt8lWbeipAzmGlRH-207" value="-" style="shape=partialRectangle;overflow=hidden;connectable=0;fillColor=#eeeeee;top=0;left=0;bottom=0;right=0;align=left;spacingLeft=6;strokeColor=#36393d;" parent="jV_eMt8lWbeipAzmGlRH-202" vertex="1">
          <mxGeometry x="200" width="60" height="20" as="geometry">
            <mxRectangle width="60" height="20" as="alternateBounds" />
          </mxGeometry>
        </mxCell>
        <mxCell id="jV_eMt8lWbeipAzmGlRH-208" value="10" style="shape=partialRectangle;overflow=hidden;connectable=0;fillColor=#eeeeee;top=0;left=0;bottom=0;right=0;align=left;spacingLeft=6;strokeColor=#36393d;" parent="jV_eMt8lWbeipAzmGlRH-202" vertex="1">
          <mxGeometry x="260" width="60" height="20" as="geometry">
            <mxRectangle width="60" height="20" as="alternateBounds" />
          </mxGeometry>
        </mxCell>
        <mxCell id="jV_eMt8lWbeipAzmGlRH-209" value="회원 번호(member-idx)" style="shape=partialRectangle;overflow=hidden;connectable=0;fillColor=#eeeeee;top=0;left=0;bottom=0;right=0;align=left;spacingLeft=6;strokeColor=#36393d;" parent="jV_eMt8lWbeipAzmGlRH-202" vertex="1">
          <mxGeometry x="320" width="140" height="20" as="geometry">
            <mxRectangle width="140" height="20" as="alternateBounds" />
          </mxGeometry>
        </mxCell>
        <mxCell id="jV_eMt8lWbeipAzmGlRH-210" value="" style="endArrow=ERone;html=1;rounded=0;entryX=0;entryY=0.5;entryDx=0;entryDy=0;exitX=1;exitY=0.5;exitDx=0;exitDy=0;startArrow=ERzeroToMany;startFill=0;endFill=0;" parent="1" source="jV_eMt8lWbeipAzmGlRH-178" target="yEf2gbcgYrwrFwAvnMjx-303" edge="1">
          <mxGeometry width="50" height="50" relative="1" as="geometry">
            <mxPoint x="-1310" y="-840" as="sourcePoint" />
            <mxPoint x="-1240" y="-810" as="targetPoint" />
          </mxGeometry>
        </mxCell>
        <mxCell id="jV_eMt8lWbeipAzmGlRH-211" value="" style="endArrow=ERone;html=1;rounded=0;exitX=1;exitY=0.75;exitDx=0;exitDy=0;startArrow=ERzeroToMany;startFill=0;endFill=0;" parent="1" source="jV_eMt8lWbeipAzmGlRH-177" edge="1">
          <mxGeometry width="50" height="50" relative="1" as="geometry">
            <mxPoint x="-1290" y="-760" as="sourcePoint" />
            <mxPoint x="-1230" y="-650" as="targetPoint" />
            <Array as="points">
              <mxPoint x="-1280" y="-830" />
              <mxPoint x="-1280" y="-650" />
            </Array>
          </mxGeometry>
        </mxCell>
        <object label="DB가 아닌 GGitSource(외부프로그램) 저장 데이터" idx="" id="jV_eMt8lWbeipAzmGlRH-212">
          <mxCell style="shape=table;startSize=50;container=1;collapsible=1;childLayout=tableLayout;fixedRows=1;rowLines=0;fontStyle=1;align=center;resizeLast=1;fillColor=#e1d5e7;strokeColor=#9673a6;fontSize=18;" parent="1" vertex="1">
            <mxGeometry x="-680" y="-430" width="470" height="150" as="geometry" />
          </mxCell>
        </object>
        <mxCell id="jV_eMt8lWbeipAzmGlRH-213" value="" style="shape=partialRectangle;collapsible=0;dropTarget=0;pointerEvents=0;fillColor=#eeeeee;points=[[0,0.5],[1,0.5]];portConstraint=eastwest;top=0;left=0;right=0;bottom=1;strokeColor=#36393d;" parent="jV_eMt8lWbeipAzmGlRH-212" vertex="1">
          <mxGeometry y="50" width="470" height="30" as="geometry" />
        </mxCell>
        <mxCell id="jV_eMt8lWbeipAzmGlRH-214" value="KEY" style="shape=partialRectangle;overflow=hidden;connectable=0;fillColor=#eeeeee;top=0;left=0;bottom=0;right=0;fontStyle=1;strokeColor=#36393d;" parent="jV_eMt8lWbeipAzmGlRH-213" vertex="1">
          <mxGeometry width="30" height="30" as="geometry">
            <mxRectangle width="30" height="30" as="alternateBounds" />
          </mxGeometry>
        </mxCell>
        <mxCell id="jV_eMt8lWbeipAzmGlRH-215" value="ATT" style="shape=partialRectangle;overflow=hidden;connectable=0;fillColor=#eeeeee;top=0;left=0;bottom=0;right=0;align=left;spacingLeft=6;fontStyle=5;strokeColor=#36393d;" parent="jV_eMt8lWbeipAzmGlRH-213" vertex="1">
          <mxGeometry x="30" width="70" height="30" as="geometry">
            <mxRectangle width="70" height="30" as="alternateBounds" />
          </mxGeometry>
        </mxCell>
        <mxCell id="jV_eMt8lWbeipAzmGlRH-216" value="DATA" style="shape=partialRectangle;overflow=hidden;connectable=0;fillColor=#eeeeee;top=0;left=0;bottom=0;right=0;align=left;spacingLeft=6;fontStyle=5;strokeColor=#36393d;" parent="jV_eMt8lWbeipAzmGlRH-213" vertex="1">
          <mxGeometry x="100" width="70" height="30" as="geometry">
            <mxRectangle width="70" height="30" as="alternateBounds" />
          </mxGeometry>
        </mxCell>
        <mxCell id="jV_eMt8lWbeipAzmGlRH-217" value="NN" style="shape=partialRectangle;overflow=hidden;connectable=0;fillColor=#eeeeee;top=0;left=0;bottom=0;right=0;align=left;spacingLeft=6;fontStyle=5;strokeColor=#36393d;" parent="jV_eMt8lWbeipAzmGlRH-213" vertex="1">
          <mxGeometry x="170" width="30" height="30" as="geometry">
            <mxRectangle width="30" height="30" as="alternateBounds" />
          </mxGeometry>
        </mxCell>
        <mxCell id="jV_eMt8lWbeipAzmGlRH-218" value="DEFAULT" style="shape=partialRectangle;overflow=hidden;connectable=0;fillColor=#eeeeee;top=0;left=0;bottom=0;right=0;align=left;spacingLeft=6;fontStyle=5;strokeColor=#36393d;" parent="jV_eMt8lWbeipAzmGlRH-213" vertex="1">
          <mxGeometry x="200" width="60" height="30" as="geometry">
            <mxRectangle width="60" height="30" as="alternateBounds" />
          </mxGeometry>
        </mxCell>
        <mxCell id="jV_eMt8lWbeipAzmGlRH-219" value="EX" style="shape=partialRectangle;overflow=hidden;connectable=0;fillColor=#eeeeee;top=0;left=0;bottom=0;right=0;align=left;spacingLeft=6;fontStyle=5;strokeColor=#36393d;" parent="jV_eMt8lWbeipAzmGlRH-213" vertex="1">
          <mxGeometry x="260" width="60" height="30" as="geometry">
            <mxRectangle width="60" height="30" as="alternateBounds" />
          </mxGeometry>
        </mxCell>
        <mxCell id="jV_eMt8lWbeipAzmGlRH-220" value="설명" style="shape=partialRectangle;overflow=hidden;connectable=0;fillColor=#eeeeee;top=0;left=0;bottom=0;right=0;align=left;spacingLeft=6;fontStyle=5;strokeColor=#36393d;" parent="jV_eMt8lWbeipAzmGlRH-213" vertex="1">
          <mxGeometry x="320" width="150" height="30" as="geometry">
            <mxRectangle width="150" height="30" as="alternateBounds" />
          </mxGeometry>
        </mxCell>
        <mxCell id="jV_eMt8lWbeipAzmGlRH-245" style="shape=partialRectangle;collapsible=0;dropTarget=0;pointerEvents=0;fillColor=#eeeeee;points=[[0,0.5],[1,0.5]];portConstraint=eastwest;top=0;left=0;right=0;bottom=0;strokeColor=#36393d;" parent="jV_eMt8lWbeipAzmGlRH-212" vertex="1">
          <mxGeometry y="80" width="470" height="20" as="geometry" />
        </mxCell>
        <mxCell id="jV_eMt8lWbeipAzmGlRH-246" style="shape=partialRectangle;overflow=hidden;connectable=0;fillColor=#eeeeee;top=0;left=0;bottom=0;right=0;strokeColor=#36393d;" parent="jV_eMt8lWbeipAzmGlRH-245" vertex="1">
          <mxGeometry width="30" height="20" as="geometry">
            <mxRectangle width="30" height="20" as="alternateBounds" />
          </mxGeometry>
        </mxCell>
        <mxCell id="jV_eMt8lWbeipAzmGlRH-247" value="repo" style="shape=partialRectangle;overflow=hidden;connectable=0;fillColor=#eeeeee;top=0;left=0;bottom=0;right=0;align=left;spacingLeft=6;strokeColor=#36393d;" parent="jV_eMt8lWbeipAzmGlRH-245" vertex="1">
          <mxGeometry x="30" width="70" height="20" as="geometry">
            <mxRectangle width="70" height="20" as="alternateBounds" />
          </mxGeometry>
        </mxCell>
        <mxCell id="jV_eMt8lWbeipAzmGlRH-248" value="int" style="shape=partialRectangle;overflow=hidden;connectable=0;fillColor=#eeeeee;top=0;left=0;bottom=0;right=0;align=left;spacingLeft=6;strokeColor=#36393d;" parent="jV_eMt8lWbeipAzmGlRH-245" vertex="1">
          <mxGeometry x="100" width="70" height="20" as="geometry">
            <mxRectangle width="70" height="20" as="alternateBounds" />
          </mxGeometry>
        </mxCell>
        <mxCell id="jV_eMt8lWbeipAzmGlRH-249" value="nn" style="shape=partialRectangle;overflow=hidden;connectable=0;fillColor=#eeeeee;top=0;left=0;bottom=0;right=0;align=left;spacingLeft=6;strokeColor=#36393d;" parent="jV_eMt8lWbeipAzmGlRH-245" vertex="1">
          <mxGeometry x="170" width="30" height="20" as="geometry">
            <mxRectangle width="30" height="20" as="alternateBounds" />
          </mxGeometry>
        </mxCell>
        <mxCell id="jV_eMt8lWbeipAzmGlRH-250" style="shape=partialRectangle;overflow=hidden;connectable=0;fillColor=#eeeeee;top=0;left=0;bottom=0;right=0;align=left;spacingLeft=6;strokeColor=#36393d;" parent="jV_eMt8lWbeipAzmGlRH-245" vertex="1">
          <mxGeometry x="200" width="60" height="20" as="geometry">
            <mxRectangle width="60" height="20" as="alternateBounds" />
          </mxGeometry>
        </mxCell>
        <mxCell id="jV_eMt8lWbeipAzmGlRH-251" value="1" style="shape=partialRectangle;overflow=hidden;connectable=0;fillColor=#eeeeee;top=0;left=0;bottom=0;right=0;align=left;spacingLeft=6;strokeColor=#36393d;" parent="jV_eMt8lWbeipAzmGlRH-245" vertex="1">
          <mxGeometry x="260" width="60" height="20" as="geometry">
            <mxRectangle width="60" height="20" as="alternateBounds" />
          </mxGeometry>
        </mxCell>
        <mxCell id="jV_eMt8lWbeipAzmGlRH-252" value="연결된 repo idx" style="shape=partialRectangle;overflow=hidden;connectable=0;fillColor=#eeeeee;top=0;left=0;bottom=0;right=0;align=left;spacingLeft=6;strokeColor=#36393d;" parent="jV_eMt8lWbeipAzmGlRH-245" vertex="1">
          <mxGeometry x="320" width="150" height="20" as="geometry">
            <mxRectangle width="150" height="20" as="alternateBounds" />
          </mxGeometry>
        </mxCell>
        <mxCell id="jV_eMt8lWbeipAzmGlRH-221" style="shape=partialRectangle;collapsible=0;dropTarget=0;pointerEvents=0;fillColor=#eeeeee;points=[[0,0.5],[1,0.5]];portConstraint=eastwest;top=0;left=0;right=0;bottom=0;strokeColor=#36393d;" parent="jV_eMt8lWbeipAzmGlRH-212" vertex="1">
          <mxGeometry y="100" width="470" height="20" as="geometry" />
        </mxCell>
        <mxCell id="jV_eMt8lWbeipAzmGlRH-222" value="" style="shape=partialRectangle;overflow=hidden;connectable=0;fillColor=#eeeeee;top=0;left=0;bottom=0;right=0;strokeColor=#36393d;" parent="jV_eMt8lWbeipAzmGlRH-221" vertex="1">
          <mxGeometry width="30" height="20" as="geometry">
            <mxRectangle width="30" height="20" as="alternateBounds" />
          </mxGeometry>
        </mxCell>
        <mxCell id="jV_eMt8lWbeipAzmGlRH-223" value="token" style="shape=partialRectangle;overflow=hidden;connectable=0;fillColor=#eeeeee;top=0;left=0;bottom=0;right=0;align=left;spacingLeft=6;strokeColor=#36393d;" parent="jV_eMt8lWbeipAzmGlRH-221" vertex="1">
          <mxGeometry x="30" width="70" height="20" as="geometry">
            <mxRectangle width="70" height="20" as="alternateBounds" />
          </mxGeometry>
        </mxCell>
        <mxCell id="jV_eMt8lWbeipAzmGlRH-224" value="string" style="shape=partialRectangle;overflow=hidden;connectable=0;fillColor=#eeeeee;top=0;left=0;bottom=0;right=0;align=left;spacingLeft=6;strokeColor=#36393d;" parent="jV_eMt8lWbeipAzmGlRH-221" vertex="1">
          <mxGeometry x="100" width="70" height="20" as="geometry">
            <mxRectangle width="70" height="20" as="alternateBounds" />
          </mxGeometry>
        </mxCell>
        <mxCell id="jV_eMt8lWbeipAzmGlRH-225" value="nn" style="shape=partialRectangle;overflow=hidden;connectable=0;fillColor=#eeeeee;top=0;left=0;bottom=0;right=0;align=left;spacingLeft=6;strokeColor=#36393d;" parent="jV_eMt8lWbeipAzmGlRH-221" vertex="1">
          <mxGeometry x="170" width="30" height="20" as="geometry">
            <mxRectangle width="30" height="20" as="alternateBounds" />
          </mxGeometry>
        </mxCell>
        <mxCell id="jV_eMt8lWbeipAzmGlRH-226" value="" style="shape=partialRectangle;overflow=hidden;connectable=0;fillColor=#eeeeee;top=0;left=0;bottom=0;right=0;align=left;spacingLeft=6;strokeColor=#36393d;" parent="jV_eMt8lWbeipAzmGlRH-221" vertex="1">
          <mxGeometry x="200" width="60" height="20" as="geometry">
            <mxRectangle width="60" height="20" as="alternateBounds" />
          </mxGeometry>
        </mxCell>
        <mxCell id="jV_eMt8lWbeipAzmGlRH-227" value="1" style="shape=partialRectangle;overflow=hidden;connectable=0;fillColor=#eeeeee;top=0;left=0;bottom=0;right=0;align=left;spacingLeft=6;strokeColor=#36393d;" parent="jV_eMt8lWbeipAzmGlRH-221" vertex="1">
          <mxGeometry x="260" width="60" height="20" as="geometry">
            <mxRectangle width="60" height="20" as="alternateBounds" />
          </mxGeometry>
        </mxCell>
        <mxCell id="jV_eMt8lWbeipAzmGlRH-228" value="현재토큰" style="shape=partialRectangle;overflow=hidden;connectable=0;fillColor=#eeeeee;top=0;left=0;bottom=0;right=0;align=left;spacingLeft=6;strokeColor=#36393d;" parent="jV_eMt8lWbeipAzmGlRH-221" vertex="1">
          <mxGeometry x="320" width="150" height="20" as="geometry">
            <mxRectangle width="150" height="20" as="alternateBounds" />
          </mxGeometry>
        </mxCell>
        <mxCell id="jV_eMt8lWbeipAzmGlRH-229" value="" style="shape=partialRectangle;collapsible=0;dropTarget=0;pointerEvents=0;fillColor=#eeeeee;points=[[0,0.5],[1,0.5]];portConstraint=eastwest;top=0;left=0;right=0;bottom=0;strokeColor=#36393d;" parent="jV_eMt8lWbeipAzmGlRH-212" vertex="1">
          <mxGeometry y="120" width="470" height="30" as="geometry" />
        </mxCell>
        <mxCell id="jV_eMt8lWbeipAzmGlRH-230" value="" style="shape=partialRectangle;overflow=hidden;connectable=0;fillColor=#eeeeee;top=0;left=0;bottom=0;right=0;strokeColor=#36393d;" parent="jV_eMt8lWbeipAzmGlRH-229" vertex="1">
          <mxGeometry width="30" height="30" as="geometry">
            <mxRectangle width="30" height="30" as="alternateBounds" />
          </mxGeometry>
        </mxCell>
        <mxCell id="jV_eMt8lWbeipAzmGlRH-231" value="member" style="shape=partialRectangle;overflow=hidden;connectable=0;fillColor=#eeeeee;top=0;left=0;bottom=0;right=0;align=left;spacingLeft=6;strokeColor=#36393d;" parent="jV_eMt8lWbeipAzmGlRH-229" vertex="1">
          <mxGeometry x="30" width="70" height="30" as="geometry">
            <mxRectangle width="70" height="30" as="alternateBounds" />
          </mxGeometry>
        </mxCell>
        <mxCell id="jV_eMt8lWbeipAzmGlRH-232" value="int" style="shape=partialRectangle;overflow=hidden;connectable=0;fillColor=#eeeeee;top=0;left=0;bottom=0;right=0;align=left;spacingLeft=6;strokeColor=#36393d;" parent="jV_eMt8lWbeipAzmGlRH-229" vertex="1">
          <mxGeometry x="100" width="70" height="30" as="geometry">
            <mxRectangle width="70" height="30" as="alternateBounds" />
          </mxGeometry>
        </mxCell>
        <mxCell id="jV_eMt8lWbeipAzmGlRH-233" value="nn" style="shape=partialRectangle;overflow=hidden;connectable=0;fillColor=#eeeeee;top=0;left=0;bottom=0;right=0;align=left;spacingLeft=6;strokeColor=#36393d;" parent="jV_eMt8lWbeipAzmGlRH-229" vertex="1">
          <mxGeometry x="170" width="30" height="30" as="geometry">
            <mxRectangle width="30" height="30" as="alternateBounds" />
          </mxGeometry>
        </mxCell>
        <mxCell id="jV_eMt8lWbeipAzmGlRH-234" value="-" style="shape=partialRectangle;overflow=hidden;connectable=0;fillColor=#eeeeee;top=0;left=0;bottom=0;right=0;align=left;spacingLeft=6;strokeColor=#36393d;" parent="jV_eMt8lWbeipAzmGlRH-229" vertex="1">
          <mxGeometry x="200" width="60" height="30" as="geometry">
            <mxRectangle width="60" height="30" as="alternateBounds" />
          </mxGeometry>
        </mxCell>
        <mxCell id="jV_eMt8lWbeipAzmGlRH-235" value="5" style="shape=partialRectangle;overflow=hidden;connectable=0;fillColor=#eeeeee;top=0;left=0;bottom=0;right=0;align=left;spacingLeft=6;strokeColor=#36393d;" parent="jV_eMt8lWbeipAzmGlRH-229" vertex="1">
          <mxGeometry x="260" width="60" height="30" as="geometry">
            <mxRectangle width="60" height="30" as="alternateBounds" />
          </mxGeometry>
        </mxCell>
        <mxCell id="jV_eMt8lWbeipAzmGlRH-236" value="로그인된 member idx&#xa;켰을때 자동 로근인" style="shape=partialRectangle;overflow=hidden;connectable=0;fillColor=#eeeeee;top=0;left=0;bottom=0;right=0;align=left;spacingLeft=6;strokeColor=#36393d;" parent="jV_eMt8lWbeipAzmGlRH-229" vertex="1">
          <mxGeometry x="320" width="150" height="30" as="geometry">
            <mxRectangle width="150" height="30" as="alternateBounds" />
          </mxGeometry>
        </mxCell>
      </root>
    </mxGraphModel>
  </diagram>
</mxfile>
